<svg width="2013" height="772" xmlns="http://www.w3.org/2000/svg" xmlns:xlink="http://www.w3.org/1999/xlink" overflow="hidden"><defs><clipPath id="clip0"><rect x="421" y="358" width="2013" height="772"/></clipPath><clipPath id="clip1"><rect x="421" y="793" width="483" height="228"/></clipPath><clipPath id="clip2"><rect x="421" y="793" width="483" height="228"/></clipPath><clipPath id="clip3"><rect x="421" y="793" width="483" height="228"/></clipPath><clipPath id="clip4"><rect x="1659" y="731" width="28" height="210"/></clipPath><clipPath id="clip5"><rect x="1659" y="731" width="28" height="210"/></clipPath><clipPath id="clip6"><rect x="1651" y="723" width="44" height="227"/></clipPath><clipPath id="clip7"><rect x="1659" y="357" width="27" height="214"/></clipPath><clipPath id="clip8"><rect x="1659" y="357" width="27" height="214"/></clipPath><clipPath id="clip9"><rect x="1651" y="351" width="42" height="228"/></clipPath><clipPath id="clip10"><rect x="958" y="908" width="460" height="29"/></clipPath><clipPath id="clip11"><rect x="958" y="908" width="460" height="29"/></clipPath><clipPath id="clip12"><rect x="950" y="900" width="476" height="43"/></clipPath><clipPath id="clip13"><rect x="953" y="537" width="464" height="27"/></clipPath><clipPath id="clip14"><rect x="953" y="537" width="464" height="27"/></clipPath><clipPath id="clip15"><rect x="944" y="531" width="482" height="41"/></clipPath><clipPath id="clip16"><rect x="1272" y="643" width="272" height="52"/></clipPath><clipPath id="clip17"><rect x="1272" y="643" width="272" height="52"/></clipPath><clipPath id="clip18"><rect x="1272" y="643" width="272" height="52"/></clipPath><clipPath id="clip19"><rect x="1272" y="1029" width="256" height="32"/></clipPath><clipPath id="clip20"><rect x="1272" y="1029" width="256" height="32"/></clipPath><clipPath id="clip21"><rect x="1263" y="1019" width="271" height="52"/></clipPath><clipPath id="clip22"><rect x="1867" y="655" width="32" height="33"/></clipPath><clipPath id="clip23"><rect x="1867" y="655" width="32" height="33"/></clipPath><clipPath id="clip24"><rect x="1864" y="652" width="40" height="39"/></clipPath><clipPath id="clip25"><rect x="1944" y="518" width="36" height="36"/></clipPath><clipPath id="clip26"><rect x="1944" y="518" width="36" height="36"/></clipPath><clipPath id="clip27"><rect x="1939" y="512" width="46" height="46"/></clipPath><clipPath id="clip28"><rect x="1864" y="1021" width="33" height="33"/></clipPath><clipPath id="clip29"><rect x="1864" y="1021" width="33" height="33"/></clipPath><clipPath id="clip30"><rect x="1860" y="1018" width="41" height="40"/></clipPath><clipPath id="clip31"><rect x="2162" y="875" width="102" height="73"/></clipPath><clipPath id="clip32"><rect x="2162" y="875" width="102" height="73"/></clipPath><clipPath id="clip33"><rect x="2157" y="871" width="113" height="81"/></clipPath></defs><g clip-path="url(#clip0)" transform="translate(-421 -358)"><path d="M1379.99 1079.74 1387.79 1079.74 1387.79 1080.77C1387.3 1080.86 1386.94 1081 1386.71 1081.19 1386.48 1081.38 1386.36 1081.66 1386.36 1082.04 1386.36 1082.54 1386.5 1083.19 1386.77 1083.99L1389.02 1090.82 1391.51 1084.83C1391.71 1084.33 1391.87 1083.89 1391.97 1083.51 1392.08 1083.13 1392.13 1082.76 1392.13 1082.39 1392.13 1081.96 1392.01 1081.59 1391.76 1081.31 1391.51 1081.02 1391.15 1080.84 1390.69 1080.77L1390.69 1079.74 1396.77 1079.74 1396.77 1080.79C1396.43 1080.9 1396.14 1081.05 1395.92 1081.24 1395.7 1081.43 1395.45 1081.75 1395.17 1082.21 1394.89 1082.68 1394.51 1083.47 1394.01 1084.6L1389.13 1095.39 1386.18 1095.39 1382.05 1083.5C1381.77 1082.68 1381.54 1082.12 1381.36 1081.81 1381.19 1081.5 1380.99 1081.27 1380.78 1081.11 1380.57 1080.94 1380.3 1080.83 1379.99 1080.77Z" fill-rule="evenodd"/><text fill="#000000" fill-opacity="0" font-family="Arial,Arial_MSFontService,sans-serif" font-size="15.6562" x="1379.99" y="1093.44">𝐯</text><path d="M1402.15 1086.28C1403.26 1086.28 1404.15 1086.43 1404.85 1086.73 1405.55 1087.02 1406.05 1087.42 1406.36 1087.93 1406.67 1088.43 1406.83 1089.02 1406.83 1089.7 1406.83 1090.29 1406.72 1090.84 1406.49 1091.35 1406.27 1091.86 1405.89 1092.44 1405.35 1093.09 1404.81 1093.74 1403.89 1094.67 1402.6 1095.89 1402.21 1096.26 1401.73 1096.75 1401.18 1097.36 1400.63 1097.97 1400.2 1098.49 1399.87 1098.93L1399.87 1099.04 1403.86 1099.04C1404.35 1099.04 1404.71 1099.01 1404.95 1098.93 1405.19 1098.86 1405.38 1098.74 1405.52 1098.56 1405.66 1098.39 1405.77 1098.12 1405.86 1097.77L1407.15 1097.77 1406.89 1101.79 1396.61 1101.79 1396.61 1101.05C1397.18 1099.73 1398.36 1098.02 1400.14 1095.93 1400.95 1094.98 1401.57 1094.2 1401.99 1093.58 1402.41 1092.97 1402.73 1092.39 1402.94 1091.84 1403.15 1091.3 1403.26 1090.73 1403.26 1090.15 1403.26 1089.32 1403.07 1088.68 1402.7 1088.21 1402.34 1087.74 1401.84 1087.51 1401.2 1087.51 1399.98 1087.51 1399.2 1088.39 1398.85 1090.15L1396.83 1090.15 1396.83 1087.5C1398.05 1087 1399.04 1086.68 1399.78 1086.52 1400.53 1086.36 1401.32 1086.28 1402.15 1086.28Z" fill-rule="evenodd"/><text fill="#000000" fill-opacity="0" font-family="Arial,Arial_MSFontService,sans-serif" font-size="15.5093" x="1396.61" y="1099.85">𝟐</text><path d="M1412.39 1073.91 1427.89 1073.91 1427.89 1074.94 1417.89 1093.38 1422.36 1093.38C1422.93 1093.38 1423.41 1093.26 1423.8 1093.03 1424.18 1092.79 1424.52 1092.42 1424.8 1091.92 1425.08 1091.41 1425.37 1090.54 1425.67 1089.29L1427.8 1089.29 1427.8 1095.24 1412.14 1095.24 1412.14 1094.21 1422.14 1075.77 1417.91 1075.77C1417.22 1075.77 1416.68 1075.89 1416.28 1076.14 1415.89 1076.39 1415.55 1076.8 1415.27 1077.35 1414.99 1077.9 1414.74 1078.63 1414.53 1079.55L1412.39 1079.55Z" fill-rule="evenodd"/><text fill="#000000" fill-opacity="0" font-family="Arial,Arial_MSFontService,sans-serif" font-size="21.3281" x="1412.14" y="1092.57">𝐙</text><path d="M1433.37 1090.56 1434.77 1090.56 1434.77 1098.55C1434.77 1099.27 1434.79 1099.76 1434.83 1100.02 1434.87 1100.29 1434.96 1100.5 1435.11 1100.66 1435.25 1100.82 1435.51 1100.95 1435.89 1101.05L1435.89 1101.79 1430.41 1101.79 1430.41 1101.05C1430.78 1100.95 1431.03 1100.83 1431.17 1100.67 1431.31 1100.51 1431.4 1100.3 1431.45 1100.03 1431.5 1099.76 1431.52 1099.27 1431.52 1098.56L1431.52 1093.34C1431.52 1092.81 1431.49 1092.44 1431.42 1092.22 1431.36 1092 1431.24 1091.83 1431.09 1091.71 1430.94 1091.6 1430.67 1091.5 1430.28 1091.42L1430.28 1090.65ZM1431.6 1086.17 1434.68 1086.17 1434.68 1088.92 1431.6 1088.92Z" fill-rule="evenodd"/><text fill="#000000" fill-opacity="0" font-family="Arial,Arial_MSFontService,sans-serif" font-size="15.6216" x="1430.28" y="1099.84">𝐢</text><path d="M1978.5 538.5 2057.79 538.501" stroke="#000000" stroke-width="3.4375" stroke-linejoin="round" stroke-miterlimit="10" fill="none" fill-rule="evenodd"/><path d="M0 0 2.0625 233.475" stroke="#000000" stroke-width="3.4375" stroke-linejoin="round" stroke-miterlimit="10" fill="none" fill-rule="evenodd" transform="matrix(1 0 0 -1 947.5 903.975)"/><path d="M0.00480096-1.71874 141.171-1.32442 141.162 2.11306-0.00480096 1.71874ZM136.622-13.3684 164.083 0.458333 136.545 14.1315Z" transform="matrix(1 0 0 -1 948.5 667.958)"/><path d="M1114 669.5C1114 658.178 1123.18 649 1134.5 649 1145.82 649 1155 658.178 1155 669.5 1155 680.822 1145.82 690 1134.5 690 1123.18 690 1114 680.822 1114 669.5Z" stroke="#C0504D" stroke-width="2.29167" stroke-linejoin="round" stroke-miterlimit="10" fill="#FFFFFF" fill-rule="evenodd"/><path d="M0.00795709-1.71873 76.0916-1.36649 76.0756 2.07097-0.00795709 1.71873ZM71.5639-13.4188 99 0.458333 71.4366 14.0809Z" transform="matrix(1 0 0 -1 1161.5 669.958)"/><path d="M1652 671.5C1652 660.178 1661.4 651 1673 651 1684.6 651 1694 660.178 1694 671.5 1694 682.822 1684.6 692 1673 692 1661.4 692 1652 682.822 1652 671.5Z" stroke="#C0504D" stroke-width="2.29167" stroke-linejoin="round" stroke-miterlimit="10" fill="#FFFFFF" fill-rule="evenodd"/><path d="M1554.5 664.781 1625.7 664.782 1625.7 668.219 1554.5 668.219ZM1621.12 652.75 1648.62 666.5 1621.12 680.25Z"/><path d="M0.00480096-1.71874 141.171-1.32442 141.162 2.11306-0.00480096 1.71874ZM136.622-13.3684 164.083 0.458333 136.545 14.1315Z" transform="matrix(1 0 0 -1 1700.5 669.958)"/><path d="M1909.5 670.5 1978.71 670.501" stroke="#000000" stroke-width="3.4375" stroke-linejoin="round" stroke-miterlimit="10" fill="none" fill-rule="evenodd"/><path d="M1978.87 911.297 1978.5 670.5" stroke="#000000" stroke-width="3.4375" stroke-linejoin="round" stroke-miterlimit="10" fill="none" fill-rule="evenodd"/><path d="M1979.19 1042.29 1978.5 905.5" stroke="#000000" stroke-width="3.4375" stroke-linejoin="round" stroke-miterlimit="10" fill="none" fill-rule="evenodd"/><path d="M947.5 1044.43 947.5 906.5" stroke="#000000" stroke-width="3.4375" stroke-linejoin="round" stroke-miterlimit="10" fill="none" fill-rule="evenodd"/><path d="M1977.5 905.5 2041.94 906.589" stroke="#000000" stroke-width="3.4375" stroke-linejoin="round" stroke-miterlimit="10" fill="none" fill-rule="evenodd"/><path d="M2042 906.5C2042 895.178 2051.4 886 2063 886 2074.6 886 2084 895.178 2084 906.5 2084 917.822 2074.6 927 2063 927 2051.4 927 2042 917.822 2042 906.5Z" stroke="#C0504D" stroke-width="2.29167" stroke-linejoin="round" stroke-miterlimit="10" fill="#FFFFFF" fill-rule="evenodd"/><path d="M2083.5 903.781 2128.88 903.781 2128.88 907.219 2083.5 907.219ZM2124.29 891.75 2151.79 905.5 2124.29 919.25Z"/><path d="M2151 882.833C2151 875.193 2157.19 869 2164.83 869L2263.17 869C2270.81 869 2277 875.193 2277 882.833L2277 938.167C2277 945.806 2270.81 952 2263.17 952L2164.83 952C2157.19 952 2151 945.806 2151 938.167Z" stroke="#5C4776" stroke-width="2.29167" stroke-linejoin="round" stroke-miterlimit="10" fill="none" fill-rule="evenodd"/><path d="M0.897598-1.46575 36.3543 20.2473 34.5591 23.1788-0.897598 1.46575ZM38.7288 7.59345 55 33.681 24.3672 31.0454Z" transform="matrix(1 0 0 -1 2277.5 912.181)"/><path d="M2277.52 910.12 2314.12 937.253 2312.07 940.015 2275.48 912.881ZM2317.6 924.859 2331.5 952.284 2301.22 946.949Z"/><path d="M0.00480096-1.71874 141.171-1.32442 141.162 2.11306-0.00480096 1.71874ZM136.622-13.3684 164.083 0.458333 136.545 14.1315Z" transform="matrix(1 0 0 -1 948.5 1041.96)"/><path d="M1117 1040.5C1117 1029.18 1126.4 1020 1138 1020 1149.6 1020 1159 1029.18 1159 1040.5 1159 1051.82 1149.6 1061 1138 1061 1126.4 1061 1117 1051.82 1117 1040.5Z" stroke="#C0504D" stroke-width="2.29167" stroke-linejoin="round" stroke-miterlimit="10" fill="#FFFFFF" fill-rule="evenodd"/><path d="M0.00795709-1.71873 76.0916-1.36649 76.0756 2.07097-0.00795709 1.71873ZM71.5639-13.4188 99 0.458333 71.4366 14.0809Z" transform="matrix(1 0 0 -1 1166.5 1043.96)"/><path d="M1652 1047.5C1652 1036.18 1661.4 1027 1673 1027 1684.6 1027 1694 1036.18 1694 1047.5 1694 1058.82 1684.6 1068 1673 1068 1661.4 1068 1652 1058.82 1652 1047.5Z" stroke="#C0504D" stroke-width="2.29167" stroke-linejoin="round" stroke-miterlimit="10" fill="#FFFFFF" fill-rule="evenodd"/><path d="M0.00795709-1.71873 76.0916-1.36649 76.0756 2.07097-0.00795709 1.71873ZM71.5639-13.4188 99 0.458333 71.4366 14.0809Z" transform="matrix(1 0 0 -1 1548.5 1044.96)"/><path d="M0.00480096-1.71874 141.171-1.32442 141.162 2.11306-0.00480096 1.71874ZM136.622-13.3684 164.083 0.458333 136.545 14.1315Z" transform="matrix(1 0 0 -1 1697.5 1043.96)"/><path d="M1907.5 1041.5 1979 1041.5" stroke="#000000" stroke-width="3.4375" stroke-linejoin="round" stroke-miterlimit="10" fill="none" fill-rule="evenodd"/><g clip-path="url(#clip1)"><g clip-path="url(#clip2)"><g clip-path="url(#clip3)"><path d="M0 0 482 0 482 227.504 0 227.504Z" fill="#FFFFFF" transform="matrix(1 0 0 1.00218 421 793)"/><path d="M9.64 9.64 32.776 9.64 32.776 32.776 9.64 32.776Z" stroke="#444444" stroke-width="0.482" fill="#2CB17E" transform="matrix(1 0 0 1.00218 421 793)"/><path d="M32.776 9.64 55.912 9.64 55.912 32.776 32.776 32.776Z" stroke="#444444" stroke-width="0.482" fill="#460A5D" transform="matrix(1 0 0 1.00218 421 793)"/><path d="M55.912 9.64 79.048 9.64 79.048 32.776 55.912 32.776Z" stroke="#444444" stroke-width="0.482" fill="#38598C" transform="matrix(1 0 0 1.00218 421 793)"/><path d="M79.048 9.64 102.184 9.64 102.184 32.776 79.048 32.776Z" stroke="#444444" stroke-width="0.482" fill="#3E4A89" transform="matrix(1 0 0 1.00218 421 793)"/><path d="M102.184 9.64 125.32 9.64 125.32 32.776 102.184 32.776Z" stroke="#444444" stroke-width="0.482" fill="#56C667" transform="matrix(1 0 0 1.00218 421 793)"/><path d="M125.32 9.64 148.456 9.64 148.456 32.776 125.32 32.776Z" stroke="#444444" stroke-width="0.482" fill="#3ABA76" transform="matrix(1 0 0 1.00218 421 793)"/><path d="M148.456 9.64 171.592 9.64 171.592 32.776 148.456 32.776Z" stroke="#444444" stroke-width="0.482" fill="#B8DE29" transform="matrix(1 0 0 1.00218 421 793)"/><path d="M171.592 9.64 194.728 9.64 194.728 32.776 171.592 32.776Z" stroke="#444444" stroke-width="0.482" fill="#482071" transform="matrix(1 0 0 1.00218 421 793)"/><path d="M194.728 9.64 217.864 9.64 217.864 32.776 194.728 32.776Z" stroke="#444444" stroke-width="0.482" fill="#277E8E" transform="matrix(1 0 0 1.00218 421 793)"/><path d="M217.864 9.64 241 9.64 241 32.776 217.864 32.776Z" stroke="#444444" stroke-width="0.482" fill="#460B5E" transform="matrix(1 0 0 1.00218 421 793)"/><path d="M241 9.64 264.136 9.64 264.136 32.776 241 32.776Z" stroke="#444444" stroke-width="0.482" fill="#3F4889" transform="matrix(1 0 0 1.00218 421 793)"/><path d="M264.136 9.64 287.272 9.64 287.272 32.776 264.136 32.776Z" stroke="#444444" stroke-width="0.482" fill="#20928C" transform="matrix(1 0 0 1.00218 421 793)"/><path d="M287.272 9.64 310.408 9.64 310.408 32.776 287.272 32.776Z" stroke="#444444" stroke-width="0.482" fill="#460A5D" transform="matrix(1 0 0 1.00218 421 793)"/><path d="M310.408 9.64 333.544 9.64 333.544 32.776 310.408 32.776Z" stroke="#444444" stroke-width="0.482" fill="#414287" transform="matrix(1 0 0 1.00218 421 793)"/><path d="M333.544 9.64 356.68 9.64 356.68 32.776 333.544 32.776Z" stroke="#444444" stroke-width="0.482" fill="#2FB47C" transform="matrix(1 0 0 1.00218 421 793)"/><path d="M356.68 9.64 379.816 9.64 379.816 32.776 356.68 32.776Z" stroke="#444444" stroke-width="0.482" fill="#1E9B8A" transform="matrix(1 0 0 1.00218 421 793)"/><path d="M379.816 9.64 402.952 9.64 402.952 32.776 379.816 32.776Z" stroke="#444444" stroke-width="0.482" fill="#3E4989" transform="matrix(1 0 0 1.00218 421 793)"/><path d="M402.952 9.64 426.088 9.64 426.088 32.776 402.952 32.776Z" stroke="#444444" stroke-width="0.482" fill="#21A585" transform="matrix(1 0 0 1.00218 421 793)"/><path d="M426.088 9.64 449.224 9.64 449.224 32.776 426.088 32.776Z" stroke="#444444" stroke-width="0.482" fill="#81D34D" transform="matrix(1 0 0 1.00218 421 793)"/><path d="M449.224 9.64 472.36 9.64 472.36 32.776 449.224 32.776Z" stroke="#444444" stroke-width="0.482" fill="#440256" transform="matrix(1 0 0 1.00218 421 793)"/><path d="M9.64 32.776 32.776 32.776 32.776 55.912 9.64 55.912Z" stroke="#444444" stroke-width="0.482" fill="#7FD34E" transform="matrix(1 0 0 1.00218 421 793)"/><path d="M32.776 32.776 55.912 32.776 55.912 55.912 32.776 55.912Z" stroke="#444444" stroke-width="0.482" fill="#42BE71" transform="matrix(1 0 0 1.00218 421 793)"/><path d="M55.912 32.776 79.048 32.776 79.048 55.912 55.912 55.912Z" stroke="#444444" stroke-width="0.482" fill="#306A8E" transform="matrix(1 0 0 1.00218 421 793)"/><path d="M79.048 32.776 102.184 32.776 102.184 55.912 79.048 55.912Z" stroke="#444444" stroke-width="0.482" fill="#453581" transform="matrix(1 0 0 1.00218 421 793)"/><path d="M102.184 32.776 125.32 32.776 125.32 55.912 102.184 55.912Z" stroke="#444444" stroke-width="0.482" fill="#E5E419" transform="matrix(1 0 0 1.00218 421 793)"/><path d="M125.32 32.776 148.456 32.776 148.456 55.912 125.32 55.912Z" stroke="#444444" stroke-width="0.482" fill="#30698E" transform="matrix(1 0 0 1.00218 421 793)"/><path d="M148.456 32.776 171.592 32.776 171.592 55.912 148.456 55.912Z" stroke="#444444" stroke-width="0.482" fill="#482173" transform="matrix(1 0 0 1.00218 421 793)"/><path d="M171.592 32.776 194.728 32.776 194.728 55.912 171.592 55.912Z" stroke="#444444" stroke-width="0.482" fill="#482374" transform="matrix(1 0 0 1.00218 421 793)"/><path d="M194.728 32.776 217.864 32.776 217.864 55.912 194.728 55.912Z" stroke="#444444" stroke-width="0.482" fill="#98D83E" transform="matrix(1 0 0 1.00218 421 793)"/><path d="M217.864 32.776 241 32.776 241 55.912 217.864 55.912Z" stroke="#444444" stroke-width="0.482" fill="#23A983" transform="matrix(1 0 0 1.00218 421 793)"/><path d="M241 32.776 264.136 32.776 264.136 55.912 241 55.912Z" stroke="#444444" stroke-width="0.482" fill="#7FD34E" transform="matrix(1 0 0 1.00218 421 793)"/><path d="M264.136 32.776 287.272 32.776 287.272 55.912 264.136 55.912Z" stroke="#444444" stroke-width="0.482" fill="#52C569" transform="matrix(1 0 0 1.00218 421 793)"/><path d="M287.272 32.776 310.408 32.776 310.408 55.912 287.272 55.912Z" stroke="#444444" stroke-width="0.482" fill="#1F998A" transform="matrix(1 0 0 1.00218 421 793)"/><path d="M310.408 32.776 333.544 32.776 333.544 55.912 310.408 55.912Z" stroke="#444444" stroke-width="0.482" fill="#EFE51C" transform="matrix(1 0 0 1.00218 421 793)"/><path d="M333.544 32.776 356.68 32.776 356.68 55.912 333.544 55.912Z" stroke="#444444" stroke-width="0.482" fill="#2C728E" transform="matrix(1 0 0 1.00218 421 793)"/><path d="M356.68 32.776 379.816 32.776 379.816 55.912 356.68 55.912Z" stroke="#444444" stroke-width="0.482" fill="#1E9D89" transform="matrix(1 0 0 1.00218 421 793)"/><path d="M379.816 32.776 402.952 32.776 402.952 55.912 379.816 55.912Z" stroke="#444444" stroke-width="0.482" fill="#8ED645" transform="matrix(1 0 0 1.00218 421 793)"/><path d="M402.952 32.776 426.088 32.776 426.088 55.912 402.952 55.912Z" stroke="#444444" stroke-width="0.482" fill="#26AD81" transform="matrix(1 0 0 1.00218 421 793)"/><path d="M426.088 32.776 449.224 32.776 449.224 55.912 426.088 55.912Z" stroke="#444444" stroke-width="0.482" fill="#A2DA37" transform="matrix(1 0 0 1.00218 421 793)"/><path d="M449.224 32.776 472.36 32.776 472.36 55.912 449.224 55.912Z" stroke="#444444" stroke-width="0.482" fill="#1FA287" transform="matrix(1 0 0 1.00218 421 793)"/><path d="M9.64 55.912 32.776 55.912 32.776 79.048 9.64 79.048Z" stroke="#444444" stroke-width="0.482" fill="#46C06F" transform="matrix(1 0 0 1.00218 421 793)"/><path d="M32.776 55.912 55.912 55.912 55.912 79.048 32.776 79.048Z" stroke="#444444" stroke-width="0.482" fill="#471164" transform="matrix(1 0 0 1.00218 421 793)"/><path d="M55.912 55.912 79.048 55.912 79.048 79.048 55.912 79.048Z" stroke="#444444" stroke-width="0.482" fill="#3E4C8A" transform="matrix(1 0 0 1.00218 421 793)"/><path d="M79.048 55.912 102.184 55.912 102.184 79.048 79.048 79.048Z" stroke="#444444" stroke-width="0.482" fill="#365D8D" transform="matrix(1 0 0 1.00218 421 793)"/><path d="M102.184 55.912 125.32 55.912 125.32 79.048 102.184 79.048Z" stroke="#444444" stroke-width="0.482" fill="#481D6F" transform="matrix(1 0 0 1.00218 421 793)"/><path d="M125.32 55.912 148.456 55.912 148.456 79.048 125.32 79.048Z" stroke="#444444" stroke-width="0.482" fill="#3D4D8A" transform="matrix(1 0 0 1.00218 421 793)"/><path d="M148.456 55.912 171.592 55.912 171.592 79.048 148.456 79.048Z" stroke="#444444" stroke-width="0.482" fill="#482475" transform="matrix(1 0 0 1.00218 421 793)"/><path d="M171.592 55.912 194.728 55.912 194.728 79.048 171.592 79.048Z" stroke="#444444" stroke-width="0.482" fill="#375A8C" transform="matrix(1 0 0 1.00218 421 793)"/><path d="M194.728 55.912 217.864 55.912 217.864 79.048 194.728 79.048Z" stroke="#444444" stroke-width="0.482" fill="#2AB07F" transform="matrix(1 0 0 1.00218 421 793)"/><path d="M217.864 55.912 241 55.912 241 79.048 217.864 79.048Z" stroke="#444444" stroke-width="0.482" fill="#2D708E" transform="matrix(1 0 0 1.00218 421 793)"/><path d="M241 55.912 264.136 55.912 264.136 79.048 241 79.048Z" stroke="#444444" stroke-width="0.482" fill="#2D718E" transform="matrix(1 0 0 1.00218 421 793)"/><path d="M264.136 55.912 287.272 55.912 287.272 79.048 264.136 79.048Z" stroke="#444444" stroke-width="0.482" fill="#404688" transform="matrix(1 0 0 1.00218 421 793)"/><path d="M287.272 55.912 310.408 55.912 310.408 79.048 287.272 79.048Z" stroke="#444444" stroke-width="0.482" fill="#39568C" transform="matrix(1 0 0 1.00218 421 793)"/><path d="M310.408 55.912 333.544 55.912 333.544 79.048 310.408 79.048Z" stroke="#444444" stroke-width="0.482" fill="#D5E21A" transform="matrix(1 0 0 1.00218 421 793)"/><path d="M333.544 55.912 356.68 55.912 356.68 79.048 333.544 79.048Z" stroke="#444444" stroke-width="0.482" fill="#2EB37C" transform="matrix(1 0 0 1.00218 421 793)"/><path d="M356.68 55.912 379.816 55.912 379.816 79.048 356.68 79.048Z" stroke="#444444" stroke-width="0.482" fill="#24AA83" transform="matrix(1 0 0 1.00218 421 793)"/><path d="M379.816 55.912 402.952 55.912 402.952 79.048 379.816 79.048Z" stroke="#444444" stroke-width="0.482" fill="#443A83" transform="matrix(1 0 0 1.00218 421 793)"/><path d="M402.952 55.912 426.088 55.912 426.088 79.048 402.952 79.048Z" stroke="#444444" stroke-width="0.482" fill="#52C569" transform="matrix(1 0 0 1.00218 421 793)"/><path d="M426.088 55.912 449.224 55.912 449.224 79.048 426.088 79.048Z" stroke="#444444" stroke-width="0.482" fill="#453882" transform="matrix(1 0 0 1.00218 421 793)"/><path d="M449.224 55.912 472.36 55.912 472.36 79.048 449.224 79.048Z" stroke="#444444" stroke-width="0.482" fill="#2C738E" transform="matrix(1 0 0 1.00218 421 793)"/><path d="M9.64 79.048 32.776 79.048 32.776 102.184 9.64 102.184Z" stroke="#444444" stroke-width="0.482" fill="#F8E621" transform="matrix(1 0 0 1.00218 421 793)"/><path d="M32.776 79.048 55.912 79.048 55.912 102.184 32.776 102.184Z" stroke="#444444" stroke-width="0.482" fill="#2CB17E" transform="matrix(1 0 0 1.00218 421 793)"/><path d="M55.912 79.048 79.048 79.048 79.048 102.184 55.912 102.184Z" stroke="#444444" stroke-width="0.482" fill="#1F9E89" transform="matrix(1 0 0 1.00218 421 793)"/><path d="M79.048 79.048 102.184 79.048 102.184 102.184 79.048 102.184Z" stroke="#444444" stroke-width="0.482" fill="#3DBC74" transform="matrix(1 0 0 1.00218 421 793)"/><path d="M102.184 79.048 125.32 79.048 125.32 102.184 102.184 102.184Z" stroke="#444444" stroke-width="0.482" fill="#95D840" transform="matrix(1 0 0 1.00218 421 793)"/><path d="M125.32 79.048 148.456 79.048 148.456 102.184 125.32 102.184Z" stroke="#444444" stroke-width="0.482" fill="#6CCD5A" transform="matrix(1 0 0 1.00218 421 793)"/><path d="M148.456 79.048 171.592 79.048 171.592 102.184 148.456 102.184Z" stroke="#444444" stroke-width="0.482" fill="#3E4C8A" transform="matrix(1 0 0 1.00218 421 793)"/><path d="M171.592 79.048 194.728 79.048 194.728 102.184 171.592 102.184Z" stroke="#444444" stroke-width="0.482" fill="#470D60" transform="matrix(1 0 0 1.00218 421 793)"/><path d="M194.728 79.048 217.864 79.048 217.864 102.184 194.728 102.184Z" stroke="#444444" stroke-width="0.482" fill="#33638D" transform="matrix(1 0 0 1.00218 421 793)"/><path d="M217.864 79.048 241 79.048 241 102.184 217.864 102.184Z" stroke="#444444" stroke-width="0.482" fill="#39568C" transform="matrix(1 0 0 1.00218 421 793)"/><path d="M241 79.048 264.136 79.048 264.136 102.184 241 102.184Z" stroke="#444444" stroke-width="0.482" fill="#3F4788" transform="matrix(1 0 0 1.00218 421 793)"/><path d="M264.136 79.048 287.272 79.048 287.272 102.184 264.136 102.184Z" stroke="#444444" stroke-width="0.482" fill="#DAE319" transform="matrix(1 0 0 1.00218 421 793)"/><path d="M287.272 79.048 310.408 79.048 310.408 102.184 287.272 102.184Z" stroke="#444444" stroke-width="0.482" fill="#ADDC30" transform="matrix(1 0 0 1.00218 421 793)"/><path d="M310.408 79.048 333.544 79.048 333.544 102.184 310.408 102.184Z" stroke="#444444" stroke-width="0.482" fill="#33638D" transform="matrix(1 0 0 1.00218 421 793)"/><path d="M333.544 79.048 356.68 79.048 356.68 102.184 333.544 102.184Z" stroke="#444444" stroke-width="0.482" fill="#31B57B" transform="matrix(1 0 0 1.00218 421 793)"/><path d="M356.68 79.048 379.816 79.048 379.816 102.184 356.68 102.184Z" stroke="#444444" stroke-width="0.482" fill="#2A778E" transform="matrix(1 0 0 1.00218 421 793)"/><path d="M379.816 79.048 402.952 79.048 402.952 102.184 379.816 102.184Z" stroke="#444444" stroke-width="0.482" fill="#C8E020" transform="matrix(1 0 0 1.00218 421 793)"/><path d="M402.952 79.048 426.088 79.048 426.088 102.184 402.952 102.184Z" stroke="#444444" stroke-width="0.482" fill="#24868E" transform="matrix(1 0 0 1.00218 421 793)"/><path d="M426.088 79.048 449.224 79.048 449.224 102.184 426.088 102.184Z" stroke="#444444" stroke-width="0.482" fill="#39558C" transform="matrix(1 0 0 1.00218 421 793)"/><path d="M449.224 79.048 472.36 79.048 472.36 102.184 449.224 102.184Z" stroke="#444444" stroke-width="0.482" fill="#3B518B" transform="matrix(1 0 0 1.00218 421 793)"/><path d="M9.64 102.184 32.776 102.184 32.776 125.32 9.64 125.32Z" stroke="#444444" stroke-width="0.482" fill="#1F9F88" transform="matrix(1 0 0 1.00218 421 793)"/><path d="M32.776 102.184 55.912 102.184 55.912 125.32 32.776 125.32Z" stroke="#444444" stroke-width="0.482" fill="#39558C" transform="matrix(1 0 0 1.00218 421 793)"/><path d="M55.912 102.184 79.048 102.184 79.048 125.32 55.912 125.32Z" stroke="#444444" stroke-width="0.482" fill="#20A486" transform="matrix(1 0 0 1.00218 421 793)"/><path d="M79.048 102.184 102.184 102.184 102.184 125.32 79.048 125.32Z" stroke="#444444" stroke-width="0.482" fill="#BADE28" transform="matrix(1 0 0 1.00218 421 793)"/><path d="M102.184 102.184 125.32 102.184 125.32 125.32 102.184 125.32Z" stroke="#444444" stroke-width="0.482" fill="#2A788E" transform="matrix(1 0 0 1.00218 421 793)"/><path d="M125.32 102.184 148.456 102.184 148.456 125.32 125.32 125.32Z" stroke="#444444" stroke-width="0.482" fill="#3E4989" transform="matrix(1 0 0 1.00218 421 793)"/><path d="M148.456 102.184 171.592 102.184 171.592 125.32 148.456 125.32Z" stroke="#444444" stroke-width="0.482" fill="#FDE725" transform="matrix(1 0 0 1.00218 421 793)"/><path d="M171.592 102.184 194.728 102.184 194.728 125.32 171.592 125.32Z" stroke="#444444" stroke-width="0.482" fill="#20928C" transform="matrix(1 0 0 1.00218 421 793)"/><path d="M194.728 102.184 217.864 102.184 217.864 125.32 194.728 125.32Z" stroke="#444444" stroke-width="0.482" fill="#482173" transform="matrix(1 0 0 1.00218 421 793)"/><path d="M217.864 102.184 241 102.184 241 125.32 217.864 125.32Z" stroke="#444444" stroke-width="0.482" fill="#471365" transform="matrix(1 0 0 1.00218 421 793)"/><path d="M241 102.184 264.136 102.184 264.136 125.32 241 125.32Z" stroke="#444444" stroke-width="0.482" fill="#482878" transform="matrix(1 0 0 1.00218 421 793)"/><path d="M264.136 102.184 287.272 102.184 287.272 125.32 264.136 125.32Z" stroke="#444444" stroke-width="0.482" fill="#28AE80" transform="matrix(1 0 0 1.00218 421 793)"/><path d="M287.272 102.184 310.408 102.184 310.408 125.32 287.272 125.32Z" stroke="#444444" stroke-width="0.482" fill="#75D054" transform="matrix(1 0 0 1.00218 421 793)"/><path d="M310.408 102.184 333.544 102.184 333.544 125.32 310.408 125.32Z" stroke="#444444" stroke-width="0.482" fill="#277E8E" transform="matrix(1 0 0 1.00218 421 793)"/><path d="M333.544 102.184 356.68 102.184 356.68 125.32 333.544 125.32Z" stroke="#444444" stroke-width="0.482" fill="#48186A" transform="matrix(1 0 0 1.00218 421 793)"/><path d="M356.68 102.184 379.816 102.184 379.816 125.32 356.68 125.32Z" stroke="#444444" stroke-width="0.482" fill="#2C738E" transform="matrix(1 0 0 1.00218 421 793)"/><path d="M379.816 102.184 402.952 102.184 402.952 125.32 379.816 125.32Z" stroke="#444444" stroke-width="0.482" fill="#FDE725" transform="matrix(1 0 0 1.00218 421 793)"/><path d="M402.952 102.184 426.088 102.184 426.088 125.32 402.952 125.32Z" stroke="#444444" stroke-width="0.482" fill="#1F978B" transform="matrix(1 0 0 1.00218 421 793)"/><path d="M426.088 102.184 449.224 102.184 449.224 125.32 426.088 125.32Z" stroke="#444444" stroke-width="0.482" fill="#ECE51B" transform="matrix(1 0 0 1.00218 421 793)"/><path d="M449.224 102.184 472.36 102.184 472.36 125.32 449.224 125.32Z" stroke="#444444" stroke-width="0.482" fill="#A2DA37" transform="matrix(1 0 0 1.00218 421 793)"/><path d="M9.64 125.32 32.776 125.32 32.776 148.456 9.64 148.456Z" stroke="#444444" stroke-width="0.482" fill="#450457" transform="matrix(1 0 0 1.00218 421 793)"/><path d="M32.776 125.32 55.912 125.32 55.912 148.456 32.776 148.456Z" stroke="#444444" stroke-width="0.482" fill="#4EC36B" transform="matrix(1 0 0 1.00218 421 793)"/><path d="M55.912 125.32 79.048 125.32 79.048 148.456 55.912 148.456Z" stroke="#444444" stroke-width="0.482" fill="#3BBB75" transform="matrix(1 0 0 1.00218 421 793)"/><path d="M79.048 125.32 102.184 125.32 102.184 148.456 79.048 148.456Z" stroke="#444444" stroke-width="0.482" fill="#1F998A" transform="matrix(1 0 0 1.00218 421 793)"/><path d="M102.184 125.32 125.32 125.32 125.32 148.456 102.184 148.456Z" stroke="#444444" stroke-width="0.482" fill="#39568C" transform="matrix(1 0 0 1.00218 421 793)"/><path d="M125.32 125.32 148.456 125.32 148.456 148.456 125.32 148.456Z" stroke="#444444" stroke-width="0.482" fill="#2DB27D" transform="matrix(1 0 0 1.00218 421 793)"/><path d="M148.456 125.32 171.592 125.32 171.592 148.456 148.456 148.456Z" stroke="#444444" stroke-width="0.482" fill="#482878" transform="matrix(1 0 0 1.00218 421 793)"/><path d="M171.592 125.32 194.728 125.32 194.728 148.456 171.592 148.456Z" stroke="#444444" stroke-width="0.482" fill="#26818E" transform="matrix(1 0 0 1.00218 421 793)"/><path d="M194.728 125.32 217.864 125.32 217.864 148.456 194.728 148.456Z" stroke="#444444" stroke-width="0.482" fill="#25858E" transform="matrix(1 0 0 1.00218 421 793)"/><path d="M217.864 125.32 241 125.32 241 148.456 217.864 148.456Z" stroke="#444444" stroke-width="0.482" fill="#E2E418" transform="matrix(1 0 0 1.00218 421 793)"/><path d="M241 125.32 264.136 125.32 264.136 148.456 241 148.456Z" stroke="#444444" stroke-width="0.482" fill="#ADDC30" transform="matrix(1 0 0 1.00218 421 793)"/><path d="M264.136 125.32 287.272 125.32 287.272 148.456 264.136 148.456Z" stroke="#444444" stroke-width="0.482" fill="#39558C" transform="matrix(1 0 0 1.00218 421 793)"/><path d="M287.272 125.32 310.408 125.32 310.408 148.456 287.272 148.456Z" stroke="#444444" stroke-width="0.482" fill="#21918C" transform="matrix(1 0 0 1.00218 421 793)"/><path d="M310.408 125.32 333.544 125.32 333.544 148.456 310.408 148.456Z" stroke="#444444" stroke-width="0.482" fill="#433D84" transform="matrix(1 0 0 1.00218 421 793)"/><path d="M333.544 125.32 356.68 125.32 356.68 148.456 333.544 148.456Z" stroke="#444444" stroke-width="0.482" fill="#C5E021" transform="matrix(1 0 0 1.00218 421 793)"/><path d="M356.68 125.32 379.816 125.32 379.816 148.456 356.68 148.456Z" stroke="#444444" stroke-width="0.482" fill="#A8DB34" transform="matrix(1 0 0 1.00218 421 793)"/><path d="M379.816 125.32 402.952 125.32 402.952 148.456 379.816 148.456Z" stroke="#444444" stroke-width="0.482" fill="#355F8D" transform="matrix(1 0 0 1.00218 421 793)"/><path d="M402.952 125.32 426.088 125.32 426.088 148.456 402.952 148.456Z" stroke="#444444" stroke-width="0.482" fill="#2CB17E" transform="matrix(1 0 0 1.00218 421 793)"/><path d="M426.088 125.32 449.224 125.32 449.224 148.456 426.088 148.456Z" stroke="#444444" stroke-width="0.482" fill="#24AA83" transform="matrix(1 0 0 1.00218 421 793)"/><path d="M449.224 125.32 472.36 125.32 472.36 148.456 449.224 148.456Z" stroke="#444444" stroke-width="0.482" fill="#453581" transform="matrix(1 0 0 1.00218 421 793)"/><path d="M9.64 148.456 32.776 148.456 32.776 171.592 9.64 171.592Z" stroke="#444444" stroke-width="0.482" fill="#65CB5E" transform="matrix(1 0 0 1.00218 421 793)"/><path d="M32.776 148.456 55.912 148.456 55.912 171.592 32.776 171.592Z" stroke="#444444" stroke-width="0.482" fill="#1F9A8A" transform="matrix(1 0 0 1.00218 421 793)"/><path d="M55.912 148.456 79.048 148.456 79.048 171.592 55.912 171.592Z" stroke="#444444" stroke-width="0.482" fill="#6ECE58" transform="matrix(1 0 0 1.00218 421 793)"/><path d="M79.048 148.456 102.184 148.456 102.184 171.592 79.048 171.592Z" stroke="#444444" stroke-width="0.482" fill="#1F978B" transform="matrix(1 0 0 1.00218 421 793)"/><path d="M102.184 148.456 125.32 148.456 125.32 171.592 102.184 171.592Z" stroke="#444444" stroke-width="0.482" fill="#440154" transform="matrix(1 0 0 1.00218 421 793)"/><path d="M125.32 148.456 148.456 148.456 148.456 171.592 125.32 171.592Z" stroke="#444444" stroke-width="0.482" fill="#32658E" transform="matrix(1 0 0 1.00218 421 793)"/><path d="M148.456 148.456 171.592 148.456 171.592 171.592 148.456 171.592Z" stroke="#444444" stroke-width="0.482" fill="#46075A" transform="matrix(1 0 0 1.00218 421 793)"/><path d="M171.592 148.456 194.728 148.456 194.728 171.592 171.592 171.592Z" stroke="#444444" stroke-width="0.482" fill="#D0E11C" transform="matrix(1 0 0 1.00218 421 793)"/><path d="M194.728 148.456 217.864 148.456 217.864 171.592 194.728 171.592Z" stroke="#444444" stroke-width="0.482" fill="#ADDC30" transform="matrix(1 0 0 1.00218 421 793)"/><path d="M217.864 148.456 241 148.456 241 171.592 217.864 171.592Z" stroke="#444444" stroke-width="0.482" fill="#8ED645" transform="matrix(1 0 0 1.00218 421 793)"/><path d="M241 148.456 264.136 148.456 264.136 171.592 241 171.592Z" stroke="#444444" stroke-width="0.482" fill="#34618D" transform="matrix(1 0 0 1.00218 421 793)"/><path d="M264.136 148.456 287.272 148.456 287.272 171.592 264.136 171.592Z" stroke="#444444" stroke-width="0.482" fill="#481668" transform="matrix(1 0 0 1.00218 421 793)"/><path d="M287.272 148.456 310.408 148.456 310.408 171.592 287.272 171.592Z" stroke="#444444" stroke-width="0.482" fill="#ADDC30" transform="matrix(1 0 0 1.00218 421 793)"/><path d="M310.408 148.456 333.544 148.456 333.544 171.592 310.408 171.592Z" stroke="#444444" stroke-width="0.482" fill="#DDE318" transform="matrix(1 0 0 1.00218 421 793)"/><path d="M333.544 148.456 356.68 148.456 356.68 171.592 333.544 171.592Z" stroke="#444444" stroke-width="0.482" fill="#481F70" transform="matrix(1 0 0 1.00218 421 793)"/><path d="M356.68 148.456 379.816 148.456 379.816 171.592 356.68 171.592Z" stroke="#444444" stroke-width="0.482" fill="#228D8D" transform="matrix(1 0 0 1.00218 421 793)"/><path d="M379.816 148.456 402.952 148.456 402.952 171.592 379.816 171.592Z" stroke="#444444" stroke-width="0.482" fill="#481A6C" transform="matrix(1 0 0 1.00218 421 793)"/><path d="M402.952 148.456 426.088 148.456 426.088 171.592 402.952 171.592Z" stroke="#444444" stroke-width="0.482" fill="#63CB5F" transform="matrix(1 0 0 1.00218 421 793)"/><path d="M426.088 148.456 449.224 148.456 449.224 171.592 426.088 171.592Z" stroke="#444444" stroke-width="0.482" fill="#67CC5C" transform="matrix(1 0 0 1.00218 421 793)"/><path d="M449.224 148.456 472.36 148.456 472.36 171.592 449.224 171.592Z" stroke="#444444" stroke-width="0.482" fill="#472D7B" transform="matrix(1 0 0 1.00218 421 793)"/><path d="M9.64 171.592 32.776 171.592 32.776 194.728 9.64 194.728Z" stroke="#444444" stroke-width="0.482" fill="#238A8D" transform="matrix(1 0 0 1.00218 421 793)"/><path d="M32.776 171.592 55.912 171.592 55.912 194.728 32.776 194.728Z" stroke="#444444" stroke-width="0.482" fill="#1E9C89" transform="matrix(1 0 0 1.00218 421 793)"/><path d="M55.912 171.592 79.048 171.592 79.048 194.728 55.912 194.728Z" stroke="#444444" stroke-width="0.482" fill="#39558C" transform="matrix(1 0 0 1.00218 421 793)"/><path d="M79.048 171.592 102.184 171.592 102.184 194.728 79.048 194.728Z" stroke="#444444" stroke-width="0.482" fill="#AADC32" transform="matrix(1 0 0 1.00218 421 793)"/><path d="M102.184 171.592 125.32 171.592 125.32 194.728 102.184 194.728Z" stroke="#444444" stroke-width="0.482" fill="#277E8E" transform="matrix(1 0 0 1.00218 421 793)"/><path d="M125.32 171.592 148.456 171.592 148.456 194.728 125.32 194.728Z" stroke="#444444" stroke-width="0.482" fill="#3F4788" transform="matrix(1 0 0 1.00218 421 793)"/><path d="M148.456 171.592 171.592 171.592 171.592 194.728 148.456 194.728Z" stroke="#444444" stroke-width="0.482" fill="#1F9A8A" transform="matrix(1 0 0 1.00218 421 793)"/><path d="M171.592 171.592 194.728 171.592 194.728 194.728 171.592 194.728Z" stroke="#444444" stroke-width="0.482" fill="#52C569" transform="matrix(1 0 0 1.00218 421 793)"/><path d="M194.728 171.592 217.864 171.592 217.864 194.728 194.728 194.728Z" stroke="#444444" stroke-width="0.482" fill="#414487" transform="matrix(1 0 0 1.00218 421 793)"/><path d="M217.864 171.592 241 171.592 241 194.728 217.864 194.728Z" stroke="#444444" stroke-width="0.482" fill="#33628D" transform="matrix(1 0 0 1.00218 421 793)"/><path d="M241 171.592 264.136 171.592 264.136 194.728 241 194.728Z" stroke="#444444" stroke-width="0.482" fill="#FBE723" transform="matrix(1 0 0 1.00218 421 793)"/><path d="M264.136 171.592 287.272 171.592 287.272 194.728 264.136 194.728Z" stroke="#444444" stroke-width="0.482" fill="#2FB47C" transform="matrix(1 0 0 1.00218 421 793)"/><path d="M287.272 171.592 310.408 171.592 310.408 194.728 287.272 194.728Z" stroke="#444444" stroke-width="0.482" fill="#26828E" transform="matrix(1 0 0 1.00218 421 793)"/><path d="M310.408 171.592 333.544 171.592 333.544 194.728 310.408 194.728Z" stroke="#444444" stroke-width="0.482" fill="#1F948C" transform="matrix(1 0 0 1.00218 421 793)"/><path d="M333.544 171.592 356.68 171.592 356.68 194.728 333.544 194.728Z" stroke="#444444" stroke-width="0.482" fill="#472A7A" transform="matrix(1 0 0 1.00218 421 793)"/><path d="M356.68 171.592 379.816 171.592 379.816 194.728 356.68 194.728Z" stroke="#444444" stroke-width="0.482" fill="#3E4A89" transform="matrix(1 0 0 1.00218 421 793)"/><path d="M379.816 171.592 402.952 171.592 402.952 194.728 379.816 194.728Z" stroke="#444444" stroke-width="0.482" fill="#30698E" transform="matrix(1 0 0 1.00218 421 793)"/><path d="M402.952 171.592 426.088 171.592 426.088 194.728 402.952 194.728Z" stroke="#444444" stroke-width="0.482" fill="#21A585" transform="matrix(1 0 0 1.00218 421 793)"/><path d="M426.088 171.592 449.224 171.592 449.224 194.728 426.088 194.728Z" stroke="#444444" stroke-width="0.482" fill="#3E4C8A" transform="matrix(1 0 0 1.00218 421 793)"/><path d="M449.224 171.592 472.36 171.592 472.36 194.728 449.224 194.728Z" stroke="#444444" stroke-width="0.482" fill="#3E4989" transform="matrix(1 0 0 1.00218 421 793)"/><path d="M9.64 194.728 32.776 194.728 32.776 217.864 9.64 217.864Z" stroke="#444444" stroke-width="0.482" fill="#481B6D" transform="matrix(1 0 0 1.00218 421 793)"/><path d="M32.776 194.728 55.912 194.728 55.912 217.864 32.776 217.864Z" stroke="#444444" stroke-width="0.482" fill="#29AF7F" transform="matrix(1 0 0 1.00218 421 793)"/><path d="M55.912 194.728 79.048 194.728 79.048 217.864 55.912 217.864Z" stroke="#444444" stroke-width="0.482" fill="#3E4C8A" transform="matrix(1 0 0 1.00218 421 793)"/><path d="M79.048 194.728 102.184 194.728 102.184 217.864 79.048 217.864Z" stroke="#444444" stroke-width="0.482" fill="#C0DF25" transform="matrix(1 0 0 1.00218 421 793)"/><path d="M102.184 194.728 125.32 194.728 125.32 217.864 102.184 217.864Z" stroke="#444444" stroke-width="0.482" fill="#A2DA37" transform="matrix(1 0 0 1.00218 421 793)"/><path d="M125.32 194.728 148.456 194.728 148.456 217.864 125.32 217.864Z" stroke="#444444" stroke-width="0.482" fill="#481B6D" transform="matrix(1 0 0 1.00218 421 793)"/><path d="M148.456 194.728 171.592 194.728 171.592 217.864 148.456 217.864Z" stroke="#444444" stroke-width="0.482" fill="#3D4E8A" transform="matrix(1 0 0 1.00218 421 793)"/><path d="M171.592 194.728 194.728 194.728 194.728 217.864 171.592 217.864Z" stroke="#444444" stroke-width="0.482" fill="#37B878" transform="matrix(1 0 0 1.00218 421 793)"/><path d="M194.728 194.728 217.864 194.728 217.864 217.864 194.728 217.864Z" stroke="#444444" stroke-width="0.482" fill="#3F4788" transform="matrix(1 0 0 1.00218 421 793)"/><path d="M217.864 194.728 241 194.728 241 217.864 217.864 217.864Z" stroke="#444444" stroke-width="0.482" fill="#472E7C" transform="matrix(1 0 0 1.00218 421 793)"/><path d="M241 194.728 264.136 194.728 264.136 217.864 241 217.864Z" stroke="#444444" stroke-width="0.482" fill="#D5E21A" transform="matrix(1 0 0 1.00218 421 793)"/><path d="M264.136 194.728 287.272 194.728 287.272 217.864 264.136 217.864Z" stroke="#444444" stroke-width="0.482" fill="#1FA187" transform="matrix(1 0 0 1.00218 421 793)"/><path d="M287.272 194.728 310.408 194.728 310.408 217.864 287.272 217.864Z" stroke="#444444" stroke-width="0.482" fill="#238A8D" transform="matrix(1 0 0 1.00218 421 793)"/><path d="M310.408 194.728 333.544 194.728 333.544 217.864 310.408 217.864Z" stroke="#444444" stroke-width="0.482" fill="#70CF57" transform="matrix(1 0 0 1.00218 421 793)"/><path d="M333.544 194.728 356.68 194.728 356.68 217.864 333.544 217.864Z" stroke="#444444" stroke-width="0.482" fill="#7FD34E" transform="matrix(1 0 0 1.00218 421 793)"/><path d="M356.68 194.728 379.816 194.728 379.816 217.864 356.68 217.864Z" stroke="#444444" stroke-width="0.482" fill="#424086" transform="matrix(1 0 0 1.00218 421 793)"/><path d="M379.816 194.728 402.952 194.728 402.952 217.864 379.816 217.864Z" stroke="#444444" stroke-width="0.482" fill="#482374" transform="matrix(1 0 0 1.00218 421 793)"/><path d="M402.952 194.728 426.088 194.728 426.088 217.864 402.952 217.864Z" stroke="#444444" stroke-width="0.482" fill="#27808E" transform="matrix(1 0 0 1.00218 421 793)"/><path d="M426.088 194.728 449.224 194.728 449.224 217.864 426.088 217.864Z" stroke="#444444" stroke-width="0.482" fill="#277E8E" transform="matrix(1 0 0 1.00218 421 793)"/><path d="M449.224 194.728 472.36 194.728 472.36 217.864 449.224 217.864Z" stroke="#444444" stroke-width="0.482" fill="#23888E" transform="matrix(1 0 0 1.00218 421 793)"/></g></g></g><path d="M0 0 52.0208 0.6875" stroke="#000000" stroke-width="3.4375" stroke-linejoin="round" stroke-miterlimit="10" fill="none" fill-rule="evenodd" transform="matrix(-1 0 0 1 947.521 905.5)"/><g clip-path="url(#clip4)"><g clip-path="url(#clip5)"><g clip-path="url(#clip6)"><path d="M0 0 42.1566 0 42.1566 226.112 0 226.112Z" fill="#FFFFFF" transform="matrix(1.00267 0 0 1 1651.88 723.586)"/><path d="M9.58104 9.58104 32.5755 9.58104 32.5755 32.5755 9.58104 32.5755Z" stroke="#444444" stroke-width="0.479052" fill="#DEF2D9" transform="matrix(1.00267 0 0 1 1651.88 723.586)"/><path d="M9.58104 32.5755 32.5755 32.5755 32.5755 55.57 9.58104 55.57Z" stroke="#444444" stroke-width="0.479052" fill="#91D28E" transform="matrix(1.00267 0 0 1 1651.88 723.586)"/><path d="M9.58104 55.57 32.5755 55.57 32.5755 78.5645 9.58104 78.5645Z" stroke="#444444" stroke-width="0.479052" fill="#EBF7E7" transform="matrix(1.00267 0 0 1 1651.88 723.586)"/><path d="M9.58104 78.5645 32.5755 78.5645 32.5755 101.559 9.58104 101.559Z" stroke="#444444" stroke-width="0.479052" fill="#DDF2D8" transform="matrix(1.00267 0 0 1 1651.88 723.586)"/><path d="M9.58104 101.559 32.5755 101.559 32.5755 124.553 9.58104 124.553Z" stroke="#444444" stroke-width="0.479052" fill="#53B466" transform="matrix(1.00267 0 0 1 1651.88 723.586)"/><path d="M9.58104 124.553 32.5755 124.553 32.5755 147.548 9.58104 147.548Z" stroke="#444444" stroke-width="0.479052" fill="#A5DB9F" transform="matrix(1.00267 0 0 1 1651.88 723.586)"/><path d="M9.58104 147.548 32.5755 147.548 32.5755 170.542 9.58104 170.542Z" stroke="#444444" stroke-width="0.479052" fill="#94D390" transform="matrix(1.00267 0 0 1 1651.88 723.586)"/><path d="M9.58104 170.542 32.5755 170.542 32.5755 193.537 9.58104 193.537Z" stroke="#444444" stroke-width="0.479052" fill="#DBF1D6" transform="matrix(1.00267 0 0 1 1651.88 723.586)"/><path d="M9.58104 193.537 32.5755 193.537 32.5755 216.531 9.58104 216.531Z" stroke="#444444" stroke-width="0.479052" fill="#0E7936" transform="matrix(1.00267 0 0 1 1651.88 723.586)"/></g></g></g><path d="M1674.22 944.5 1674.22 999.027 1670.78 999.027 1670.78 944.5ZM1686.25 994.443 1672.5 1021.94 1658.75 994.443Z"/><path d="M1675.22 571.5 1675.22 626.027 1671.78 626.027 1671.78 571.5ZM1687.25 621.443 1673.5 648.943 1659.75 621.443Z"/><g clip-path="url(#clip7)"><g clip-path="url(#clip8)"><g clip-path="url(#clip9)"><path d="M0 0 40.6261 0 40.6261 217.904 0 217.904Z" fill="#FFFFFF" transform="matrix(1 0 0 1.04462 1651.88 351.214)"/><path d="M9.23321 9.23321 31.3929 9.23321 31.3929 31.3929 9.23321 31.3929Z" stroke="#444444" stroke-width="0.461661" fill="#F1EFF6" transform="matrix(1 0 0 1.04462 1651.88 351.214)"/><path d="M9.23321 31.3929 31.3929 31.3929 31.3929 53.5526 9.23321 53.5526Z" stroke="#444444" stroke-width="0.461661" fill="#51218C" transform="matrix(1 0 0 1.04462 1651.88 351.214)"/><path d="M9.23321 53.5526 31.3929 53.5526 31.3929 75.7123 9.23321 75.7123Z" stroke="#444444" stroke-width="0.461661" fill="#DBDBEC" transform="matrix(1 0 0 1.04462 1651.88 351.214)"/><path d="M9.23321 75.7123 31.3929 75.7123 31.3929 97.872 9.23321 97.872Z" stroke="#444444" stroke-width="0.461661" fill="#4D1A89" transform="matrix(1 0 0 1.04462 1651.88 351.214)"/><path d="M9.23321 97.872 31.3929 97.872 31.3929 120.032 9.23321 120.032Z" stroke="#444444" stroke-width="0.461661" fill="#53268F" transform="matrix(1 0 0 1.04462 1651.88 351.214)"/><path d="M9.23321 120.032 31.3929 120.032 31.3929 142.191 9.23321 142.191Z" stroke="#444444" stroke-width="0.461661" fill="#CECFE5" transform="matrix(1 0 0 1.04462 1651.88 351.214)"/><path d="M9.23321 142.191 31.3929 142.191 31.3929 164.351 9.23321 164.351Z" stroke="#444444" stroke-width="0.461661" fill="#9B97C6" transform="matrix(1 0 0 1.04462 1651.88 351.214)"/><path d="M9.23321 164.351 31.3929 164.351 31.3929 186.511 9.23321 186.511Z" stroke="#444444" stroke-width="0.461661" fill="#B2B2D5" transform="matrix(1 0 0 1.04462 1651.88 351.214)"/><path d="M9.23321 186.511 31.3929 186.511 31.3929 208.671 9.23321 208.671Z" stroke="#444444" stroke-width="0.461661" fill="#B0AFD4" transform="matrix(1 0 0 1.04462 1651.88 351.214)"/></g></g></g><path d="M1136.22 565.5 1136.22 620.026 1132.78 620.026 1132.78 565.5ZM1148.25 615.443 1134.5 642.943 1120.75 615.443Z"/><path d="M1138.22 936.5 1138.22 991.026 1134.78 991.026 1134.78 936.5ZM1150.25 986.443 1136.5 1013.94 1122.75 986.443Z"/><g clip-path="url(#clip10)"><g clip-path="url(#clip11)"><g clip-path="url(#clip12)"><path d="M0 0 475.639 0 475.639 41.8562 0 41.8562Z" fill="#FFFFFF" transform="matrix(1 0 0 1.00899 950.304 900.222)"/><path d="M9.51278 9.51278 32.3434 9.51278 32.3434 32.3434 9.51278 32.3434Z" stroke="#444444" stroke-width="0.475639" fill="#DE5005" transform="matrix(1 0 0 1.00899 950.304 900.222)"/><path d="M32.3434 9.51278 55.1741 9.51278 55.1741 32.3434 32.3434 32.3434Z" stroke="#444444" stroke-width="0.475639" fill="#F16913" transform="matrix(1 0 0 1.00899 950.304 900.222)"/><path d="M55.1741 9.51278 78.0048 9.51278 78.0048 32.3434 55.1741 32.3434Z" stroke="#444444" stroke-width="0.475639" fill="#FDA159" transform="matrix(1 0 0 1.00899 950.304 900.222)"/><path d="M78.0048 9.51278 100.835 9.51278 100.835 32.3434 78.0048 32.3434Z" stroke="#444444" stroke-width="0.475639" fill="#FDD1A3" transform="matrix(1 0 0 1.00899 950.304 900.222)"/><path d="M100.835 9.51278 123.666 9.51278 123.666 32.3434 100.835 32.3434Z" stroke="#444444" stroke-width="0.475639" fill="#FFFFFF" transform="matrix(1 0 0 1.00899 950.304 900.222)"/><path d="M123.666 9.51278 146.497 9.51278 146.497 32.3434 123.666 32.3434Z" stroke="#444444" stroke-width="0.475639" fill="#A03403" transform="matrix(1 0 0 1.00899 950.304 900.222)"/><path d="M146.497 9.51278 169.327 9.51278 169.327 32.3434 146.497 32.3434Z" stroke="#444444" stroke-width="0.475639" fill="#FD9D53" transform="matrix(1 0 0 1.00899 950.304 900.222)"/><path d="M169.327 9.51278 192.158 9.51278 192.158 32.3434 169.327 32.3434Z" stroke="#444444" stroke-width="0.475639" fill="#C64102" transform="matrix(1 0 0 1.00899 950.304 900.222)"/><path d="M192.158 9.51278 214.989 9.51278 214.989 32.3434 192.158 32.3434Z" stroke="#444444" stroke-width="0.475639" fill="#FEE8D2" transform="matrix(1 0 0 1.00899 950.304 900.222)"/><path d="M214.989 9.51278 237.819 9.51278 237.819 32.3434 214.989 32.3434Z" stroke="#444444" stroke-width="0.475639" fill="#FB8735" transform="matrix(1 0 0 1.00899 950.304 900.222)"/><path d="M237.819 9.51278 260.65 9.51278 260.65 32.3434 237.819 32.3434Z" stroke="#444444" stroke-width="0.475639" fill="#FDD1A3" transform="matrix(1 0 0 1.00899 950.304 900.222)"/><path d="M260.65 9.51278 283.481 9.51278 283.481 32.3434 260.65 32.3434Z" stroke="#444444" stroke-width="0.475639" fill="#FFFFFF" transform="matrix(1 0 0 1.00899 950.304 900.222)"/><path d="M283.481 9.51278 306.311 9.51278 306.311 32.3434 283.481 32.3434Z" stroke="#444444" stroke-width="0.475639" fill="#F4721E" transform="matrix(1 0 0 1.00899 950.304 900.222)"/><path d="M306.311 9.51278 329.142 9.51278 329.142 32.3434 306.311 32.3434Z" stroke="#444444" stroke-width="0.475639" fill="#C54102" transform="matrix(1 0 0 1.00899 950.304 900.222)"/><path d="M329.142 9.51278 351.973 9.51278 351.973 32.3434 329.142 32.3434Z" stroke="#444444" stroke-width="0.475639" fill="#FB8836" transform="matrix(1 0 0 1.00899 950.304 900.222)"/><path d="M351.973 9.51278 374.803 9.51278 374.803 32.3434 351.973 32.3434Z" stroke="#444444" stroke-width="0.475639" fill="#C03F02" transform="matrix(1 0 0 1.00899 950.304 900.222)"/><path d="M374.803 9.51278 397.634 9.51278 397.634 32.3434 374.803 32.3434Z" stroke="#444444" stroke-width="0.475639" fill="#FDB475" transform="matrix(1 0 0 1.00899 950.304 900.222)"/><path d="M397.634 9.51278 420.465 9.51278 420.465 32.3434 397.634 32.3434Z" stroke="#444444" stroke-width="0.475639" fill="#FDDBB8" transform="matrix(1 0 0 1.00899 950.304 900.222)"/><path d="M420.465 9.51278 443.296 9.51278 443.296 32.3434 420.465 32.3434Z" stroke="#444444" stroke-width="0.475639" fill="#FFFFFF" transform="matrix(1 0 0 1.00899 950.304 900.222)"/><path d="M443.296 9.51278 466.126 9.51278 466.126 32.3434 443.296 32.3434Z" stroke="#444444" stroke-width="0.475639" fill="#E65A0B" transform="matrix(1 0 0 1.00899 950.304 900.222)"/></g></g></g><g clip-path="url(#clip13)"><g clip-path="url(#clip14)"><g clip-path="url(#clip15)"><path d="M0 0 461.818 0 461.818 40.64 0 40.64Z" fill="#FFFFFF" transform="matrix(1.03969 0 0 -1 944.882 571.779)"/><path d="M9.23636 9.23636 31.4036 9.23636 31.4036 31.4036 9.23636 31.4036Z" stroke="#444444" stroke-width="0.461818" fill="#549FCD" transform="matrix(1.03969 0 0 -1 944.882 571.779)"/><path d="M31.4036 9.23636 53.5709 9.23636 53.5709 31.4036 31.4036 31.4036Z" stroke="#444444" stroke-width="0.461818" fill="#C7DCEF" transform="matrix(1.03969 0 0 -1 944.882 571.779)"/><path d="M53.5709 9.23636 75.7382 9.23636 75.7382 31.4036 53.5709 31.4036Z" stroke="#444444" stroke-width="0.461818" fill="#FFFFFF" transform="matrix(1.03969 0 0 -1 944.882 571.779)"/><path d="M75.7382 9.23636 97.9054 9.23636 97.9054 31.4036 75.7382 31.4036Z" stroke="#444444" stroke-width="0.461818" fill="#0B559F" transform="matrix(1.03969 0 0 -1 944.882 571.779)"/><path d="M97.9054 9.23636 120.073 9.23636 120.073 31.4036 97.9054 31.4036Z" stroke="#444444" stroke-width="0.461818" fill="#77B5D9" transform="matrix(1.03969 0 0 -1 944.882 571.779)"/><path d="M120.073 9.23636 142.24 9.23636 142.24 31.4036 120.073 31.4036Z" stroke="#444444" stroke-width="0.461818" fill="#3E8EC4" transform="matrix(1.03969 0 0 -1 944.882 571.779)"/><path d="M142.24 9.23636 164.407 9.23636 164.407 31.4036 142.24 31.4036Z" stroke="#444444" stroke-width="0.461818" fill="#C3DAEE" transform="matrix(1.03969 0 0 -1 944.882 571.779)"/><path d="M164.407 9.23636 186.575 9.23636 186.575 31.4036 164.407 31.4036Z" stroke="#444444" stroke-width="0.461818" fill="#C1D9ED" transform="matrix(1.03969 0 0 -1 944.882 571.779)"/><path d="M186.575 9.23636 208.742 9.23636 208.742 31.4036 186.575 31.4036Z" stroke="#444444" stroke-width="0.461818" fill="#FFFFFF" transform="matrix(1.03969 0 0 -1 944.882 571.779)"/><path d="M208.742 9.23636 230.909 9.23636 230.909 31.4036 208.742 31.4036Z" stroke="#444444" stroke-width="0.461818" fill="#3888C1" transform="matrix(1.03969 0 0 -1 944.882 571.779)"/><path d="M230.909 9.23636 253.076 9.23636 253.076 31.4036 230.909 31.4036Z" stroke="#444444" stroke-width="0.461818" fill="#C3DAEE" transform="matrix(1.03969 0 0 -1 944.882 571.779)"/><path d="M253.076 9.23636 275.244 9.23636 275.244 31.4036 253.076 31.4036Z" stroke="#444444" stroke-width="0.461818" fill="#084B93" transform="matrix(1.03969 0 0 -1 944.882 571.779)"/><path d="M275.244 9.23636 297.411 9.23636 297.411 31.4036 275.244 31.4036Z" stroke="#444444" stroke-width="0.461818" fill="#DCE9F6" transform="matrix(1.03969 0 0 -1 944.882 571.779)"/><path d="M297.411 9.23636 319.578 9.23636 319.578 31.4036 297.411 31.4036Z" stroke="#444444" stroke-width="0.461818" fill="#C7DCEF" transform="matrix(1.03969 0 0 -1 944.882 571.779)"/><path d="M319.578 9.23636 341.745 9.23636 341.745 31.4036 319.578 31.4036Z" stroke="#444444" stroke-width="0.461818" fill="#D9E7F5" transform="matrix(1.03969 0 0 -1 944.882 571.779)"/><path d="M341.745 9.23636 363.913 9.23636 363.913 31.4036 341.745 31.4036Z" stroke="#444444" stroke-width="0.461818" fill="#FFFFFF" transform="matrix(1.03969 0 0 -1 944.882 571.779)"/><path d="M363.913 9.23636 386.08 9.23636 386.08 31.4036 363.913 31.4036Z" stroke="#444444" stroke-width="0.461818" fill="#99C7E0" transform="matrix(1.03969 0 0 -1 944.882 571.779)"/><path d="M386.08 9.23636 408.247 9.23636 408.247 31.4036 386.08 31.4036Z" stroke="#444444" stroke-width="0.461818" fill="#75B4D8" transform="matrix(1.03969 0 0 -1 944.882 571.779)"/><path d="M408.247 9.23636 430.414 9.23636 430.414 31.4036 408.247 31.4036Z" stroke="#444444" stroke-width="0.461818" fill="#A5CDE3" transform="matrix(1.03969 0 0 -1 944.882 571.779)"/><path d="M430.414 9.23636 452.582 9.23636 452.582 31.4036 430.414 31.4036Z" stroke="#444444" stroke-width="0.461818" fill="#4594C7" transform="matrix(1.03969 0 0 -1 944.882 571.779)"/></g></g></g><path d="M0 0 0.378576 338.742" stroke="#000000" stroke-width="3.4375" stroke-linejoin="round" stroke-miterlimit="10" fill="none" fill-rule="evenodd" transform="matrix(-1 0 0 1 2058.88 537.5)"/><path d="M1121.73 506.323 1129.52 506.323 1129.52 507.354C1129.03 507.448 1128.67 507.588 1128.45 507.776 1128.22 507.963 1128.1 508.245 1128.1 508.62 1128.1 509.12 1128.24 509.771 1128.51 510.573L1130.76 517.401 1133.24 511.417C1133.45 510.917 1133.61 510.476 1133.71 510.096 1133.82 509.716 1133.87 509.344 1133.87 508.979 1133.87 508.542 1133.74 508.18 1133.49 507.893 1133.24 507.607 1132.89 507.427 1132.43 507.354L1132.43 506.323 1138.51 506.323 1138.51 507.37C1138.16 507.484 1137.88 507.635 1137.66 507.823 1137.43 508.01 1137.18 508.336 1136.91 508.799 1136.63 509.263 1136.24 510.057 1135.74 511.182L1130.87 521.979 1127.91 521.979 1123.79 510.088C1123.51 509.265 1123.28 508.7 1123.1 508.393 1122.92 508.086 1122.73 507.851 1122.52 507.69 1122.3 507.528 1122.04 507.417 1121.73 507.354Z" fill-rule="evenodd"/><text fill="#000000" fill-opacity="0" font-family="Arial,Arial_MSFontService,sans-serif" font-size="15.6562" x="1121.73" y="520.022">𝐯</text><path d="M1144.77 512.868 1146.2 512.868C1146.16 513.586 1146.14 514.582 1146.14 515.855L1146.14 525.244C1146.14 525.678 1146.16 526.005 1146.21 526.226 1146.26 526.447 1146.34 526.627 1146.47 526.765 1146.59 526.904 1146.77 527.012 1147 527.091 1147.23 527.17 1147.53 527.23 1147.88 527.271 1148.23 527.312 1148.69 527.34 1149.27 527.355L1149.27 528.377 1139.58 528.377 1139.58 527.355C1140.41 527.318 1141 527.267 1141.36 527.203 1141.71 527.14 1141.99 527.044 1142.17 526.917 1142.36 526.79 1142.5 526.61 1142.58 526.378 1142.67 526.146 1142.71 525.768 1142.71 525.244L1142.71 517.124C1142.71 516.817 1142.65 516.596 1142.54 516.461 1142.42 516.327 1142.26 516.259 1142.06 516.259 1141.87 516.259 1141.61 516.345 1141.27 516.518 1140.93 516.69 1140.37 517.042 1139.59 517.573L1138.9 516.383Z" fill-rule="evenodd"/><text fill="#000000" fill-opacity="0" font-family="Arial,Arial_MSFontService,sans-serif" font-size="15.5093" x="1138.9" y="526.438">𝟏</text><path d="M1122.41 863.752 1130.21 863.752 1130.21 864.784C1129.72 864.877 1129.36 865.018 1129.13 865.206 1128.9 865.393 1128.79 865.674 1128.79 866.049 1128.79 866.549 1128.92 867.2 1129.2 868.002L1131.45 874.831 1133.93 868.846C1134.14 868.346 1134.29 867.906 1134.4 867.526 1134.5 867.146 1134.55 866.773 1134.55 866.409 1134.55 865.971 1134.43 865.609 1134.18 865.323 1133.93 865.036 1133.58 864.857 1133.12 864.784L1133.12 863.752 1139.2 863.752 1139.2 864.799C1138.85 864.914 1138.57 865.065 1138.34 865.252 1138.12 865.44 1137.87 865.765 1137.59 866.229 1137.32 866.693 1136.93 867.487 1136.43 868.612L1131.55 879.409 1128.6 879.409 1124.48 867.518C1124.2 866.695 1123.97 866.13 1123.79 865.823 1123.61 865.515 1123.42 865.281 1123.2 865.12 1122.99 864.958 1122.73 864.846 1122.41 864.784Z" fill-rule="evenodd"/><text fill="#000000" fill-opacity="0" font-family="Arial,Arial_MSFontService,sans-serif" font-size="15.6562" x="1122.41" y="877.452">𝐯</text><path d="M1144.58 870.297C1145.68 870.297 1146.58 870.445 1147.27 870.741 1147.97 871.037 1148.47 871.437 1148.78 871.943 1149.1 872.448 1149.25 873.037 1149.25 873.711 1149.25 874.303 1149.14 874.853 1148.92 875.362 1148.7 875.871 1148.32 876.452 1147.77 877.103 1147.23 877.754 1146.32 878.686 1145.03 879.899 1144.63 880.274 1144.16 880.766 1143.61 881.376 1143.06 881.986 1142.62 882.508 1142.3 882.943L1142.3 883.055 1146.29 883.055C1146.77 883.055 1147.14 883.019 1147.38 882.948 1147.61 882.877 1147.8 882.754 1147.94 882.578 1148.08 882.402 1148.19 882.138 1148.28 881.786L1149.58 881.786 1149.32 885.807 1139.03 885.807 1139.03 885.065C1139.61 883.74 1140.79 882.033 1142.57 879.944 1143.38 878.993 1143.99 878.211 1144.42 877.597 1144.84 876.983 1145.16 876.403 1145.36 875.856 1145.57 875.31 1145.68 874.745 1145.68 874.161 1145.68 873.337 1145.5 872.691 1145.13 872.223 1144.76 871.755 1144.26 871.521 1143.62 871.521 1142.4 871.521 1141.62 872.401 1141.28 874.161L1139.26 874.161 1139.26 871.51C1140.48 871.016 1141.46 870.69 1142.21 870.533 1142.96 870.376 1143.75 870.297 1144.58 870.297Z" fill-rule="evenodd"/><text fill="#000000" fill-opacity="0" font-family="Arial,Arial_MSFontService,sans-serif" font-size="15.5093" x="1139.03" y="883.868">𝟐</text><path d="M1619.54 444.601C1619.08 444.601 1618.63 444.721 1618.18 444.96 1617.73 445.2 1617.36 445.541 1617.07 445.984 1616.78 446.427 1616.63 446.914 1616.63 447.445L1616.63 452.773C1616.63 454.054 1616.85 454.999 1617.3 455.609 1617.74 456.218 1618.42 456.523 1619.35 456.523 1620.31 456.523 1621.04 456.02 1621.55 455.015 1622.05 454.01 1622.3 452.575 1622.3 450.71 1622.3 448.658 1622.08 447.127 1621.63 446.117 1621.18 445.106 1620.49 444.601 1619.54 444.601ZM1614.71 435.523 1616.63 435.523 1616.63 444.476 1616.65 444.492C1617.58 443.627 1618.42 443.02 1619.17 442.671 1619.93 442.322 1620.7 442.148 1621.49 442.148 1623.35 442.148 1624.74 442.802 1625.66 444.109 1626.59 445.416 1627.05 447.372 1627.05 449.976 1627.05 452.695 1626.44 454.736 1625.22 456.101 1623.99 457.466 1622.18 458.148 1619.79 458.148 1618.14 458.148 1616.64 457.851 1615.27 457.257L1614.12 458.148 1612.12 457.867 1612.12 440.914C1612.12 439.924 1612.1 439.205 1612.07 438.757 1612.04 438.309 1611.97 437.963 1611.88 437.718 1611.78 437.473 1611.62 437.281 1611.42 437.14 1611.22 436.999 1610.86 436.877 1610.35 436.773L1610.35 435.742Z" fill-rule="evenodd"/><text fill="#000000" fill-opacity="0" font-family="Arial,Arial_MSFontService,sans-serif" font-size="22.625" x="1610.35" y="455.32">𝐛</text><path d="M1636.54 448.943 1637.97 448.943C1637.93 449.662 1637.91 450.657 1637.91 451.93L1637.91 461.319C1637.91 461.753 1637.93 462.081 1637.98 462.301 1638.03 462.522 1638.11 462.702 1638.24 462.84 1638.36 462.979 1638.54 463.088 1638.77 463.166 1639 463.245 1639.29 463.305 1639.65 463.346 1640 463.387 1640.46 463.415 1641.04 463.43L1641.04 464.452 1631.35 464.452 1631.35 463.43C1632.18 463.393 1632.77 463.342 1633.13 463.278 1633.48 463.215 1633.75 463.119 1633.94 462.992 1634.13 462.865 1634.27 462.685 1634.35 462.453 1634.44 462.221 1634.48 461.843 1634.48 461.319L1634.48 453.199C1634.48 452.892 1634.42 452.671 1634.31 452.537 1634.19 452.402 1634.03 452.334 1633.83 452.334 1633.64 452.334 1633.38 452.42 1633.04 452.593 1632.7 452.765 1632.14 453.117 1631.36 453.648L1630.67 452.458Z" fill-rule="evenodd"/><text fill="#000000" fill-opacity="0" font-family="Arial,Arial_MSFontService,sans-serif" font-size="15.5093" x="1630.67" y="462.513">𝟏</text><path d="M1620.91 839.836C1620.46 839.836 1620 839.956 1619.55 840.195 1619.11 840.435 1618.74 840.776 1618.45 841.219 1618.15 841.661 1618.01 842.148 1618.01 842.68L1618.01 848.008C1618.01 849.289 1618.23 850.234 1618.67 850.844 1619.11 851.453 1619.8 851.758 1620.73 851.758 1621.68 851.758 1622.42 851.255 1622.92 850.25 1623.43 849.245 1623.68 847.81 1623.68 845.945 1623.68 843.893 1623.46 842.362 1623.01 841.352 1622.56 840.341 1621.86 839.836 1620.91 839.836ZM1616.09 830.758 1618.01 830.758 1618.01 839.711 1618.02 839.727C1618.95 838.862 1619.79 838.255 1620.55 837.906 1621.3 837.557 1622.08 837.383 1622.87 837.383 1624.72 837.383 1626.11 838.036 1627.04 839.344 1627.97 840.651 1628.43 842.607 1628.43 845.211 1628.43 847.93 1627.82 849.971 1626.59 851.336 1625.37 852.7 1623.56 853.383 1621.16 853.383 1619.52 853.383 1618.01 853.086 1616.65 852.492L1615.49 853.383 1613.49 853.102 1613.49 836.148C1613.49 835.159 1613.48 834.44 1613.45 833.992 1613.41 833.544 1613.35 833.198 1613.25 832.953 1613.15 832.708 1613 832.516 1612.8 832.375 1612.59 832.234 1612.24 832.112 1611.73 832.008L1611.73 830.977Z" fill-rule="evenodd"/><text fill="#000000" fill-opacity="0" font-family="Arial,Arial_MSFontService,sans-serif" font-size="22.625" x="1611.73" y="850.555">𝐛</text><path d="M1637.03 844.178C1638.14 844.178 1639.03 844.326 1639.73 844.621 1640.43 844.917 1640.93 845.318 1641.24 845.823 1641.55 846.328 1641.71 846.918 1641.71 847.592 1641.71 848.183 1641.6 848.734 1641.38 849.243 1641.15 849.752 1640.77 850.332 1640.23 850.983 1639.69 851.635 1638.77 852.567 1637.48 853.78 1637.09 854.154 1636.61 854.646 1636.06 855.257 1635.51 855.867 1635.08 856.389 1634.76 856.823L1634.76 856.935 1638.74 856.935C1639.23 856.935 1639.59 856.9 1639.83 856.829 1640.07 856.758 1640.26 856.634 1640.4 856.458 1640.54 856.282 1640.65 856.018 1640.74 855.666L1642.03 855.666 1641.77 859.687 1631.49 859.687 1631.49 858.946C1632.06 857.621 1633.24 855.914 1635.02 853.825 1635.83 852.874 1636.45 852.091 1636.87 851.477 1637.3 850.864 1637.61 850.283 1637.82 849.737 1638.03 849.19 1638.14 848.625 1638.14 848.041 1638.14 847.217 1637.95 846.572 1637.59 846.104 1637.22 845.636 1636.72 845.402 1636.08 845.402 1634.86 845.402 1634.08 846.281 1633.73 848.041L1631.71 848.041 1631.71 845.391C1632.93 844.896 1633.92 844.571 1634.67 844.414 1635.41 844.256 1636.2 844.178 1637.03 844.178Z" fill-rule="evenodd"/><text fill="#000000" fill-opacity="0" font-family="Arial,Arial_MSFontService,sans-serif" font-size="15.5093" x="1631.49" y="857.748">𝟐</text><path d="M1125.22 660.839 1132.3 667.901 1139.38 660.839 1140.85 662.292 1133.85 669.417 1140.86 676.511 1139.3 678.073 1132.3 670.933 1125.08 678.011 1123.63 676.542 1130.77 669.417 1123.66 662.401Z" fill-rule="evenodd"/><text fill="#000000" fill-opacity="0" font-family="Arial,Arial_MSFontService,sans-serif" font-size="17.2344" x="1123.63" y="675.919">×</text><path d="M1381.88 713.907 1389.67 713.907 1389.67 714.938C1389.18 715.032 1388.82 715.173 1388.6 715.36 1388.37 715.548 1388.25 715.829 1388.25 716.204 1388.25 716.704 1388.39 717.355 1388.66 718.157L1390.91 724.985 1393.39 719.001C1393.6 718.501 1393.76 718.061 1393.86 717.68 1393.97 717.3 1394.02 716.928 1394.02 716.563 1394.02 716.126 1393.89 715.764 1393.64 715.477 1393.39 715.191 1393.04 715.011 1392.58 714.938L1392.58 713.907 1398.66 713.907 1398.66 714.954C1398.31 715.068 1398.03 715.219 1397.81 715.407 1397.58 715.594 1397.33 715.92 1397.06 716.384 1396.78 716.847 1396.39 717.641 1395.89 718.766L1391.02 729.563 1388.06 729.563 1383.94 717.673C1383.66 716.85 1383.43 716.285 1383.25 715.977 1383.07 715.67 1382.88 715.436 1382.67 715.274 1382.45 715.113 1382.19 715.001 1381.88 714.938Z" fill-rule="evenodd"/><text fill="#000000" fill-opacity="0" font-family="Arial,Arial_MSFontService,sans-serif" font-size="15.6562" x="1381.88" y="727.606">𝐯</text><path d="M1404.92 720.452 1406.35 720.452C1406.31 721.171 1406.29 722.166 1406.29 723.439L1406.29 732.828C1406.29 733.262 1406.31 733.59 1406.36 733.81 1406.41 734.031 1406.49 734.211 1406.62 734.35 1406.74 734.488 1406.92 734.597 1407.15 734.675 1407.38 734.754 1407.68 734.814 1408.03 734.855 1408.38 734.896 1408.84 734.924 1409.42 734.939L1409.42 735.961 1399.73 735.961 1399.73 734.939C1400.56 734.902 1401.15 734.851 1401.51 734.788 1401.86 734.724 1402.14 734.628 1402.32 734.501 1402.51 734.374 1402.65 734.194 1402.73 733.962 1402.82 733.73 1402.86 733.352 1402.86 732.828L1402.86 724.708C1402.86 724.401 1402.8 724.18 1402.69 724.046 1402.57 723.911 1402.41 723.843 1402.21 723.843 1402.02 723.843 1401.76 723.93 1401.42 724.102 1401.08 724.274 1400.52 724.626 1399.74 725.157L1399.05 723.967Z" fill-rule="evenodd"/><text fill="#000000" fill-opacity="0" font-family="Arial,Arial_MSFontService,sans-serif" font-size="15.5093" x="1399.05" y="734.022">𝟏</text><path d="M1414.28 708.079 1429.78 708.079 1429.78 709.11 1419.78 727.548 1424.25 727.548C1424.82 727.548 1425.3 727.43 1425.68 727.196 1426.07 726.962 1426.4 726.592 1426.68 726.087 1426.97 725.581 1427.26 724.704 1427.56 723.454L1429.68 723.454 1429.68 729.407 1414.03 729.407 1414.03 728.376 1424.03 709.938 1419.79 709.938C1419.11 709.938 1418.57 710.063 1418.17 710.313 1417.77 710.563 1417.43 710.964 1417.15 711.516 1416.87 712.068 1416.63 712.803 1416.42 713.719L1414.28 713.719Z" fill-rule="evenodd"/><text fill="#000000" fill-opacity="0" font-family="Arial,Arial_MSFontService,sans-serif" font-size="21.3281" x="1414.03" y="726.741">𝐙</text><path d="M1435.25 724.731 1436.66 724.731 1436.66 732.716C1436.66 733.434 1436.68 733.927 1436.72 734.192 1436.76 734.458 1436.85 734.672 1436.99 734.832 1437.14 734.993 1437.4 735.123 1437.78 735.22L1437.78 735.961 1432.3 735.961 1432.3 735.22C1432.67 735.123 1432.92 734.995 1433.06 734.838 1433.2 734.681 1433.29 734.467 1433.34 734.198 1433.39 733.928 1433.41 733.438 1433.41 732.727L1433.41 727.505C1433.41 726.98 1433.38 726.608 1433.31 726.387 1433.24 726.166 1433.13 725.998 1432.98 725.882 1432.82 725.766 1432.55 725.667 1432.16 725.584L1432.16 724.82ZM1433.49 720.34 1436.57 720.34 1436.57 723.091 1433.49 723.091Z" fill-rule="evenodd"/><text fill="#000000" fill-opacity="0" font-family="Arial,Arial_MSFontService,sans-serif" font-size="15.6216" x="1432.16" y="734.008">𝐢</text><path d="M1127.97 1029.95 1135.05 1037.02 1142.13 1029.95 1143.6 1031.41 1136.6 1038.53 1143.61 1045.63 1142.05 1047.19 1135.05 1040.05 1127.83 1047.13 1126.38 1045.66 1133.52 1038.53 1126.41 1031.52Z" fill-rule="evenodd"/><text fill="#000000" fill-opacity="0" font-family="Arial,Arial_MSFontService,sans-serif" font-size="17.2344" x="1126.38" y="1045.03">×</text><path d="M1661.47 1037.51 1668.55 1044.58 1675.63 1037.51 1677.1 1038.97 1670.1 1046.09 1677.11 1053.19 1675.55 1054.75 1668.55 1047.61 1661.33 1054.69 1659.88 1053.22 1667.02 1046.09 1659.91 1039.08Z" fill-rule="evenodd"/><text fill="#000000" fill-opacity="0" font-family="Arial,Arial_MSFontService,sans-serif" font-size="17.2344" x="1659.88" y="1052.59">×</text><path d="M1662.85 662.214 1669.92 669.276 1677 662.214 1678.47 663.667 1671.47 670.792 1678.49 677.885 1676.92 679.448 1669.92 672.307 1662.71 679.385 1661.25 677.917 1668.39 670.792 1661.28 663.776Z" fill-rule="evenodd"/><text fill="#000000" fill-opacity="0" font-family="Arial,Arial_MSFontService,sans-serif" font-size="17.2344" x="1661.25" y="677.294">×</text><path d="M669.258 747.946 684.758 747.946 684.758 748.977 674.758 767.415 679.227 767.415C679.8 767.415 680.279 767.297 680.664 767.063 681.05 766.829 681.383 766.459 681.664 765.954 681.945 765.449 682.237 764.571 682.539 763.321L684.664 763.321 684.664 769.274 669.008 769.274 669.008 768.243 679.008 749.805 674.773 749.805C674.086 749.805 673.544 749.93 673.148 750.18 672.753 750.43 672.414 750.831 672.133 751.383 671.852 751.935 671.607 752.67 671.398 753.587L669.258 753.587Z" fill-rule="evenodd"/><text fill="#000000" fill-opacity="0" font-family="Arial,Arial_MSFontService,sans-serif" font-size="21.3281" x="669.008" y="766.608">𝐙</text><path d="M690.231 764.598 691.635 764.598 691.635 772.583C691.635 773.301 691.656 773.794 691.697 774.059 691.738 774.325 691.83 774.539 691.972 774.7 692.114 774.86 692.376 774.99 692.758 775.087L692.758 775.828 687.278 775.828 687.278 775.087C687.645 774.99 687.897 774.862 688.036 774.705 688.174 774.548 688.268 774.335 688.317 774.065 688.365 773.795 688.39 773.305 688.39 772.594L688.39 767.372C688.39 766.848 688.356 766.475 688.289 766.254 688.221 766.033 688.111 765.865 687.957 765.749 687.804 765.633 687.532 765.534 687.143 765.451L687.143 764.688ZM688.468 760.207 691.545 760.207 691.545 762.958 688.468 762.958Z" fill-rule="evenodd"/><text fill="#000000" fill-opacity="0" font-family="Arial,Arial_MSFontService,sans-serif" font-size="15.6216" x="687.143" y="773.875">𝐢</text><path d="M2060.47 895.808 2062.69 895.808 2062.69 904.808 2071.21 904.808 2071.21 906.886 2062.69 906.886 2062.69 915.886 2060.47 915.886 2060.47 906.886 2051.96 906.886 2051.96 904.808 2060.47 904.808Z" fill-rule="evenodd"/><text fill="#000000" fill-opacity="0" font-family="Arial,Arial_MSFontService,sans-serif" font-size="20.0781" x="2051.96" y="913.376">+</text><path d="M2356.13 853.113 2364.33 853.113 2364.33 854.144C2363.79 854.29 2363.41 854.459 2363.19 854.652 2362.97 854.845 2362.82 855.11 2362.75 855.449 2362.68 855.787 2362.64 856.321 2362.64 857.05L2362.64 870.519C2362.64 871.3 2362.68 871.845 2362.75 872.152 2362.82 872.459 2362.97 872.709 2363.18 872.902 2363.39 873.095 2363.78 873.264 2364.33 873.41L2364.33 874.441 2356.13 874.441 2356.13 873.41C2356.69 873.264 2357.07 873.097 2357.27 872.91 2357.48 872.722 2357.62 872.475 2357.69 872.167 2357.76 871.86 2357.8 871.311 2357.8 870.519L2357.8 857.035C2357.8 856.253 2357.76 855.709 2357.7 855.402 2357.63 855.095 2357.49 854.847 2357.29 854.66 2357.09 854.472 2356.7 854.3 2356.13 854.144ZM2347.16 852.863C2348.08 852.863 2348.97 852.912 2349.81 853.011 2350.66 853.11 2351.62 853.285 2352.7 853.535L2352.7 858.066 2350.56 858.066C2350.28 856.889 2349.87 856.032 2349.31 855.496 2348.76 854.959 2347.97 854.691 2346.92 854.691 2345.99 854.691 2345.23 854.936 2344.67 855.425 2344.1 855.915 2343.81 856.582 2343.81 857.425 2343.81 858.029 2343.93 858.553 2344.17 858.996 2344.4 859.438 2344.79 859.871 2345.35 860.292 2345.9 860.714 2346.7 861.196 2347.75 861.738 2349.03 862.404 2350.04 863.058 2350.77 863.699 2351.51 864.339 2352.05 865.037 2352.4 865.792 2352.75 866.548 2352.92 867.425 2352.92 868.425 2352.92 869.707 2352.63 870.819 2352.03 871.761 2351.44 872.704 2350.57 873.428 2349.44 873.933 2348.3 874.438 2346.99 874.691 2345.5 874.691 2344.44 874.691 2343.33 874.631 2342.18 874.511 2341.03 874.391 2339.95 874.217 2338.94 873.988L2338.94 869.175 2341.08 869.175C2341.34 870.415 2341.77 871.339 2342.38 871.949 2342.99 872.558 2343.89 872.863 2345.06 872.863 2346.1 872.863 2346.9 872.597 2347.48 872.066 2348.06 871.535 2348.35 870.779 2348.35 869.8 2348.35 868.842 2348.07 868.042 2347.51 867.402 2346.95 866.761 2345.99 866.097 2344.61 865.41 2343.47 864.847 2342.51 864.266 2341.74 863.667 2340.98 863.069 2340.37 862.373 2339.93 861.582 2339.49 860.79 2339.27 859.884 2339.27 858.863 2339.27 857.582 2339.58 856.493 2340.22 855.597 2340.86 854.701 2341.77 854.022 2342.98 853.558 2344.18 853.095 2345.57 852.863 2347.16 852.863Z" fill-rule="evenodd"/><text fill="#000000" fill-opacity="0" font-family="Arial,Arial_MSFontService,sans-serif" font-size="21.8281" x="2338.94" y="871.962">𝐒𝐈</text><path d="M2383.99 855.253 2386.2 855.253 2386.2 864.253 2394.72 864.253 2394.72 866.332 2386.2 866.332 2386.2 875.332 2383.99 875.332 2383.99 866.332 2375.47 866.332 2375.47 864.253 2383.99 864.253Z" fill-rule="evenodd"/><text fill="#000000" fill-opacity="0" font-family="Arial,Arial_MSFontService,sans-serif" font-size="20.0781" x="2375.47" y="872.822">+</text><path d="M2356.13 934.222 2364.33 934.222 2364.33 935.253C2363.79 935.399 2363.41 935.568 2363.19 935.761 2362.97 935.954 2362.82 936.219 2362.75 936.558 2362.68 936.896 2362.64 937.43 2362.64 938.159L2362.64 951.628C2362.64 952.409 2362.68 952.954 2362.75 953.261 2362.82 953.568 2362.97 953.818 2363.18 954.011 2363.39 954.204 2363.78 954.373 2364.33 954.519L2364.33 955.55 2356.13 955.55 2356.13 954.519C2356.69 954.373 2357.07 954.206 2357.27 954.019 2357.48 953.831 2357.62 953.584 2357.69 953.277 2357.76 952.969 2357.8 952.42 2357.8 951.628L2357.8 938.144C2357.8 937.363 2357.76 936.818 2357.7 936.511 2357.63 936.204 2357.49 935.956 2357.29 935.769 2357.09 935.581 2356.7 935.409 2356.13 935.253ZM2347.16 933.972C2348.08 933.972 2348.97 934.021 2349.81 934.12 2350.66 934.219 2351.62 934.394 2352.7 934.644L2352.7 939.175 2350.56 939.175C2350.28 937.998 2349.87 937.141 2349.31 936.605 2348.76 936.068 2347.97 935.8 2346.92 935.8 2345.99 935.8 2345.23 936.045 2344.67 936.534 2344.1 937.024 2343.81 937.691 2343.81 938.534 2343.81 939.139 2343.93 939.662 2344.17 940.105 2344.4 940.547 2344.79 940.98 2345.35 941.402 2345.9 941.823 2346.7 942.305 2347.75 942.847 2349.03 943.514 2350.04 944.167 2350.77 944.808 2351.51 945.448 2352.05 946.146 2352.4 946.902 2352.75 947.657 2352.92 948.534 2352.92 949.534 2352.92 950.816 2352.63 951.928 2352.03 952.87 2351.44 953.813 2350.57 954.537 2349.44 955.042 2348.3 955.547 2346.99 955.8 2345.5 955.8 2344.44 955.8 2343.33 955.74 2342.18 955.62 2341.03 955.501 2339.95 955.326 2338.94 955.097L2338.94 950.284 2341.08 950.284C2341.34 951.524 2341.77 952.448 2342.38 953.058 2342.99 953.667 2343.89 953.972 2345.06 953.972 2346.1 953.972 2346.9 953.706 2347.48 953.175 2348.06 952.644 2348.35 951.889 2348.35 950.909 2348.35 949.951 2348.07 949.152 2347.51 948.511 2346.95 947.87 2345.99 947.206 2344.61 946.519 2343.47 945.956 2342.51 945.376 2341.74 944.777 2340.98 944.178 2340.37 943.482 2339.93 942.691 2339.49 941.899 2339.27 940.993 2339.27 939.972 2339.27 938.691 2339.58 937.602 2340.22 936.706 2340.86 935.81 2341.77 935.131 2342.98 934.667 2344.18 934.204 2345.57 933.972 2347.16 933.972Z" fill-rule="evenodd"/><text fill="#000000" fill-opacity="0" font-family="Arial,Arial_MSFontService,sans-serif" font-size="21.8281" x="2338.94" y="953.072">𝐒𝐈</text><path d="M2375.47 945.363 2394.72 945.363 2394.72 947.441 2375.47 947.441Z" fill-rule="evenodd"/><text fill="#000000" fill-opacity="0" font-family="Arial,Arial_MSFontService,sans-serif" font-size="2.07812" x="2375.47" y="947.181">−</text><g clip-path="url(#clip16)"><g clip-path="url(#clip17)"><g clip-path="url(#clip18)"><path d="M0 0 268.183 0 268.183 50.0002 0 50.0002Z" fill="#FFFFFF" transform="matrix(1.00678 0 0 1 1273 644)"/><path d="M11.3637 11.3637 38.6365 11.3637 38.6365 38.6365 11.3637 38.6365Z" stroke="#444444" stroke-width="0.568184" fill="#A01A9C" transform="matrix(1.00678 0 0 1 1273 644)"/><path d="M38.6365 11.3637 65.9094 11.3637 65.9094 38.6365 38.6365 38.6365Z" stroke="#444444" stroke-width="0.568184" fill="#46039F" transform="matrix(1.00678 0 0 1 1273 644)"/><path d="M65.9094 11.3637 93.1822 11.3637 93.1822 38.6365 65.9094 38.6365Z" stroke="#444444" stroke-width="0.568184" fill="#C8437B" transform="matrix(1.00678 0 0 1 1273 644)"/><path d="M93.1822 11.3637 120.455 11.3637 120.455 38.6365 93.1822 38.6365Z" stroke="#444444" stroke-width="0.568184" fill="#FCA338" transform="matrix(1.00678 0 0 1 1273 644)"/><path d="M120.455 11.3637 147.728 11.3637 147.728 38.6365 120.455 38.6365Z" stroke="#444444" stroke-width="0.568184" fill="#F1814D" transform="matrix(1.00678 0 0 1 1273 644)"/><path d="M147.728 11.3637 175.001 11.3637 175.001 38.6365 147.728 38.6365Z" stroke="#444444" stroke-width="0.568184" fill="#E26660" transform="matrix(1.00678 0 0 1 1273 644)"/><path d="M175.001 11.3637 202.274 11.3637 202.274 38.6365 175.001 38.6365Z" stroke="#444444" stroke-width="0.568184" fill="#C03A83" transform="matrix(1.00678 0 0 1 1273 644)"/><path d="M202.274 11.3637 229.546 11.3637 229.546 38.6365 202.274 38.6365Z" stroke="#444444" stroke-width="0.568184" fill="#A11B9B" transform="matrix(1.00678 0 0 1 1273 644)"/><path d="M229.546 11.3637 256.819 11.3637 256.819 38.6365 229.546 38.6365Z" stroke="#444444" stroke-width="0.568184" fill="#5901A5" transform="matrix(1.00678 0 0 1 1273 644)"/></g></g></g><g clip-path="url(#clip19)"><g clip-path="url(#clip20)"><g clip-path="url(#clip21)"><path d="M0 0 270.305 0 270.305 50.3958 0 50.3958Z" fill="#FFFFFF" transform="matrix(1 0 0 1.00549 1263.38 1019.66)"/><path d="M11.4536 11.4536 38.9422 11.4536 38.9422 38.9422 11.4536 38.9422Z" stroke="#444444" stroke-width="0.572679" fill="#1E9B8A" transform="matrix(1 0 0 1.00549 1263.38 1019.66)"/><path d="M38.9422 11.4536 66.4308 11.4536 66.4308 38.9422 38.9422 38.9422Z" stroke="#444444" stroke-width="0.572679" fill="#2C738E" transform="matrix(1 0 0 1.00549 1263.38 1019.66)"/><path d="M66.4308 11.4536 93.9194 11.4536 93.9194 38.9422 66.4308 38.9422Z" stroke="#444444" stroke-width="0.572679" fill="#B2DD2D" transform="matrix(1 0 0 1.00549 1263.38 1019.66)"/><path d="M93.9194 11.4536 121.408 11.4536 121.408 38.9422 93.9194 38.9422Z" stroke="#444444" stroke-width="0.572679" fill="#443983" transform="matrix(1 0 0 1.00549 1263.38 1019.66)"/><path d="M121.408 11.4536 148.897 11.4536 148.897 38.9422 121.408 38.9422Z" stroke="#444444" stroke-width="0.572679" fill="#1F978B" transform="matrix(1 0 0 1.00549 1263.38 1019.66)"/><path d="M148.897 11.4536 176.385 11.4536 176.385 38.9422 148.897 38.9422Z" stroke="#444444" stroke-width="0.572679" fill="#2C718E" transform="matrix(1 0 0 1.00549 1263.38 1019.66)"/><path d="M176.385 11.4536 203.874 11.4536 203.874 38.9422 176.385 38.9422Z" stroke="#444444" stroke-width="0.572679" fill="#34608D" transform="matrix(1 0 0 1.00549 1263.38 1019.66)"/><path d="M203.874 11.4536 231.363 11.4536 231.363 38.9422 203.874 38.9422Z" stroke="#444444" stroke-width="0.572679" fill="#A8DB34" transform="matrix(1 0 0 1.00549 1263.38 1019.66)"/><path d="M231.363 11.4536 258.851 11.4536 258.851 38.9422 231.363 38.9422Z" stroke="#444444" stroke-width="0.572679" fill="#2D708E" transform="matrix(1 0 0 1.00549 1263.38 1019.66)"/></g></g></g><g clip-path="url(#clip22)"><g clip-path="url(#clip23)"><g clip-path="url(#clip24)"><path d="M0 0 38.7601 0 38.7601 38.7601 0 38.7601Z" fill="#FFFFFF" transform="matrix(1.00504 0 0 1 1864.34 652.133)"/><path d="M4.84501 4.84501 33.9151 4.84501 33.9151 33.9151 4.84501 33.9151Z" stroke="#444444" stroke-width="0.363376" fill="#F28E2B" transform="matrix(1.00504 0 0 1 1864.34 652.133)"/></g></g></g><g clip-path="url(#clip25)"><g clip-path="url(#clip26)"><g clip-path="url(#clip27)"><path d="M0 0 45.0643 0 45.0643 45.0643 0 45.0643Z" fill="#FFFFFF" transform="matrix(1 0 0 1.01159 1939.91 512.213)"/><path d="M5.63303 5.63303 39.4312 5.63303 39.4312 39.4312 5.63303 39.4312Z" stroke="#444444" stroke-width="0.422478" fill="#4C78A8" transform="matrix(1 0 0 1.01159 1939.91 512.213)"/></g></g></g><g clip-path="url(#clip28)"><g clip-path="url(#clip29)"><g clip-path="url(#clip30)"><path d="M0 0 39.17 0 39.17 39.17 0 39.17Z" fill="#FFFFFF" transform="matrix(1.019 0 0 1 1860.49 1018.73)"/><path d="M4.89626 4.89626 34.2738 4.89626 34.2738 34.2738 4.89626 34.2738Z" stroke="#444444" stroke-width="0.367219" fill="#59A89C" transform="matrix(1.019 0 0 1 1860.49 1018.73)"/></g></g></g><g clip-path="url(#clip31)"><g clip-path="url(#clip32)"><g clip-path="url(#clip33)"><path d="M0 0 111.944 0 111.944 79.585 0 79.585Z" fill="#FFFFFF" transform="matrix(1 0 0 1.00378 2157.91 871.912)"/><path d="M7.87104 71.7139C24.0504 71.7139 34.1078 65.592 44.6026 55.0973 53.3482 46.3517 59.4701 35.857 67.3411 26.6741 76.9613 15.3048 89.2051 7.87104 104.073 7.87104" stroke="#D83A2F" stroke-width="1.31184" stroke-linecap="round" fill="none" transform="matrix(1 0 0 1.00378 2157.91 871.912)"/></g></g></g></g></svg>