<svg width="2034" height="751" xmlns="http://www.w3.org/2000/svg" xmlns:xlink="http://www.w3.org/1999/xlink" overflow="hidden"><defs><clipPath id="clip0"><rect x="384" y="330" width="2034" height="751"/></clipPath><clipPath id="clip1"><rect x="383" y="753" width="489" height="222"/></clipPath><clipPath id="clip2"><rect x="383" y="753" width="489" height="222"/></clipPath><clipPath id="clip3"><rect x="383" y="753" width="489" height="222"/></clipPath><clipPath id="clip4"><rect x="1635" y="693" width="28" height="205"/></clipPath><clipPath id="clip5"><rect x="1635" y="693" width="28" height="205"/></clipPath><clipPath id="clip6"><rect x="1627" y="685" width="44" height="222"/></clipPath><clipPath id="clip7"><rect x="1635" y="330" width="26" height="207"/></clipPath><clipPath id="clip8"><rect x="1635" y="330" width="26" height="207"/></clipPath><clipPath id="clip9"><rect x="1627" y="323" width="42" height="222"/></clipPath><clipPath id="clip10"><rect x="927" y="865" width="465" height="28"/></clipPath><clipPath id="clip11"><rect x="927" y="865" width="465" height="28"/></clipPath><clipPath id="clip12"><rect x="919" y="857" width="482" height="42"/></clipPath><clipPath id="clip13"><rect x="922" y="504" width="469" height="27"/></clipPath><clipPath id="clip14"><rect x="922" y="504" width="469" height="27"/></clipPath><clipPath id="clip15"><rect x="913" y="498" width="486" height="41"/></clipPath><clipPath id="clip16"><rect x="1245" y="608" width="272" height="49"/></clipPath><clipPath id="clip17"><rect x="1245" y="608" width="272" height="49"/></clipPath><clipPath id="clip18"><rect x="1245" y="608" width="272" height="49"/></clipPath><clipPath id="clip19"><rect x="1245" y="984" width="257" height="30"/></clipPath><clipPath id="clip20"><rect x="1245" y="984" width="257" height="30"/></clipPath><clipPath id="clip21"><rect x="1235" y="974" width="273" height="49"/></clipPath><clipPath id="clip22"><rect x="1845" y="620" width="33" height="31"/></clipPath><clipPath id="clip23"><rect x="1845" y="620" width="33" height="31"/></clipPath><clipPath id="clip24"><rect x="1842" y="616" width="41" height="38"/></clipPath><clipPath id="clip25"><rect x="1923" y="486" width="37" height="34"/></clipPath><clipPath id="clip26"><rect x="1923" y="486" width="37" height="34"/></clipPath><clipPath id="clip27"><rect x="1918" y="480" width="46" height="44"/></clipPath><clipPath id="clip28"><rect x="1842" y="975" width="33" height="32"/></clipPath><clipPath id="clip29"><rect x="1842" y="975" width="33" height="32"/></clipPath><clipPath id="clip30"><rect x="1838" y="972" width="41" height="39"/></clipPath><clipPath id="clip31"><rect x="2143" y="833" width="104" height="71"/></clipPath><clipPath id="clip32"><rect x="2143" y="833" width="104" height="71"/></clipPath><clipPath id="clip33"><rect x="2138" y="830" width="114" height="78"/></clipPath></defs><g clip-path="url(#clip0)" transform="translate(-384 -330)"><path d="M1353.27 1032.97 1361.07 1032.97 1361.07 1034C1360.58 1034.09 1360.22 1034.23 1359.99 1034.42 1359.76 1034.61 1359.64 1034.89 1359.64 1035.26 1359.64 1035.76 1359.78 1036.41 1360.05 1037.22L1362.3 1044.04 1364.78 1038.06C1364.99 1037.56 1365.15 1037.12 1365.25 1036.74 1365.36 1036.36 1365.41 1035.99 1365.41 1035.62 1365.41 1035.18 1365.28 1034.82 1365.03 1034.54 1364.78 1034.25 1364.43 1034.07 1363.97 1034L1363.97 1032.97 1370.05 1032.97 1370.05 1034.01C1369.71 1034.13 1369.42 1034.28 1369.2 1034.47 1368.97 1034.65 1368.72 1034.98 1368.45 1035.44 1368.17 1035.91 1367.78 1036.7 1367.28 1037.82L1362.41 1048.62 1359.46 1048.62 1355.33 1036.73C1355.05 1035.91 1354.82 1035.34 1354.64 1035.04 1354.47 1034.73 1354.27 1034.49 1354.06 1034.33 1353.84 1034.17 1353.58 1034.06 1353.27 1034Z" fill-rule="evenodd"/><text fill="#000000" fill-opacity="0" font-family="Arial,Arial_MSFontService,sans-serif" font-size="15.6562" x="1353.27" y="1046.66">𝐯</text><path d="M1375.43 1039.51C1376.53 1039.51 1377.43 1039.66 1378.13 1039.95 1378.82 1040.25 1379.33 1040.65 1379.64 1041.16 1379.95 1041.66 1380.1 1042.25 1380.1 1042.92 1380.1 1043.52 1379.99 1044.07 1379.77 1044.57 1379.55 1045.08 1379.17 1045.66 1378.63 1046.32 1378.09 1046.97 1377.17 1047.9 1375.88 1049.11 1375.49 1049.49 1375.01 1049.98 1374.46 1050.59 1373.91 1051.2 1373.47 1051.72 1373.15 1052.16L1373.15 1052.27 1377.14 1052.27C1377.63 1052.27 1377.99 1052.23 1378.23 1052.16 1378.47 1052.09 1378.66 1051.97 1378.8 1051.79 1378.93 1051.61 1379.05 1051.35 1379.14 1051L1380.43 1051 1380.17 1055.02 1369.89 1055.02 1369.89 1054.28C1370.46 1052.95 1371.64 1051.25 1373.42 1049.16 1374.23 1048.21 1374.85 1047.42 1375.27 1046.81 1375.69 1046.2 1376.01 1045.62 1376.22 1045.07 1376.43 1044.52 1376.53 1043.96 1376.53 1043.37 1376.53 1042.55 1376.35 1041.9 1375.98 1041.44 1375.62 1040.97 1375.11 1040.73 1374.48 1040.73 1373.26 1040.73 1372.48 1041.61 1372.13 1043.37L1370.11 1043.37 1370.11 1040.72C1371.33 1040.23 1372.31 1039.9 1373.06 1039.75 1373.81 1039.59 1374.6 1039.51 1375.43 1039.51Z" fill-rule="evenodd"/><text fill="#000000" fill-opacity="0" font-family="Arial,Arial_MSFontService,sans-serif" font-size="15.5093" x="1369.89" y="1053.08">𝟐</text><path d="M1385.67 1027.14 1401.17 1027.14 1401.17 1028.17 1391.17 1046.61 1395.64 1046.61C1396.21 1046.61 1396.69 1046.49 1397.08 1046.25 1397.46 1046.02 1397.8 1045.65 1398.08 1045.14 1398.36 1044.64 1398.65 1043.76 1398.95 1042.51L1401.08 1042.51 1401.08 1048.47 1385.42 1048.47 1385.42 1047.43 1395.42 1029 1391.19 1029C1390.5 1029 1389.96 1029.12 1389.56 1029.37 1389.17 1029.62 1388.83 1030.02 1388.55 1030.57 1388.26 1031.13 1388.02 1031.86 1387.81 1032.78L1385.67 1032.78Z" fill-rule="evenodd"/><text fill="#000000" fill-opacity="0" font-family="Arial,Arial_MSFontService,sans-serif" font-size="21.3281" x="1385.42" y="1045.8">𝐙</text><path d="M1406.64 1043.79 1408.05 1043.79 1408.05 1051.77C1408.05 1052.49 1408.07 1052.98 1408.11 1053.25 1408.15 1053.52 1408.24 1053.73 1408.38 1053.89 1408.53 1054.05 1408.79 1054.18 1409.17 1054.28L1409.17 1055.02 1403.69 1055.02 1403.69 1054.28C1404.06 1054.18 1404.31 1054.05 1404.45 1053.9 1404.59 1053.74 1404.68 1053.53 1404.73 1053.26 1404.78 1052.99 1404.8 1052.5 1404.8 1051.78L1404.8 1046.56C1404.8 1046.04 1404.77 1045.67 1404.7 1045.45 1404.63 1045.22 1404.52 1045.06 1404.37 1044.94 1404.22 1044.82 1403.94 1044.72 1403.56 1044.64L1403.56 1043.88ZM1404.88 1039.4 1407.96 1039.4 1407.96 1042.15 1404.88 1042.15Z" fill-rule="evenodd"/><text fill="#000000" fill-opacity="0" font-family="Arial,Arial_MSFontService,sans-serif" font-size="15.6216" x="1403.56" y="1053.07">𝐢</text><path d="M1957.5 505.5 2037.63 505.501" stroke="#000000" stroke-width="3.4375" stroke-linejoin="round" stroke-miterlimit="10" fill="none" fill-rule="evenodd"/><path d="M0 0 2.08415 227.17" stroke="#000000" stroke-width="3.4375" stroke-linejoin="round" stroke-miterlimit="10" fill="none" fill-rule="evenodd" transform="matrix(1 0 0 -1 916.5 860.67)"/><path d="M0.00461975-1.71874 142.908-1.33464 142.899 2.10285-0.00461975 1.71874ZM138.357-13.3782 165.82 0.445702 138.283 14.1217Z" transform="matrix(1 0 0 -1 916.5 631.946)"/><path d="M1084 633C1084 621.954 1093.4 613 1105 613 1116.6 613 1126 621.954 1126 633 1126 644.046 1116.6 653 1105 653 1093.4 653 1084 644.046 1084 633Z" stroke="#C0504D" stroke-width="2.29167" stroke-linejoin="round" stroke-miterlimit="10" fill="#FFFFFF" fill-rule="evenodd"/><path d="M0.00765675-1.71873 77.1393-1.37512 77.1239 2.06235-0.00765675 1.71873ZM72.6096-13.4267 100.048 0.445702 72.4871 14.0731Z" transform="matrix(1 0 0 -1 1132.5 633.946)"/><path d="M1628 635C1628 623.954 1637.4 615 1649 615 1660.6 615 1670 623.954 1670 635 1670 646.046 1660.6 655 1649 655 1637.4 655 1628 646.046 1628 635Z" stroke="#C0504D" stroke-width="2.29167" stroke-linejoin="round" stroke-miterlimit="10" fill="#FFFFFF" fill-rule="evenodd"/><path d="M1529.5 628.781 1601.7 628.781 1601.7 632.219 1529.5 632.219ZM1597.11 616.75 1624.61 630.5 1597.11 644.25Z"/><path d="M0.00461975-1.71874 142.908-1.33464 142.899 2.10285-0.00461975 1.71874ZM138.357-13.3782 165.82 0.445702 138.283 14.1217Z" transform="matrix(1 0 0 -1 1676.5 632.946)"/><path d="M1888.5 634.5 1958.44 634.5" stroke="#000000" stroke-width="3.4375" stroke-linejoin="round" stroke-miterlimit="10" fill="none" fill-rule="evenodd"/><path d="M1957.87 868.794 1957.5 634.5" stroke="#000000" stroke-width="3.4375" stroke-linejoin="round" stroke-miterlimit="10" fill="none" fill-rule="evenodd"/><path d="M1958.19 995.592 1957.5 862.5" stroke="#000000" stroke-width="3.4375" stroke-linejoin="round" stroke-miterlimit="10" fill="none" fill-rule="evenodd"/><path d="M916.5 997.706 916.5 863.5" stroke="#000000" stroke-width="3.4375" stroke-linejoin="round" stroke-miterlimit="10" fill="none" fill-rule="evenodd"/><path d="M1956.5 862.5 2021.63 863.56" stroke="#000000" stroke-width="3.4375" stroke-linejoin="round" stroke-miterlimit="10" fill="none" fill-rule="evenodd"/><path d="M2022 864C2022 852.954 2031.4 844 2043 844 2054.6 844 2064 852.954 2064 864 2064 875.046 2054.6 884 2043 884 2031.4 884 2022 875.046 2022 864Z" stroke="#C0504D" stroke-width="2.29167" stroke-linejoin="round" stroke-miterlimit="10" fill="#FFFFFF" fill-rule="evenodd"/><path d="M2063.5 860.781 2109.6 860.781 2109.6 864.219 2063.5 864.219ZM2105.01 848.75 2132.51 862.5 2105.01 876.25Z"/><path d="M2132 840.5C2132 833.044 2138.04 827 2145.5 827L2246.5 827C2253.96 827 2260 833.044 2260 840.5L2260 894.5C2260 901.956 2253.96 908 2246.5 908L2145.5 908C2138.04 908 2132 901.956 2132 894.5Z" stroke="#5C4776" stroke-width="2.29167" stroke-linejoin="round" stroke-miterlimit="10" fill="none" fill-rule="evenodd"/><path d="M0.872941-1.48057 36.7142 19.6514 34.9683 22.6125-0.872941 1.48057ZM38.8766 6.95961 55.5821 32.7712 24.9095 30.6487Z" transform="matrix(1 0 0 -1 2259.5 869.271)"/><path d="M2260.5 867.101 2297.43 893.468 2295.43 896.266 2258.5 869.899ZM2300.69 881.013 2315.08 908.182 2284.71 903.394Z"/><path d="M0.00461975-1.71874 142.908-1.33464 142.899 2.10285-0.00461975 1.71874ZM138.357-13.3782 165.82 0.445702 138.283 14.1217Z" transform="matrix(1 0 0 -1 916.5 995.946)"/><path d="M1087 994C1087 982.954 1096.4 974 1108 974 1119.6 974 1129 982.954 1129 994 1129 1005.05 1119.6 1014 1108 1014 1096.4 1014 1087 1005.05 1087 994Z" stroke="#C0504D" stroke-width="2.29167" stroke-linejoin="round" stroke-miterlimit="10" fill="#FFFFFF" fill-rule="evenodd"/><path d="M0.00765675-1.71873 77.1393-1.37512 77.1239 2.06235-0.00765675 1.71873ZM72.6096-13.4267 100.048 0.445702 72.4871 14.0731Z" transform="matrix(1 0 0 -1 1137.5 996.946)"/><path d="M1628 1001C1628 989.954 1637.4 981 1649 981 1660.6 981 1670 989.954 1670 1001 1670 1012.05 1660.6 1021 1649 1021 1637.4 1021 1628 1012.05 1628 1001Z" stroke="#C0504D" stroke-width="2.29167" stroke-linejoin="round" stroke-miterlimit="10" fill="#FFFFFF" fill-rule="evenodd"/><path d="M0.00765675-1.71873 77.1393-1.37512 77.1239 2.06235-0.00765675 1.71873ZM72.6096-13.4267 100.048 0.445702 72.4871 14.0731Z" transform="matrix(1 0 0 -1 1523.5 997.946)"/><path d="M0.00461975-1.71874 142.908-1.33464 142.899 2.10285-0.00461975 1.71874ZM138.357-13.3782 165.82 0.445702 138.283 14.1217Z" transform="matrix(1 0 0 -1 1674.5 996.946)"/><path d="M1886.5 995.5 1958.76 995.5" stroke="#000000" stroke-width="3.4375" stroke-linejoin="round" stroke-miterlimit="10" fill="none" fill-rule="evenodd"/><g clip-path="url(#clip1)"><g clip-path="url(#clip2)"><g clip-path="url(#clip3)"><path d="M0 0 470.338 0 470.338 222 0 222Z" fill="#FFFFFF" transform="matrix(1.03543 0 0 1 384 753)"/><path d="M9.40677 9.40677 31.983 9.40677 31.983 31.983 9.40677 31.983Z" stroke="#444444" stroke-width="0.470338" fill="#2CB17E" transform="matrix(1.03543 0 0 1 384 753)"/><path d="M31.983 9.40677 54.5592 9.40677 54.5592 31.983 31.983 31.983Z" stroke="#444444" stroke-width="0.470338" fill="#460A5D" transform="matrix(1.03543 0 0 1 384 753)"/><path d="M54.5592 9.40677 77.1355 9.40677 77.1355 31.983 54.5592 31.983Z" stroke="#444444" stroke-width="0.470338" fill="#38598C" transform="matrix(1.03543 0 0 1 384 753)"/><path d="M77.1355 9.40677 99.7117 9.40677 99.7117 31.983 77.1355 31.983Z" stroke="#444444" stroke-width="0.470338" fill="#3E4A89" transform="matrix(1.03543 0 0 1 384 753)"/><path d="M99.7117 9.40677 122.288 9.40677 122.288 31.983 99.7117 31.983Z" stroke="#444444" stroke-width="0.470338" fill="#56C667" transform="matrix(1.03543 0 0 1 384 753)"/><path d="M122.288 9.40677 144.864 9.40677 144.864 31.983 122.288 31.983Z" stroke="#444444" stroke-width="0.470338" fill="#3ABA76" transform="matrix(1.03543 0 0 1 384 753)"/><path d="M144.864 9.40677 167.44 9.40677 167.44 31.983 144.864 31.983Z" stroke="#444444" stroke-width="0.470338" fill="#B8DE29" transform="matrix(1.03543 0 0 1 384 753)"/><path d="M167.44 9.40677 190.017 9.40677 190.017 31.983 167.44 31.983Z" stroke="#444444" stroke-width="0.470338" fill="#482071" transform="matrix(1.03543 0 0 1 384 753)"/><path d="M190.017 9.40677 212.593 9.40677 212.593 31.983 190.017 31.983Z" stroke="#444444" stroke-width="0.470338" fill="#277E8E" transform="matrix(1.03543 0 0 1 384 753)"/><path d="M212.593 9.40677 235.169 9.40677 235.169 31.983 212.593 31.983Z" stroke="#444444" stroke-width="0.470338" fill="#460B5E" transform="matrix(1.03543 0 0 1 384 753)"/><path d="M235.169 9.40677 257.745 9.40677 257.745 31.983 235.169 31.983Z" stroke="#444444" stroke-width="0.470338" fill="#3F4889" transform="matrix(1.03543 0 0 1 384 753)"/><path d="M257.745 9.40677 280.322 9.40677 280.322 31.983 257.745 31.983Z" stroke="#444444" stroke-width="0.470338" fill="#20928C" transform="matrix(1.03543 0 0 1 384 753)"/><path d="M280.322 9.40677 302.898 9.40677 302.898 31.983 280.322 31.983Z" stroke="#444444" stroke-width="0.470338" fill="#460A5D" transform="matrix(1.03543 0 0 1 384 753)"/><path d="M302.898 9.40677 325.474 9.40677 325.474 31.983 302.898 31.983Z" stroke="#444444" stroke-width="0.470338" fill="#414287" transform="matrix(1.03543 0 0 1 384 753)"/><path d="M325.474 9.40677 348.05 9.40677 348.05 31.983 325.474 31.983Z" stroke="#444444" stroke-width="0.470338" fill="#2FB47C" transform="matrix(1.03543 0 0 1 384 753)"/><path d="M348.05 9.40677 370.627 9.40677 370.627 31.983 348.05 31.983Z" stroke="#444444" stroke-width="0.470338" fill="#1E9B8A" transform="matrix(1.03543 0 0 1 384 753)"/><path d="M370.627 9.40677 393.203 9.40677 393.203 31.983 370.627 31.983Z" stroke="#444444" stroke-width="0.470338" fill="#3E4989" transform="matrix(1.03543 0 0 1 384 753)"/><path d="M393.203 9.40677 415.779 9.40677 415.779 31.983 393.203 31.983Z" stroke="#444444" stroke-width="0.470338" fill="#21A585" transform="matrix(1.03543 0 0 1 384 753)"/><path d="M415.779 9.40677 438.355 9.40677 438.355 31.983 415.779 31.983Z" stroke="#444444" stroke-width="0.470338" fill="#81D34D" transform="matrix(1.03543 0 0 1 384 753)"/><path d="M438.355 9.40677 460.932 9.40677 460.932 31.983 438.355 31.983Z" stroke="#444444" stroke-width="0.470338" fill="#440256" transform="matrix(1.03543 0 0 1 384 753)"/><path d="M9.40677 31.983 31.983 31.983 31.983 54.5592 9.40677 54.5592Z" stroke="#444444" stroke-width="0.470338" fill="#7FD34E" transform="matrix(1.03543 0 0 1 384 753)"/><path d="M31.983 31.983 54.5592 31.983 54.5592 54.5592 31.983 54.5592Z" stroke="#444444" stroke-width="0.470338" fill="#42BE71" transform="matrix(1.03543 0 0 1 384 753)"/><path d="M54.5592 31.983 77.1355 31.983 77.1355 54.5592 54.5592 54.5592Z" stroke="#444444" stroke-width="0.470338" fill="#306A8E" transform="matrix(1.03543 0 0 1 384 753)"/><path d="M77.1355 31.983 99.7117 31.983 99.7117 54.5592 77.1355 54.5592Z" stroke="#444444" stroke-width="0.470338" fill="#453581" transform="matrix(1.03543 0 0 1 384 753)"/><path d="M99.7117 31.983 122.288 31.983 122.288 54.5592 99.7117 54.5592Z" stroke="#444444" stroke-width="0.470338" fill="#E5E419" transform="matrix(1.03543 0 0 1 384 753)"/><path d="M122.288 31.983 144.864 31.983 144.864 54.5592 122.288 54.5592Z" stroke="#444444" stroke-width="0.470338" fill="#30698E" transform="matrix(1.03543 0 0 1 384 753)"/><path d="M144.864 31.983 167.44 31.983 167.44 54.5592 144.864 54.5592Z" stroke="#444444" stroke-width="0.470338" fill="#482173" transform="matrix(1.03543 0 0 1 384 753)"/><path d="M167.44 31.983 190.017 31.983 190.017 54.5592 167.44 54.5592Z" stroke="#444444" stroke-width="0.470338" fill="#482374" transform="matrix(1.03543 0 0 1 384 753)"/><path d="M190.017 31.983 212.593 31.983 212.593 54.5592 190.017 54.5592Z" stroke="#444444" stroke-width="0.470338" fill="#98D83E" transform="matrix(1.03543 0 0 1 384 753)"/><path d="M212.593 31.983 235.169 31.983 235.169 54.5592 212.593 54.5592Z" stroke="#444444" stroke-width="0.470338" fill="#23A983" transform="matrix(1.03543 0 0 1 384 753)"/><path d="M235.169 31.983 257.745 31.983 257.745 54.5592 235.169 54.5592Z" stroke="#444444" stroke-width="0.470338" fill="#7FD34E" transform="matrix(1.03543 0 0 1 384 753)"/><path d="M257.745 31.983 280.322 31.983 280.322 54.5592 257.745 54.5592Z" stroke="#444444" stroke-width="0.470338" fill="#52C569" transform="matrix(1.03543 0 0 1 384 753)"/><path d="M280.322 31.983 302.898 31.983 302.898 54.5592 280.322 54.5592Z" stroke="#444444" stroke-width="0.470338" fill="#1F998A" transform="matrix(1.03543 0 0 1 384 753)"/><path d="M302.898 31.983 325.474 31.983 325.474 54.5592 302.898 54.5592Z" stroke="#444444" stroke-width="0.470338" fill="#EFE51C" transform="matrix(1.03543 0 0 1 384 753)"/><path d="M325.474 31.983 348.05 31.983 348.05 54.5592 325.474 54.5592Z" stroke="#444444" stroke-width="0.470338" fill="#2C728E" transform="matrix(1.03543 0 0 1 384 753)"/><path d="M348.05 31.983 370.627 31.983 370.627 54.5592 348.05 54.5592Z" stroke="#444444" stroke-width="0.470338" fill="#1E9D89" transform="matrix(1.03543 0 0 1 384 753)"/><path d="M370.627 31.983 393.203 31.983 393.203 54.5592 370.627 54.5592Z" stroke="#444444" stroke-width="0.470338" fill="#8ED645" transform="matrix(1.03543 0 0 1 384 753)"/><path d="M393.203 31.983 415.779 31.983 415.779 54.5592 393.203 54.5592Z" stroke="#444444" stroke-width="0.470338" fill="#26AD81" transform="matrix(1.03543 0 0 1 384 753)"/><path d="M415.779 31.983 438.355 31.983 438.355 54.5592 415.779 54.5592Z" stroke="#444444" stroke-width="0.470338" fill="#A2DA37" transform="matrix(1.03543 0 0 1 384 753)"/><path d="M438.355 31.983 460.932 31.983 460.932 54.5592 438.355 54.5592Z" stroke="#444444" stroke-width="0.470338" fill="#1FA287" transform="matrix(1.03543 0 0 1 384 753)"/><path d="M9.40677 54.5592 31.983 54.5592 31.983 77.1355 9.40677 77.1355Z" stroke="#444444" stroke-width="0.470338" fill="#46C06F" transform="matrix(1.03543 0 0 1 384 753)"/><path d="M31.983 54.5592 54.5592 54.5592 54.5592 77.1355 31.983 77.1355Z" stroke="#444444" stroke-width="0.470338" fill="#471164" transform="matrix(1.03543 0 0 1 384 753)"/><path d="M54.5592 54.5592 77.1355 54.5592 77.1355 77.1355 54.5592 77.1355Z" stroke="#444444" stroke-width="0.470338" fill="#3E4C8A" transform="matrix(1.03543 0 0 1 384 753)"/><path d="M77.1355 54.5592 99.7117 54.5592 99.7117 77.1355 77.1355 77.1355Z" stroke="#444444" stroke-width="0.470338" fill="#365D8D" transform="matrix(1.03543 0 0 1 384 753)"/><path d="M99.7117 54.5592 122.288 54.5592 122.288 77.1355 99.7117 77.1355Z" stroke="#444444" stroke-width="0.470338" fill="#481D6F" transform="matrix(1.03543 0 0 1 384 753)"/><path d="M122.288 54.5592 144.864 54.5592 144.864 77.1355 122.288 77.1355Z" stroke="#444444" stroke-width="0.470338" fill="#3D4D8A" transform="matrix(1.03543 0 0 1 384 753)"/><path d="M144.864 54.5592 167.44 54.5592 167.44 77.1355 144.864 77.1355Z" stroke="#444444" stroke-width="0.470338" fill="#482475" transform="matrix(1.03543 0 0 1 384 753)"/><path d="M167.44 54.5592 190.017 54.5592 190.017 77.1355 167.44 77.1355Z" stroke="#444444" stroke-width="0.470338" fill="#375A8C" transform="matrix(1.03543 0 0 1 384 753)"/><path d="M190.017 54.5592 212.593 54.5592 212.593 77.1355 190.017 77.1355Z" stroke="#444444" stroke-width="0.470338" fill="#2AB07F" transform="matrix(1.03543 0 0 1 384 753)"/><path d="M212.593 54.5592 235.169 54.5592 235.169 77.1355 212.593 77.1355Z" stroke="#444444" stroke-width="0.470338" fill="#2D708E" transform="matrix(1.03543 0 0 1 384 753)"/><path d="M235.169 54.5592 257.745 54.5592 257.745 77.1355 235.169 77.1355Z" stroke="#444444" stroke-width="0.470338" fill="#2D718E" transform="matrix(1.03543 0 0 1 384 753)"/><path d="M257.745 54.5592 280.322 54.5592 280.322 77.1355 257.745 77.1355Z" stroke="#444444" stroke-width="0.470338" fill="#404688" transform="matrix(1.03543 0 0 1 384 753)"/><path d="M280.322 54.5592 302.898 54.5592 302.898 77.1355 280.322 77.1355Z" stroke="#444444" stroke-width="0.470338" fill="#39568C" transform="matrix(1.03543 0 0 1 384 753)"/><path d="M302.898 54.5592 325.474 54.5592 325.474 77.1355 302.898 77.1355Z" stroke="#444444" stroke-width="0.470338" fill="#D5E21A" transform="matrix(1.03543 0 0 1 384 753)"/><path d="M325.474 54.5592 348.05 54.5592 348.05 77.1355 325.474 77.1355Z" stroke="#444444" stroke-width="0.470338" fill="#2EB37C" transform="matrix(1.03543 0 0 1 384 753)"/><path d="M348.05 54.5592 370.627 54.5592 370.627 77.1355 348.05 77.1355Z" stroke="#444444" stroke-width="0.470338" fill="#24AA83" transform="matrix(1.03543 0 0 1 384 753)"/><path d="M370.627 54.5592 393.203 54.5592 393.203 77.1355 370.627 77.1355Z" stroke="#444444" stroke-width="0.470338" fill="#443A83" transform="matrix(1.03543 0 0 1 384 753)"/><path d="M393.203 54.5592 415.779 54.5592 415.779 77.1355 393.203 77.1355Z" stroke="#444444" stroke-width="0.470338" fill="#52C569" transform="matrix(1.03543 0 0 1 384 753)"/><path d="M415.779 54.5592 438.355 54.5592 438.355 77.1355 415.779 77.1355Z" stroke="#444444" stroke-width="0.470338" fill="#453882" transform="matrix(1.03543 0 0 1 384 753)"/><path d="M438.355 54.5592 460.932 54.5592 460.932 77.1355 438.355 77.1355Z" stroke="#444444" stroke-width="0.470338" fill="#2C738E" transform="matrix(1.03543 0 0 1 384 753)"/><path d="M9.40677 77.1355 31.983 77.1355 31.983 99.7117 9.40677 99.7117Z" stroke="#444444" stroke-width="0.470338" fill="#F8E621" transform="matrix(1.03543 0 0 1 384 753)"/><path d="M31.983 77.1355 54.5592 77.1355 54.5592 99.7117 31.983 99.7117Z" stroke="#444444" stroke-width="0.470338" fill="#2CB17E" transform="matrix(1.03543 0 0 1 384 753)"/><path d="M54.5592 77.1355 77.1355 77.1355 77.1355 99.7117 54.5592 99.7117Z" stroke="#444444" stroke-width="0.470338" fill="#1F9E89" transform="matrix(1.03543 0 0 1 384 753)"/><path d="M77.1355 77.1355 99.7117 77.1355 99.7117 99.7117 77.1355 99.7117Z" stroke="#444444" stroke-width="0.470338" fill="#3DBC74" transform="matrix(1.03543 0 0 1 384 753)"/><path d="M99.7117 77.1355 122.288 77.1355 122.288 99.7117 99.7117 99.7117Z" stroke="#444444" stroke-width="0.470338" fill="#95D840" transform="matrix(1.03543 0 0 1 384 753)"/><path d="M122.288 77.1355 144.864 77.1355 144.864 99.7117 122.288 99.7117Z" stroke="#444444" stroke-width="0.470338" fill="#6CCD5A" transform="matrix(1.03543 0 0 1 384 753)"/><path d="M144.864 77.1355 167.44 77.1355 167.44 99.7117 144.864 99.7117Z" stroke="#444444" stroke-width="0.470338" fill="#3E4C8A" transform="matrix(1.03543 0 0 1 384 753)"/><path d="M167.44 77.1355 190.017 77.1355 190.017 99.7117 167.44 99.7117Z" stroke="#444444" stroke-width="0.470338" fill="#470D60" transform="matrix(1.03543 0 0 1 384 753)"/><path d="M190.017 77.1355 212.593 77.1355 212.593 99.7117 190.017 99.7117Z" stroke="#444444" stroke-width="0.470338" fill="#33638D" transform="matrix(1.03543 0 0 1 384 753)"/><path d="M212.593 77.1355 235.169 77.1355 235.169 99.7117 212.593 99.7117Z" stroke="#444444" stroke-width="0.470338" fill="#39568C" transform="matrix(1.03543 0 0 1 384 753)"/><path d="M235.169 77.1355 257.745 77.1355 257.745 99.7117 235.169 99.7117Z" stroke="#444444" stroke-width="0.470338" fill="#3F4788" transform="matrix(1.03543 0 0 1 384 753)"/><path d="M257.745 77.1355 280.322 77.1355 280.322 99.7117 257.745 99.7117Z" stroke="#444444" stroke-width="0.470338" fill="#DAE319" transform="matrix(1.03543 0 0 1 384 753)"/><path d="M280.322 77.1355 302.898 77.1355 302.898 99.7117 280.322 99.7117Z" stroke="#444444" stroke-width="0.470338" fill="#ADDC30" transform="matrix(1.03543 0 0 1 384 753)"/><path d="M302.898 77.1355 325.474 77.1355 325.474 99.7117 302.898 99.7117Z" stroke="#444444" stroke-width="0.470338" fill="#33638D" transform="matrix(1.03543 0 0 1 384 753)"/><path d="M325.474 77.1355 348.05 77.1355 348.05 99.7117 325.474 99.7117Z" stroke="#444444" stroke-width="0.470338" fill="#31B57B" transform="matrix(1.03543 0 0 1 384 753)"/><path d="M348.05 77.1355 370.627 77.1355 370.627 99.7117 348.05 99.7117Z" stroke="#444444" stroke-width="0.470338" fill="#2A778E" transform="matrix(1.03543 0 0 1 384 753)"/><path d="M370.627 77.1355 393.203 77.1355 393.203 99.7117 370.627 99.7117Z" stroke="#444444" stroke-width="0.470338" fill="#C8E020" transform="matrix(1.03543 0 0 1 384 753)"/><path d="M393.203 77.1355 415.779 77.1355 415.779 99.7117 393.203 99.7117Z" stroke="#444444" stroke-width="0.470338" fill="#24868E" transform="matrix(1.03543 0 0 1 384 753)"/><path d="M415.779 77.1355 438.355 77.1355 438.355 99.7117 415.779 99.7117Z" stroke="#444444" stroke-width="0.470338" fill="#39558C" transform="matrix(1.03543 0 0 1 384 753)"/><path d="M438.355 77.1355 460.932 77.1355 460.932 99.7117 438.355 99.7117Z" stroke="#444444" stroke-width="0.470338" fill="#3B518B" transform="matrix(1.03543 0 0 1 384 753)"/><path d="M9.40677 99.7117 31.983 99.7117 31.983 122.288 9.40677 122.288Z" stroke="#444444" stroke-width="0.470338" fill="#1F9F88" transform="matrix(1.03543 0 0 1 384 753)"/><path d="M31.983 99.7117 54.5592 99.7117 54.5592 122.288 31.983 122.288Z" stroke="#444444" stroke-width="0.470338" fill="#39558C" transform="matrix(1.03543 0 0 1 384 753)"/><path d="M54.5592 99.7117 77.1355 99.7117 77.1355 122.288 54.5592 122.288Z" stroke="#444444" stroke-width="0.470338" fill="#20A486" transform="matrix(1.03543 0 0 1 384 753)"/><path d="M77.1355 99.7117 99.7117 99.7117 99.7117 122.288 77.1355 122.288Z" stroke="#444444" stroke-width="0.470338" fill="#BADE28" transform="matrix(1.03543 0 0 1 384 753)"/><path d="M99.7117 99.7117 122.288 99.7117 122.288 122.288 99.7117 122.288Z" stroke="#444444" stroke-width="0.470338" fill="#2A788E" transform="matrix(1.03543 0 0 1 384 753)"/><path d="M122.288 99.7117 144.864 99.7117 144.864 122.288 122.288 122.288Z" stroke="#444444" stroke-width="0.470338" fill="#3E4989" transform="matrix(1.03543 0 0 1 384 753)"/><path d="M144.864 99.7117 167.44 99.7117 167.44 122.288 144.864 122.288Z" stroke="#444444" stroke-width="0.470338" fill="#FDE725" transform="matrix(1.03543 0 0 1 384 753)"/><path d="M167.44 99.7117 190.017 99.7117 190.017 122.288 167.44 122.288Z" stroke="#444444" stroke-width="0.470338" fill="#20928C" transform="matrix(1.03543 0 0 1 384 753)"/><path d="M190.017 99.7117 212.593 99.7117 212.593 122.288 190.017 122.288Z" stroke="#444444" stroke-width="0.470338" fill="#482173" transform="matrix(1.03543 0 0 1 384 753)"/><path d="M212.593 99.7117 235.169 99.7117 235.169 122.288 212.593 122.288Z" stroke="#444444" stroke-width="0.470338" fill="#471365" transform="matrix(1.03543 0 0 1 384 753)"/><path d="M235.169 99.7117 257.745 99.7117 257.745 122.288 235.169 122.288Z" stroke="#444444" stroke-width="0.470338" fill="#482878" transform="matrix(1.03543 0 0 1 384 753)"/><path d="M257.745 99.7117 280.322 99.7117 280.322 122.288 257.745 122.288Z" stroke="#444444" stroke-width="0.470338" fill="#28AE80" transform="matrix(1.03543 0 0 1 384 753)"/><path d="M280.322 99.7117 302.898 99.7117 302.898 122.288 280.322 122.288Z" stroke="#444444" stroke-width="0.470338" fill="#75D054" transform="matrix(1.03543 0 0 1 384 753)"/><path d="M302.898 99.7117 325.474 99.7117 325.474 122.288 302.898 122.288Z" stroke="#444444" stroke-width="0.470338" fill="#277E8E" transform="matrix(1.03543 0 0 1 384 753)"/><path d="M325.474 99.7117 348.05 99.7117 348.05 122.288 325.474 122.288Z" stroke="#444444" stroke-width="0.470338" fill="#48186A" transform="matrix(1.03543 0 0 1 384 753)"/><path d="M348.05 99.7117 370.627 99.7117 370.627 122.288 348.05 122.288Z" stroke="#444444" stroke-width="0.470338" fill="#2C738E" transform="matrix(1.03543 0 0 1 384 753)"/><path d="M370.627 99.7117 393.203 99.7117 393.203 122.288 370.627 122.288Z" stroke="#444444" stroke-width="0.470338" fill="#FDE725" transform="matrix(1.03543 0 0 1 384 753)"/><path d="M393.203 99.7117 415.779 99.7117 415.779 122.288 393.203 122.288Z" stroke="#444444" stroke-width="0.470338" fill="#1F978B" transform="matrix(1.03543 0 0 1 384 753)"/><path d="M415.779 99.7117 438.355 99.7117 438.355 122.288 415.779 122.288Z" stroke="#444444" stroke-width="0.470338" fill="#ECE51B" transform="matrix(1.03543 0 0 1 384 753)"/><path d="M438.355 99.7117 460.932 99.7117 460.932 122.288 438.355 122.288Z" stroke="#444444" stroke-width="0.470338" fill="#A2DA37" transform="matrix(1.03543 0 0 1 384 753)"/><path d="M9.40677 122.288 31.983 122.288 31.983 144.864 9.40677 144.864Z" stroke="#444444" stroke-width="0.470338" fill="#450457" transform="matrix(1.03543 0 0 1 384 753)"/><path d="M31.983 122.288 54.5592 122.288 54.5592 144.864 31.983 144.864Z" stroke="#444444" stroke-width="0.470338" fill="#4EC36B" transform="matrix(1.03543 0 0 1 384 753)"/><path d="M54.5592 122.288 77.1355 122.288 77.1355 144.864 54.5592 144.864Z" stroke="#444444" stroke-width="0.470338" fill="#3BBB75" transform="matrix(1.03543 0 0 1 384 753)"/><path d="M77.1355 122.288 99.7117 122.288 99.7117 144.864 77.1355 144.864Z" stroke="#444444" stroke-width="0.470338" fill="#1F998A" transform="matrix(1.03543 0 0 1 384 753)"/><path d="M99.7117 122.288 122.288 122.288 122.288 144.864 99.7117 144.864Z" stroke="#444444" stroke-width="0.470338" fill="#39568C" transform="matrix(1.03543 0 0 1 384 753)"/><path d="M122.288 122.288 144.864 122.288 144.864 144.864 122.288 144.864Z" stroke="#444444" stroke-width="0.470338" fill="#2DB27D" transform="matrix(1.03543 0 0 1 384 753)"/><path d="M144.864 122.288 167.44 122.288 167.44 144.864 144.864 144.864Z" stroke="#444444" stroke-width="0.470338" fill="#482878" transform="matrix(1.03543 0 0 1 384 753)"/><path d="M167.44 122.288 190.017 122.288 190.017 144.864 167.44 144.864Z" stroke="#444444" stroke-width="0.470338" fill="#26818E" transform="matrix(1.03543 0 0 1 384 753)"/><path d="M190.017 122.288 212.593 122.288 212.593 144.864 190.017 144.864Z" stroke="#444444" stroke-width="0.470338" fill="#25858E" transform="matrix(1.03543 0 0 1 384 753)"/><path d="M212.593 122.288 235.169 122.288 235.169 144.864 212.593 144.864Z" stroke="#444444" stroke-width="0.470338" fill="#E2E418" transform="matrix(1.03543 0 0 1 384 753)"/><path d="M235.169 122.288 257.745 122.288 257.745 144.864 235.169 144.864Z" stroke="#444444" stroke-width="0.470338" fill="#ADDC30" transform="matrix(1.03543 0 0 1 384 753)"/><path d="M257.745 122.288 280.322 122.288 280.322 144.864 257.745 144.864Z" stroke="#444444" stroke-width="0.470338" fill="#39558C" transform="matrix(1.03543 0 0 1 384 753)"/><path d="M280.322 122.288 302.898 122.288 302.898 144.864 280.322 144.864Z" stroke="#444444" stroke-width="0.470338" fill="#21918C" transform="matrix(1.03543 0 0 1 384 753)"/><path d="M302.898 122.288 325.474 122.288 325.474 144.864 302.898 144.864Z" stroke="#444444" stroke-width="0.470338" fill="#433D84" transform="matrix(1.03543 0 0 1 384 753)"/><path d="M325.474 122.288 348.05 122.288 348.05 144.864 325.474 144.864Z" stroke="#444444" stroke-width="0.470338" fill="#C5E021" transform="matrix(1.03543 0 0 1 384 753)"/><path d="M348.05 122.288 370.627 122.288 370.627 144.864 348.05 144.864Z" stroke="#444444" stroke-width="0.470338" fill="#A8DB34" transform="matrix(1.03543 0 0 1 384 753)"/><path d="M370.627 122.288 393.203 122.288 393.203 144.864 370.627 144.864Z" stroke="#444444" stroke-width="0.470338" fill="#355F8D" transform="matrix(1.03543 0 0 1 384 753)"/><path d="M393.203 122.288 415.779 122.288 415.779 144.864 393.203 144.864Z" stroke="#444444" stroke-width="0.470338" fill="#2CB17E" transform="matrix(1.03543 0 0 1 384 753)"/><path d="M415.779 122.288 438.355 122.288 438.355 144.864 415.779 144.864Z" stroke="#444444" stroke-width="0.470338" fill="#24AA83" transform="matrix(1.03543 0 0 1 384 753)"/><path d="M438.355 122.288 460.932 122.288 460.932 144.864 438.355 144.864Z" stroke="#444444" stroke-width="0.470338" fill="#453581" transform="matrix(1.03543 0 0 1 384 753)"/><path d="M9.40677 144.864 31.983 144.864 31.983 167.44 9.40677 167.44Z" stroke="#444444" stroke-width="0.470338" fill="#65CB5E" transform="matrix(1.03543 0 0 1 384 753)"/><path d="M31.983 144.864 54.5592 144.864 54.5592 167.44 31.983 167.44Z" stroke="#444444" stroke-width="0.470338" fill="#1F9A8A" transform="matrix(1.03543 0 0 1 384 753)"/><path d="M54.5592 144.864 77.1355 144.864 77.1355 167.44 54.5592 167.44Z" stroke="#444444" stroke-width="0.470338" fill="#6ECE58" transform="matrix(1.03543 0 0 1 384 753)"/><path d="M77.1355 144.864 99.7117 144.864 99.7117 167.44 77.1355 167.44Z" stroke="#444444" stroke-width="0.470338" fill="#1F978B" transform="matrix(1.03543 0 0 1 384 753)"/><path d="M99.7117 144.864 122.288 144.864 122.288 167.44 99.7117 167.44Z" stroke="#444444" stroke-width="0.470338" fill="#440154" transform="matrix(1.03543 0 0 1 384 753)"/><path d="M122.288 144.864 144.864 144.864 144.864 167.44 122.288 167.44Z" stroke="#444444" stroke-width="0.470338" fill="#32658E" transform="matrix(1.03543 0 0 1 384 753)"/><path d="M144.864 144.864 167.44 144.864 167.44 167.44 144.864 167.44Z" stroke="#444444" stroke-width="0.470338" fill="#46075A" transform="matrix(1.03543 0 0 1 384 753)"/><path d="M167.44 144.864 190.017 144.864 190.017 167.44 167.44 167.44Z" stroke="#444444" stroke-width="0.470338" fill="#D0E11C" transform="matrix(1.03543 0 0 1 384 753)"/><path d="M190.017 144.864 212.593 144.864 212.593 167.44 190.017 167.44Z" stroke="#444444" stroke-width="0.470338" fill="#ADDC30" transform="matrix(1.03543 0 0 1 384 753)"/><path d="M212.593 144.864 235.169 144.864 235.169 167.44 212.593 167.44Z" stroke="#444444" stroke-width="0.470338" fill="#8ED645" transform="matrix(1.03543 0 0 1 384 753)"/><path d="M235.169 144.864 257.745 144.864 257.745 167.44 235.169 167.44Z" stroke="#444444" stroke-width="0.470338" fill="#34618D" transform="matrix(1.03543 0 0 1 384 753)"/><path d="M257.745 144.864 280.322 144.864 280.322 167.44 257.745 167.44Z" stroke="#444444" stroke-width="0.470338" fill="#481668" transform="matrix(1.03543 0 0 1 384 753)"/><path d="M280.322 144.864 302.898 144.864 302.898 167.44 280.322 167.44Z" stroke="#444444" stroke-width="0.470338" fill="#ADDC30" transform="matrix(1.03543 0 0 1 384 753)"/><path d="M302.898 144.864 325.474 144.864 325.474 167.44 302.898 167.44Z" stroke="#444444" stroke-width="0.470338" fill="#DDE318" transform="matrix(1.03543 0 0 1 384 753)"/><path d="M325.474 144.864 348.05 144.864 348.05 167.44 325.474 167.44Z" stroke="#444444" stroke-width="0.470338" fill="#481F70" transform="matrix(1.03543 0 0 1 384 753)"/><path d="M348.05 144.864 370.627 144.864 370.627 167.44 348.05 167.44Z" stroke="#444444" stroke-width="0.470338" fill="#228D8D" transform="matrix(1.03543 0 0 1 384 753)"/><path d="M370.627 144.864 393.203 144.864 393.203 167.44 370.627 167.44Z" stroke="#444444" stroke-width="0.470338" fill="#481A6C" transform="matrix(1.03543 0 0 1 384 753)"/><path d="M393.203 144.864 415.779 144.864 415.779 167.44 393.203 167.44Z" stroke="#444444" stroke-width="0.470338" fill="#63CB5F" transform="matrix(1.03543 0 0 1 384 753)"/><path d="M415.779 144.864 438.355 144.864 438.355 167.44 415.779 167.44Z" stroke="#444444" stroke-width="0.470338" fill="#67CC5C" transform="matrix(1.03543 0 0 1 384 753)"/><path d="M438.355 144.864 460.932 144.864 460.932 167.44 438.355 167.44Z" stroke="#444444" stroke-width="0.470338" fill="#472D7B" transform="matrix(1.03543 0 0 1 384 753)"/><path d="M9.40677 167.44 31.983 167.44 31.983 190.017 9.40677 190.017Z" stroke="#444444" stroke-width="0.470338" fill="#238A8D" transform="matrix(1.03543 0 0 1 384 753)"/><path d="M31.983 167.44 54.5592 167.44 54.5592 190.017 31.983 190.017Z" stroke="#444444" stroke-width="0.470338" fill="#1E9C89" transform="matrix(1.03543 0 0 1 384 753)"/><path d="M54.5592 167.44 77.1355 167.44 77.1355 190.017 54.5592 190.017Z" stroke="#444444" stroke-width="0.470338" fill="#39558C" transform="matrix(1.03543 0 0 1 384 753)"/><path d="M77.1355 167.44 99.7117 167.44 99.7117 190.017 77.1355 190.017Z" stroke="#444444" stroke-width="0.470338" fill="#AADC32" transform="matrix(1.03543 0 0 1 384 753)"/><path d="M99.7117 167.44 122.288 167.44 122.288 190.017 99.7117 190.017Z" stroke="#444444" stroke-width="0.470338" fill="#277E8E" transform="matrix(1.03543 0 0 1 384 753)"/><path d="M122.288 167.44 144.864 167.44 144.864 190.017 122.288 190.017Z" stroke="#444444" stroke-width="0.470338" fill="#3F4788" transform="matrix(1.03543 0 0 1 384 753)"/><path d="M144.864 167.44 167.44 167.44 167.44 190.017 144.864 190.017Z" stroke="#444444" stroke-width="0.470338" fill="#1F9A8A" transform="matrix(1.03543 0 0 1 384 753)"/><path d="M167.44 167.44 190.017 167.44 190.017 190.017 167.44 190.017Z" stroke="#444444" stroke-width="0.470338" fill="#52C569" transform="matrix(1.03543 0 0 1 384 753)"/><path d="M190.017 167.44 212.593 167.44 212.593 190.017 190.017 190.017Z" stroke="#444444" stroke-width="0.470338" fill="#414487" transform="matrix(1.03543 0 0 1 384 753)"/><path d="M212.593 167.44 235.169 167.44 235.169 190.017 212.593 190.017Z" stroke="#444444" stroke-width="0.470338" fill="#33628D" transform="matrix(1.03543 0 0 1 384 753)"/><path d="M235.169 167.44 257.745 167.44 257.745 190.017 235.169 190.017Z" stroke="#444444" stroke-width="0.470338" fill="#FBE723" transform="matrix(1.03543 0 0 1 384 753)"/><path d="M257.745 167.44 280.322 167.44 280.322 190.017 257.745 190.017Z" stroke="#444444" stroke-width="0.470338" fill="#2FB47C" transform="matrix(1.03543 0 0 1 384 753)"/><path d="M280.322 167.44 302.898 167.44 302.898 190.017 280.322 190.017Z" stroke="#444444" stroke-width="0.470338" fill="#26828E" transform="matrix(1.03543 0 0 1 384 753)"/><path d="M302.898 167.44 325.474 167.44 325.474 190.017 302.898 190.017Z" stroke="#444444" stroke-width="0.470338" fill="#1F948C" transform="matrix(1.03543 0 0 1 384 753)"/><path d="M325.474 167.44 348.05 167.44 348.05 190.017 325.474 190.017Z" stroke="#444444" stroke-width="0.470338" fill="#472A7A" transform="matrix(1.03543 0 0 1 384 753)"/><path d="M348.05 167.44 370.627 167.44 370.627 190.017 348.05 190.017Z" stroke="#444444" stroke-width="0.470338" fill="#3E4A89" transform="matrix(1.03543 0 0 1 384 753)"/><path d="M370.627 167.44 393.203 167.44 393.203 190.017 370.627 190.017Z" stroke="#444444" stroke-width="0.470338" fill="#30698E" transform="matrix(1.03543 0 0 1 384 753)"/><path d="M393.203 167.44 415.779 167.44 415.779 190.017 393.203 190.017Z" stroke="#444444" stroke-width="0.470338" fill="#21A585" transform="matrix(1.03543 0 0 1 384 753)"/><path d="M415.779 167.44 438.355 167.44 438.355 190.017 415.779 190.017Z" stroke="#444444" stroke-width="0.470338" fill="#3E4C8A" transform="matrix(1.03543 0 0 1 384 753)"/><path d="M438.355 167.44 460.932 167.44 460.932 190.017 438.355 190.017Z" stroke="#444444" stroke-width="0.470338" fill="#3E4989" transform="matrix(1.03543 0 0 1 384 753)"/><path d="M9.40677 190.017 31.983 190.017 31.983 212.593 9.40677 212.593Z" stroke="#444444" stroke-width="0.470338" fill="#481B6D" transform="matrix(1.03543 0 0 1 384 753)"/><path d="M31.983 190.017 54.5592 190.017 54.5592 212.593 31.983 212.593Z" stroke="#444444" stroke-width="0.470338" fill="#29AF7F" transform="matrix(1.03543 0 0 1 384 753)"/><path d="M54.5592 190.017 77.1355 190.017 77.1355 212.593 54.5592 212.593Z" stroke="#444444" stroke-width="0.470338" fill="#3E4C8A" transform="matrix(1.03543 0 0 1 384 753)"/><path d="M77.1355 190.017 99.7117 190.017 99.7117 212.593 77.1355 212.593Z" stroke="#444444" stroke-width="0.470338" fill="#C0DF25" transform="matrix(1.03543 0 0 1 384 753)"/><path d="M99.7117 190.017 122.288 190.017 122.288 212.593 99.7117 212.593Z" stroke="#444444" stroke-width="0.470338" fill="#A2DA37" transform="matrix(1.03543 0 0 1 384 753)"/><path d="M122.288 190.017 144.864 190.017 144.864 212.593 122.288 212.593Z" stroke="#444444" stroke-width="0.470338" fill="#481B6D" transform="matrix(1.03543 0 0 1 384 753)"/><path d="M144.864 190.017 167.44 190.017 167.44 212.593 144.864 212.593Z" stroke="#444444" stroke-width="0.470338" fill="#3D4E8A" transform="matrix(1.03543 0 0 1 384 753)"/><path d="M167.44 190.017 190.017 190.017 190.017 212.593 167.44 212.593Z" stroke="#444444" stroke-width="0.470338" fill="#37B878" transform="matrix(1.03543 0 0 1 384 753)"/><path d="M190.017 190.017 212.593 190.017 212.593 212.593 190.017 212.593Z" stroke="#444444" stroke-width="0.470338" fill="#3F4788" transform="matrix(1.03543 0 0 1 384 753)"/><path d="M212.593 190.017 235.169 190.017 235.169 212.593 212.593 212.593Z" stroke="#444444" stroke-width="0.470338" fill="#472E7C" transform="matrix(1.03543 0 0 1 384 753)"/><path d="M235.169 190.017 257.745 190.017 257.745 212.593 235.169 212.593Z" stroke="#444444" stroke-width="0.470338" fill="#D5E21A" transform="matrix(1.03543 0 0 1 384 753)"/><path d="M257.745 190.017 280.322 190.017 280.322 212.593 257.745 212.593Z" stroke="#444444" stroke-width="0.470338" fill="#1FA187" transform="matrix(1.03543 0 0 1 384 753)"/><path d="M280.322 190.017 302.898 190.017 302.898 212.593 280.322 212.593Z" stroke="#444444" stroke-width="0.470338" fill="#238A8D" transform="matrix(1.03543 0 0 1 384 753)"/><path d="M302.898 190.017 325.474 190.017 325.474 212.593 302.898 212.593Z" stroke="#444444" stroke-width="0.470338" fill="#70CF57" transform="matrix(1.03543 0 0 1 384 753)"/><path d="M325.474 190.017 348.05 190.017 348.05 212.593 325.474 212.593Z" stroke="#444444" stroke-width="0.470338" fill="#7FD34E" transform="matrix(1.03543 0 0 1 384 753)"/><path d="M348.05 190.017 370.627 190.017 370.627 212.593 348.05 212.593Z" stroke="#444444" stroke-width="0.470338" fill="#424086" transform="matrix(1.03543 0 0 1 384 753)"/><path d="M370.627 190.017 393.203 190.017 393.203 212.593 370.627 212.593Z" stroke="#444444" stroke-width="0.470338" fill="#482374" transform="matrix(1.03543 0 0 1 384 753)"/><path d="M393.203 190.017 415.779 190.017 415.779 212.593 393.203 212.593Z" stroke="#444444" stroke-width="0.470338" fill="#27808E" transform="matrix(1.03543 0 0 1 384 753)"/><path d="M415.779 190.017 438.355 190.017 438.355 212.593 415.779 212.593Z" stroke="#444444" stroke-width="0.470338" fill="#277E8E" transform="matrix(1.03543 0 0 1 384 753)"/><path d="M438.355 190.017 460.932 190.017 460.932 212.593 438.355 212.593Z" stroke="#444444" stroke-width="0.470338" fill="#23888E" transform="matrix(1.03543 0 0 1 384 753)"/></g></g></g><path d="M0 0 52.5716 0.668734" stroke="#000000" stroke-width="3.4375" stroke-linejoin="round" stroke-miterlimit="10" fill="none" fill-rule="evenodd" transform="matrix(-1 0 0 1 916.072 862.5)"/><g clip-path="url(#clip4)"><g clip-path="url(#clip5)"><g clip-path="url(#clip6)"><path d="M0 0 41.1529 0 41.1529 220.729 0 220.729Z" fill="#FFFFFF" transform="matrix(1.02712 0 0 1 1627.88 685.762)"/><path d="M9.35292 9.35292 31.7999 9.35292 31.7999 31.7999 9.35292 31.7999Z" stroke="#444444" stroke-width="0.467646" fill="#DEF2D9" transform="matrix(1.02712 0 0 1 1627.88 685.762)"/><path d="M9.35292 31.7999 31.7999 31.7999 31.7999 54.247 9.35292 54.247Z" stroke="#444444" stroke-width="0.467646" fill="#91D28E" transform="matrix(1.02712 0 0 1 1627.88 685.762)"/><path d="M9.35292 54.247 31.7999 54.247 31.7999 76.694 9.35292 76.694Z" stroke="#444444" stroke-width="0.467646" fill="#EBF7E7" transform="matrix(1.02712 0 0 1 1627.88 685.762)"/><path d="M9.35292 76.694 31.7999 76.694 31.7999 99.141 9.35292 99.141Z" stroke="#444444" stroke-width="0.467646" fill="#DDF2D8" transform="matrix(1.02712 0 0 1 1627.88 685.762)"/><path d="M9.35292 99.141 31.7999 99.141 31.7999 121.588 9.35292 121.588Z" stroke="#444444" stroke-width="0.467646" fill="#53B466" transform="matrix(1.02712 0 0 1 1627.88 685.762)"/><path d="M9.35292 121.588 31.7999 121.588 31.7999 144.035 9.35292 144.035Z" stroke="#444444" stroke-width="0.467646" fill="#A5DB9F" transform="matrix(1.02712 0 0 1 1627.88 685.762)"/><path d="M9.35292 144.035 31.7999 144.035 31.7999 166.482 9.35292 166.482Z" stroke="#444444" stroke-width="0.467646" fill="#94D390" transform="matrix(1.02712 0 0 1 1627.88 685.762)"/><path d="M9.35292 166.482 31.7999 166.482 31.7999 188.929 9.35292 188.929Z" stroke="#444444" stroke-width="0.467646" fill="#DBF1D6" transform="matrix(1.02712 0 0 1 1627.88 685.762)"/><path d="M9.35292 188.929 31.7999 188.929 31.7999 211.376 9.35292 211.376Z" stroke="#444444" stroke-width="0.467646" fill="#0E7936" transform="matrix(1.02712 0 0 1 1627.88 685.762)"/></g></g></g><path d="M1650.22 900.5 1650.22 952.935 1646.78 952.935 1646.78 900.5ZM1662.25 948.352 1648.5 975.852 1634.75 948.352Z"/><path d="M1651.22 537.5 1651.22 589.935 1647.78 589.935 1647.78 537.5ZM1663.25 585.352 1649.5 612.852 1635.75 585.352Z"/><g clip-path="url(#clip7)"><g clip-path="url(#clip8)"><g clip-path="url(#clip9)"><path d="M0 0 40.6261 0 40.6261 217.904 0 217.904Z" fill="#FFFFFF" transform="matrix(1 0 0 1.0152 1627.88 323.406)"/><path d="M9.23321 9.23321 31.3929 9.23321 31.3929 31.3929 9.23321 31.3929Z" stroke="#444444" stroke-width="0.461661" fill="#F1EFF6" transform="matrix(1 0 0 1.0152 1627.88 323.406)"/><path d="M9.23321 31.3929 31.3929 31.3929 31.3929 53.5526 9.23321 53.5526Z" stroke="#444444" stroke-width="0.461661" fill="#51218C" transform="matrix(1 0 0 1.0152 1627.88 323.406)"/><path d="M9.23321 53.5526 31.3929 53.5526 31.3929 75.7123 9.23321 75.7123Z" stroke="#444444" stroke-width="0.461661" fill="#DBDBEC" transform="matrix(1 0 0 1.0152 1627.88 323.406)"/><path d="M9.23321 75.7123 31.3929 75.7123 31.3929 97.872 9.23321 97.872Z" stroke="#444444" stroke-width="0.461661" fill="#4D1A89" transform="matrix(1 0 0 1.0152 1627.88 323.406)"/><path d="M9.23321 97.872 31.3929 97.872 31.3929 120.032 9.23321 120.032Z" stroke="#444444" stroke-width="0.461661" fill="#53268F" transform="matrix(1 0 0 1.0152 1627.88 323.406)"/><path d="M9.23321 120.032 31.3929 120.032 31.3929 142.191 9.23321 142.191Z" stroke="#444444" stroke-width="0.461661" fill="#CECFE5" transform="matrix(1 0 0 1.0152 1627.88 323.406)"/><path d="M9.23321 142.191 31.3929 142.191 31.3929 164.351 9.23321 164.351Z" stroke="#444444" stroke-width="0.461661" fill="#9B97C6" transform="matrix(1 0 0 1.0152 1627.88 323.406)"/><path d="M9.23321 164.351 31.3929 164.351 31.3929 186.511 9.23321 186.511Z" stroke="#444444" stroke-width="0.461661" fill="#B2B2D5" transform="matrix(1 0 0 1.0152 1627.88 323.406)"/><path d="M9.23321 186.511 31.3929 186.511 31.3929 208.671 9.23321 208.671Z" stroke="#444444" stroke-width="0.461661" fill="#B0AFD4" transform="matrix(1 0 0 1.0152 1627.88 323.406)"/></g></g></g><path d="M1107.22 531.5 1107.22 583.935 1103.78 583.935 1103.78 531.5ZM1119.25 579.352 1105.5 606.852 1091.75 579.352Z"/><path d="M1109.22 892.5 1109.22 944.935 1105.78 944.935 1105.78 892.5ZM1121.25 940.352 1107.5 967.852 1093.75 940.352Z"/><g clip-path="url(#clip10)"><g clip-path="url(#clip11)"><g clip-path="url(#clip12)"><path d="M0 0 462.141 0 462.141 40.6684 0 40.6684Z" fill="#FFFFFF" transform="matrix(1.04039 0 0 1 919.221 857.547)"/><path d="M9.24282 9.24282 31.4256 9.24282 31.4256 31.4256 9.24282 31.4256Z" stroke="#444444" stroke-width="0.462141" fill="#DE5005" transform="matrix(1.04039 0 0 1 919.221 857.547)"/><path d="M31.4256 9.24282 53.6084 9.24282 53.6084 31.4256 31.4256 31.4256Z" stroke="#444444" stroke-width="0.462141" fill="#F16913" transform="matrix(1.04039 0 0 1 919.221 857.547)"/><path d="M53.6084 9.24282 75.7911 9.24282 75.7911 31.4256 53.6084 31.4256Z" stroke="#444444" stroke-width="0.462141" fill="#FDA159" transform="matrix(1.04039 0 0 1 919.221 857.547)"/><path d="M75.7911 9.24282 97.9739 9.24282 97.9739 31.4256 75.7911 31.4256Z" stroke="#444444" stroke-width="0.462141" fill="#FDD1A3" transform="matrix(1.04039 0 0 1 919.221 857.547)"/><path d="M97.9739 9.24282 120.157 9.24282 120.157 31.4256 97.9739 31.4256Z" stroke="#444444" stroke-width="0.462141" fill="#FFFFFF" transform="matrix(1.04039 0 0 1 919.221 857.547)"/><path d="M120.157 9.24282 142.339 9.24282 142.339 31.4256 120.157 31.4256Z" stroke="#444444" stroke-width="0.462141" fill="#A03403" transform="matrix(1.04039 0 0 1 919.221 857.547)"/><path d="M142.339 9.24282 164.522 9.24282 164.522 31.4256 142.339 31.4256Z" stroke="#444444" stroke-width="0.462141" fill="#FD9D53" transform="matrix(1.04039 0 0 1 919.221 857.547)"/><path d="M164.522 9.24282 186.705 9.24282 186.705 31.4256 164.522 31.4256Z" stroke="#444444" stroke-width="0.462141" fill="#C64102" transform="matrix(1.04039 0 0 1 919.221 857.547)"/><path d="M186.705 9.24282 208.888 9.24282 208.888 31.4256 186.705 31.4256Z" stroke="#444444" stroke-width="0.462141" fill="#FEE8D2" transform="matrix(1.04039 0 0 1 919.221 857.547)"/><path d="M208.888 9.24282 231.071 9.24282 231.071 31.4256 208.888 31.4256Z" stroke="#444444" stroke-width="0.462141" fill="#FB8735" transform="matrix(1.04039 0 0 1 919.221 857.547)"/><path d="M231.071 9.24282 253.253 9.24282 253.253 31.4256 231.071 31.4256Z" stroke="#444444" stroke-width="0.462141" fill="#FDD1A3" transform="matrix(1.04039 0 0 1 919.221 857.547)"/><path d="M253.253 9.24282 275.436 9.24282 275.436 31.4256 253.253 31.4256Z" stroke="#444444" stroke-width="0.462141" fill="#FFFFFF" transform="matrix(1.04039 0 0 1 919.221 857.547)"/><path d="M275.436 9.24282 297.619 9.24282 297.619 31.4256 275.436 31.4256Z" stroke="#444444" stroke-width="0.462141" fill="#F4721E" transform="matrix(1.04039 0 0 1 919.221 857.547)"/><path d="M297.619 9.24282 319.802 9.24282 319.802 31.4256 297.619 31.4256Z" stroke="#444444" stroke-width="0.462141" fill="#C54102" transform="matrix(1.04039 0 0 1 919.221 857.547)"/><path d="M319.802 9.24282 341.984 9.24282 341.984 31.4256 319.802 31.4256Z" stroke="#444444" stroke-width="0.462141" fill="#FB8836" transform="matrix(1.04039 0 0 1 919.221 857.547)"/><path d="M341.984 9.24282 364.167 9.24282 364.167 31.4256 341.984 31.4256Z" stroke="#444444" stroke-width="0.462141" fill="#C03F02" transform="matrix(1.04039 0 0 1 919.221 857.547)"/><path d="M364.167 9.24282 386.35 9.24282 386.35 31.4256 364.167 31.4256Z" stroke="#444444" stroke-width="0.462141" fill="#FDB475" transform="matrix(1.04039 0 0 1 919.221 857.547)"/><path d="M386.35 9.24282 408.533 9.24282 408.533 31.4256 386.35 31.4256Z" stroke="#444444" stroke-width="0.462141" fill="#FDDBB8" transform="matrix(1.04039 0 0 1 919.221 857.547)"/><path d="M408.533 9.24282 430.716 9.24282 430.716 31.4256 408.533 31.4256Z" stroke="#444444" stroke-width="0.462141" fill="#FFFFFF" transform="matrix(1.04039 0 0 1 919.221 857.547)"/><path d="M430.716 9.24282 452.898 9.24282 452.898 31.4256 430.716 31.4256Z" stroke="#444444" stroke-width="0.462141" fill="#E65A0B" transform="matrix(1.04039 0 0 1 919.221 857.547)"/></g></g></g><g clip-path="url(#clip13)"><g clip-path="url(#clip14)"><g clip-path="url(#clip15)"><path d="M0 0 461.818 0 461.818 40.64 0 40.64Z" fill="#FFFFFF" transform="matrix(1.04867 0 0 -1 913.803 538.779)"/><path d="M9.23636 9.23636 31.4036 9.23636 31.4036 31.4036 9.23636 31.4036Z" stroke="#444444" stroke-width="0.461818" fill="#549FCD" transform="matrix(1.04867 0 0 -1 913.803 538.779)"/><path d="M31.4036 9.23636 53.5709 9.23636 53.5709 31.4036 31.4036 31.4036Z" stroke="#444444" stroke-width="0.461818" fill="#C7DCEF" transform="matrix(1.04867 0 0 -1 913.803 538.779)"/><path d="M53.5709 9.23636 75.7382 9.23636 75.7382 31.4036 53.5709 31.4036Z" stroke="#444444" stroke-width="0.461818" fill="#FFFFFF" transform="matrix(1.04867 0 0 -1 913.803 538.779)"/><path d="M75.7382 9.23636 97.9054 9.23636 97.9054 31.4036 75.7382 31.4036Z" stroke="#444444" stroke-width="0.461818" fill="#0B559F" transform="matrix(1.04867 0 0 -1 913.803 538.779)"/><path d="M97.9054 9.23636 120.073 9.23636 120.073 31.4036 97.9054 31.4036Z" stroke="#444444" stroke-width="0.461818" fill="#77B5D9" transform="matrix(1.04867 0 0 -1 913.803 538.779)"/><path d="M120.073 9.23636 142.24 9.23636 142.24 31.4036 120.073 31.4036Z" stroke="#444444" stroke-width="0.461818" fill="#3E8EC4" transform="matrix(1.04867 0 0 -1 913.803 538.779)"/><path d="M142.24 9.23636 164.407 9.23636 164.407 31.4036 142.24 31.4036Z" stroke="#444444" stroke-width="0.461818" fill="#C3DAEE" transform="matrix(1.04867 0 0 -1 913.803 538.779)"/><path d="M164.407 9.23636 186.575 9.23636 186.575 31.4036 164.407 31.4036Z" stroke="#444444" stroke-width="0.461818" fill="#C1D9ED" transform="matrix(1.04867 0 0 -1 913.803 538.779)"/><path d="M186.575 9.23636 208.742 9.23636 208.742 31.4036 186.575 31.4036Z" stroke="#444444" stroke-width="0.461818" fill="#FFFFFF" transform="matrix(1.04867 0 0 -1 913.803 538.779)"/><path d="M208.742 9.23636 230.909 9.23636 230.909 31.4036 208.742 31.4036Z" stroke="#444444" stroke-width="0.461818" fill="#3888C1" transform="matrix(1.04867 0 0 -1 913.803 538.779)"/><path d="M230.909 9.23636 253.076 9.23636 253.076 31.4036 230.909 31.4036Z" stroke="#444444" stroke-width="0.461818" fill="#C3DAEE" transform="matrix(1.04867 0 0 -1 913.803 538.779)"/><path d="M253.076 9.23636 275.244 9.23636 275.244 31.4036 253.076 31.4036Z" stroke="#444444" stroke-width="0.461818" fill="#084B93" transform="matrix(1.04867 0 0 -1 913.803 538.779)"/><path d="M275.244 9.23636 297.411 9.23636 297.411 31.4036 275.244 31.4036Z" stroke="#444444" stroke-width="0.461818" fill="#DCE9F6" transform="matrix(1.04867 0 0 -1 913.803 538.779)"/><path d="M297.411 9.23636 319.578 9.23636 319.578 31.4036 297.411 31.4036Z" stroke="#444444" stroke-width="0.461818" fill="#C7DCEF" transform="matrix(1.04867 0 0 -1 913.803 538.779)"/><path d="M319.578 9.23636 341.745 9.23636 341.745 31.4036 319.578 31.4036Z" stroke="#444444" stroke-width="0.461818" fill="#D9E7F5" transform="matrix(1.04867 0 0 -1 913.803 538.779)"/><path d="M341.745 9.23636 363.913 9.23636 363.913 31.4036 341.745 31.4036Z" stroke="#444444" stroke-width="0.461818" fill="#FFFFFF" transform="matrix(1.04867 0 0 -1 913.803 538.779)"/><path d="M363.913 9.23636 386.08 9.23636 386.08 31.4036 363.913 31.4036Z" stroke="#444444" stroke-width="0.461818" fill="#99C7E0" transform="matrix(1.04867 0 0 -1 913.803 538.779)"/><path d="M386.08 9.23636 408.247 9.23636 408.247 31.4036 386.08 31.4036Z" stroke="#444444" stroke-width="0.461818" fill="#75B4D8" transform="matrix(1.04867 0 0 -1 913.803 538.779)"/><path d="M408.247 9.23636 430.414 9.23636 430.414 31.4036 408.247 31.4036Z" stroke="#444444" stroke-width="0.461818" fill="#A5CDE3" transform="matrix(1.04867 0 0 -1 913.803 538.779)"/><path d="M430.414 9.23636 452.582 9.23636 452.582 31.4036 430.414 31.4036Z" stroke="#444444" stroke-width="0.461818" fill="#4594C7" transform="matrix(1.04867 0 0 -1 913.803 538.779)"/></g></g></g><path d="M0 0 0.382546 329.594" stroke="#000000" stroke-width="3.4375" stroke-linejoin="round" stroke-miterlimit="10" fill="none" fill-rule="evenodd" transform="matrix(-1 0 0 1 2038.88 504.5)"/><path d="M1091.59 475.034 1099.39 475.034 1099.39 476.065C1098.9 476.159 1098.54 476.3 1098.31 476.487 1098.08 476.675 1097.97 476.956 1097.97 477.331 1097.97 477.831 1098.1 478.482 1098.38 479.284L1100.63 486.112 1103.11 480.128C1103.32 479.628 1103.47 479.188 1103.58 478.808 1103.68 478.427 1103.74 478.055 1103.74 477.69 1103.74 477.253 1103.61 476.891 1103.36 476.604 1103.11 476.318 1102.76 476.138 1102.3 476.065L1102.3 475.034 1108.38 475.034 1108.38 476.081C1108.03 476.196 1107.75 476.347 1107.52 476.534 1107.3 476.722 1107.05 477.047 1106.77 477.511 1106.5 477.974 1106.11 478.768 1105.61 479.893L1100.74 490.69 1097.78 490.69 1093.66 478.8C1093.38 477.977 1093.15 477.412 1092.97 477.104 1092.79 476.797 1092.6 476.563 1092.38 476.401 1092.17 476.24 1091.91 476.128 1091.59 476.065Z" fill-rule="evenodd"/><text fill="#000000" fill-opacity="0" font-family="Arial,Arial_MSFontService,sans-serif" font-size="15.6562" x="1091.59" y="488.733">𝐯</text><path d="M1114.64 481.579 1116.07 481.579C1116.03 482.298 1116.01 483.294 1116.01 484.566L1116.01 493.955C1116.01 494.389 1116.03 494.717 1116.08 494.938 1116.13 495.159 1116.21 495.338 1116.34 495.477 1116.46 495.615 1116.64 495.724 1116.87 495.802 1117.1 495.881 1117.39 495.941 1117.75 495.982 1118.1 496.023 1118.56 496.051 1119.14 496.066L1119.14 497.088 1109.45 497.088 1109.45 496.066C1110.28 496.029 1110.87 495.978 1111.23 495.915 1111.58 495.851 1111.85 495.756 1112.04 495.628 1112.23 495.501 1112.36 495.321 1112.45 495.089 1112.54 494.857 1112.58 494.479 1112.58 493.955L1112.58 485.835C1112.58 485.528 1112.52 485.308 1112.41 485.173 1112.29 485.038 1112.13 484.971 1111.93 484.971 1111.74 484.971 1111.48 485.057 1111.14 485.229 1110.8 485.401 1110.24 485.753 1109.46 486.285L1108.77 485.094Z" fill-rule="evenodd"/><text fill="#000000" fill-opacity="0" font-family="Arial,Arial_MSFontService,sans-serif" font-size="15.5093" x="1108.77" y="495.15">𝟏</text><path d="M1092.29 822.812 1100.09 822.812 1100.09 823.843C1099.6 823.937 1099.24 824.077 1099.01 824.265 1098.78 824.452 1098.66 824.734 1098.66 825.109 1098.66 825.609 1098.8 826.26 1099.07 827.062L1101.32 833.89 1103.81 827.905C1104.01 827.405 1104.17 826.965 1104.27 826.585 1104.38 826.205 1104.43 825.832 1104.43 825.468 1104.43 825.03 1104.31 824.668 1104.06 824.382 1103.81 824.096 1103.45 823.916 1102.99 823.843L1102.99 822.812 1109.07 822.812 1109.07 823.859C1108.73 823.973 1108.44 824.124 1108.22 824.312 1108 824.499 1107.75 824.825 1107.47 825.288 1107.19 825.752 1106.81 826.546 1106.31 827.671L1101.43 838.468 1098.48 838.468 1094.35 826.577C1094.07 825.754 1093.84 825.189 1093.66 824.882 1093.49 824.575 1093.29 824.34 1093.08 824.179 1092.87 824.017 1092.6 823.905 1092.29 823.843Z" fill-rule="evenodd"/><text fill="#000000" fill-opacity="0" font-family="Arial,Arial_MSFontService,sans-serif" font-size="15.6562" x="1092.29" y="836.511">𝐯</text><path d="M1114.45 829.357C1115.55 829.357 1116.45 829.504 1117.15 829.8 1117.85 830.096 1118.35 830.496 1118.66 831.002 1118.97 831.507 1119.13 832.097 1119.13 832.771 1119.13 833.362 1119.02 833.912 1118.79 834.422 1118.57 834.931 1118.19 835.511 1117.65 836.162 1117.11 836.814 1116.19 837.746 1114.9 838.959 1114.51 839.333 1114.03 839.825 1113.48 840.435 1112.93 841.046 1112.5 841.568 1112.17 842.002L1112.17 842.114 1116.16 842.114C1116.65 842.114 1117.01 842.079 1117.25 842.008 1117.49 841.937 1117.68 841.813 1117.82 841.637 1117.96 841.461 1118.07 841.197 1118.16 840.845L1119.45 840.845 1119.19 844.866 1108.91 844.866 1108.91 844.125C1109.48 842.799 1110.66 841.092 1112.44 839.004 1113.25 838.053 1113.87 837.27 1114.29 836.656 1114.71 836.042 1115.03 835.462 1115.24 834.916 1115.45 834.369 1115.55 833.804 1115.55 833.22 1115.55 832.396 1115.37 831.751 1115 831.283 1114.64 830.815 1114.14 830.581 1113.5 830.581 1112.28 830.581 1111.5 831.46 1111.15 833.22L1109.13 833.22 1109.13 830.569C1110.35 830.075 1111.34 829.75 1112.08 829.592 1112.83 829.435 1113.62 829.357 1114.45 829.357Z" fill-rule="evenodd"/><text fill="#000000" fill-opacity="0" font-family="Arial,Arial_MSFontService,sans-serif" font-size="15.5093" x="1108.91" y="842.927">𝟐</text><path d="M1594.57 415.039C1594.12 415.039 1593.66 415.158 1593.21 415.398 1592.77 415.637 1592.4 415.979 1592.11 416.421 1591.81 416.864 1591.67 417.351 1591.67 417.882L1591.67 423.21C1591.67 424.492 1591.89 425.437 1592.33 426.046 1592.77 426.656 1593.46 426.96 1594.39 426.96 1595.34 426.96 1596.08 426.458 1596.58 425.453 1597.09 424.447 1597.34 423.012 1597.34 421.148 1597.34 419.096 1597.12 417.565 1596.67 416.554 1596.22 415.544 1595.52 415.039 1594.57 415.039ZM1589.75 405.96 1591.67 405.96 1591.67 414.914 1591.68 414.929C1592.61 414.065 1593.45 413.458 1594.21 413.109 1594.96 412.76 1595.74 412.585 1596.53 412.585 1598.38 412.585 1599.77 413.239 1600.7 414.546 1601.63 415.854 1602.09 417.809 1602.09 420.414 1602.09 423.132 1601.48 425.174 1600.25 426.539 1599.03 427.903 1597.22 428.585 1594.82 428.585 1593.18 428.585 1591.67 428.289 1590.31 427.695L1589.15 428.585 1587.15 428.304 1587.15 411.351C1587.15 410.361 1587.14 409.643 1587.11 409.195 1587.07 408.747 1587.01 408.4 1586.91 408.156 1586.81 407.911 1586.66 407.718 1586.46 407.578 1586.25 407.437 1585.9 407.315 1585.39 407.21L1585.39 406.179Z" fill-rule="evenodd"/><text fill="#000000" fill-opacity="0" font-family="Arial,Arial_MSFontService,sans-serif" font-size="22.625" x="1585.39" y="425.757">𝐛</text><path d="M1611.57 419.38 1613.01 419.38C1612.96 420.099 1612.94 421.095 1612.94 422.368L1612.94 431.756C1612.94 432.19 1612.97 432.518 1613.01 432.739 1613.06 432.96 1613.15 433.139 1613.27 433.278 1613.4 433.417 1613.57 433.525 1613.81 433.604 1614.04 433.682 1614.33 433.742 1614.68 433.783 1615.03 433.825 1615.5 433.853 1616.07 433.868L1616.07 434.89 1606.38 434.89 1606.38 433.868C1607.21 433.83 1607.81 433.78 1608.16 433.716 1608.52 433.652 1608.79 433.557 1608.98 433.43 1609.16 433.302 1609.3 433.123 1609.39 432.891 1609.47 432.658 1609.52 432.28 1609.52 431.756L1609.52 423.637C1609.52 423.33 1609.46 423.109 1609.34 422.974 1609.23 422.839 1609.07 422.772 1608.86 422.772 1608.68 422.772 1608.41 422.858 1608.07 423.03 1607.73 423.202 1607.17 423.554 1606.39 424.086L1605.71 422.895Z" fill-rule="evenodd"/><text fill="#000000" fill-opacity="0" font-family="Arial,Arial_MSFontService,sans-serif" font-size="15.5093" x="1605.71" y="432.951">𝟏</text><path d="M1595.96 799.6C1595.51 799.6 1595.05 799.72 1594.6 799.96 1594.16 800.199 1593.79 800.541 1593.49 800.983 1593.2 801.426 1593.06 801.913 1593.06 802.444L1593.06 807.772C1593.06 809.054 1593.28 809.999 1593.72 810.608 1594.16 811.218 1594.85 811.522 1595.78 811.522 1596.73 811.522 1597.47 811.02 1597.97 810.014 1598.48 809.009 1598.73 807.574 1598.73 805.71 1598.73 803.658 1598.51 802.126 1598.06 801.116 1597.61 800.106 1596.91 799.6 1595.96 799.6ZM1591.14 790.522 1593.06 790.522 1593.06 799.475 1593.07 799.491C1594 798.626 1594.84 798.02 1595.6 797.671 1596.35 797.322 1597.12 797.147 1597.92 797.147 1599.77 797.147 1601.16 797.801 1602.09 799.108 1603.02 800.416 1603.48 802.371 1603.48 804.975 1603.48 807.694 1602.87 809.736 1601.64 811.1 1600.42 812.465 1598.61 813.147 1596.21 813.147 1594.57 813.147 1593.06 812.85 1591.7 812.257L1590.54 813.147 1588.54 812.866 1588.54 795.913C1588.54 794.923 1588.53 794.205 1588.49 793.757 1588.46 793.309 1588.4 792.962 1588.3 792.718 1588.2 792.473 1588.05 792.28 1587.85 792.139 1587.64 791.999 1587.29 791.876 1586.78 791.772L1586.78 790.741Z" fill-rule="evenodd"/><text fill="#000000" fill-opacity="0" font-family="Arial,Arial_MSFontService,sans-serif" font-size="22.625" x="1586.78" y="810.319">𝐛</text><path d="M1612.08 803.942C1613.18 803.942 1614.08 804.09 1614.78 804.386 1615.48 804.681 1615.98 805.082 1616.29 805.587 1616.6 806.093 1616.76 806.682 1616.76 807.356 1616.76 807.948 1616.65 808.498 1616.42 809.007 1616.2 809.516 1615.82 810.096 1615.28 810.748 1614.74 811.399 1613.82 812.331 1612.53 813.544 1612.14 813.919 1611.66 814.411 1611.11 815.021 1610.56 815.631 1610.13 816.153 1609.8 816.588L1609.8 816.7 1613.79 816.7C1614.28 816.7 1614.64 816.664 1614.88 816.593 1615.12 816.522 1615.31 816.399 1615.45 816.223 1615.59 816.047 1615.7 815.783 1615.79 815.431L1617.08 815.431 1616.82 819.451 1606.54 819.451 1606.54 818.71C1607.11 817.385 1608.29 815.678 1610.07 813.589 1610.88 812.638 1611.5 811.856 1611.92 811.242 1612.34 810.628 1612.66 810.048 1612.87 809.501 1613.08 808.955 1613.18 808.389 1613.18 807.805 1613.18 806.982 1613 806.336 1612.63 805.868 1612.27 805.4 1611.77 805.166 1611.13 805.166 1609.91 805.166 1609.13 806.046 1608.78 807.805L1606.76 807.805 1606.76 805.155C1607.98 804.661 1608.97 804.335 1609.71 804.178 1610.46 804.021 1611.25 803.942 1612.08 803.942Z" fill-rule="evenodd"/><text fill="#000000" fill-opacity="0" font-family="Arial,Arial_MSFontService,sans-serif" font-size="15.5093" x="1606.54" y="817.513">𝟐</text><path d="M1095.43 622.77 1102.51 629.832 1109.59 622.77 1111.06 624.223 1104.06 631.348 1111.07 638.442 1109.51 640.004 1102.51 632.864 1095.29 639.942 1093.84 638.473 1100.98 631.348 1093.87 624.332Z" fill-rule="evenodd"/><text fill="#000000" fill-opacity="0" font-family="Arial,Arial_MSFontService,sans-serif" font-size="17.2344" x="1093.84" y="637.85">×</text><path d="M1355.17 677.013 1362.97 677.013 1362.97 678.044C1362.48 678.138 1362.12 678.278 1361.89 678.466 1361.66 678.653 1361.55 678.934 1361.55 679.309 1361.55 679.809 1361.69 680.461 1361.96 681.263L1364.21 688.091 1366.69 682.106C1366.9 681.606 1367.06 681.166 1367.16 680.786 1367.26 680.406 1367.32 680.033 1367.32 679.669 1367.32 679.231 1367.19 678.869 1366.94 678.583 1366.69 678.296 1366.34 678.117 1365.88 678.044L1365.88 677.013 1371.96 677.013 1371.96 678.059C1371.61 678.174 1371.33 678.325 1371.1 678.513 1370.88 678.7 1370.63 679.026 1370.35 679.489 1370.08 679.953 1369.69 680.747 1369.19 681.872L1364.32 692.669 1361.36 692.669 1357.24 680.778C1356.96 679.955 1356.73 679.39 1356.55 679.083 1356.37 678.776 1356.18 678.541 1355.96 678.38 1355.75 678.218 1355.49 678.106 1355.17 678.044Z" fill-rule="evenodd"/><text fill="#000000" fill-opacity="0" font-family="Arial,Arial_MSFontService,sans-serif" font-size="15.6562" x="1355.17" y="690.712">𝐯</text><path d="M1378.22 683.557 1379.65 683.557C1379.61 684.276 1379.59 685.272 1379.59 686.545L1379.59 695.933C1379.59 696.368 1379.61 696.695 1379.66 696.916 1379.71 697.137 1379.79 697.317 1379.92 697.455 1380.04 697.594 1380.22 697.702 1380.45 697.781 1380.68 697.859 1380.97 697.919 1381.33 697.961 1381.68 698.002 1382.14 698.03 1382.72 698.045L1382.72 699.067 1373.03 699.067 1373.03 698.045C1373.86 698.007 1374.45 697.957 1374.81 697.893 1375.16 697.83 1375.43 697.734 1375.62 697.607 1375.81 697.48 1375.95 697.3 1376.03 697.068 1376.12 696.836 1376.16 696.458 1376.16 695.933L1376.16 687.814C1376.16 687.507 1376.1 687.286 1375.99 687.151 1375.87 687.016 1375.71 686.949 1375.51 686.949 1375.32 686.949 1375.06 687.035 1374.72 687.207 1374.38 687.38 1373.82 687.732 1373.04 688.263L1372.35 687.073Z" fill-rule="evenodd"/><text fill="#000000" fill-opacity="0" font-family="Arial,Arial_MSFontService,sans-serif" font-size="15.5093" x="1372.35" y="697.128">𝟏</text><path d="M1387.58 671.184 1403.08 671.184 1403.08 672.216 1393.08 690.653 1397.55 690.653C1398.12 690.653 1398.6 690.536 1398.98 690.302 1399.37 690.067 1399.7 689.697 1399.98 689.192 1400.26 688.687 1400.56 687.809 1400.86 686.559L1402.98 686.559 1402.98 692.513 1387.33 692.513 1387.33 691.481 1397.33 673.044 1393.09 673.044C1392.41 673.044 1391.86 673.169 1391.47 673.419 1391.07 673.669 1390.73 674.07 1390.45 674.622 1390.17 675.174 1389.93 675.908 1389.72 676.825L1387.58 676.825Z" fill-rule="evenodd"/><text fill="#000000" fill-opacity="0" font-family="Arial,Arial_MSFontService,sans-serif" font-size="21.3281" x="1387.33" y="689.847">𝐙</text><path d="M1408.55 687.836 1409.95 687.836 1409.95 695.821C1409.95 696.54 1409.97 697.032 1410.02 697.298 1410.06 697.564 1410.15 697.777 1410.29 697.938 1410.43 698.099 1410.7 698.228 1411.08 698.326L1411.08 699.067 1405.6 699.067 1405.6 698.326C1405.96 698.228 1406.22 698.101 1406.35 697.944 1406.49 697.786 1406.59 697.573 1406.64 697.304 1406.68 697.034 1406.71 696.544 1406.71 695.832L1406.71 690.61C1406.71 690.086 1406.68 689.714 1406.61 689.493 1406.54 689.272 1406.43 689.103 1406.28 688.987 1406.12 688.871 1405.85 688.772 1405.46 688.69L1405.46 687.926ZM1406.79 683.445 1409.86 683.445 1409.86 686.197 1406.79 686.197Z" fill-rule="evenodd"/><text fill="#000000" fill-opacity="0" font-family="Arial,Arial_MSFontService,sans-serif" font-size="15.6216" x="1405.46" y="697.114">𝐢</text><path d="M1098.21 984.466 1105.29 991.528 1112.37 984.466 1113.84 985.919 1106.84 993.044 1113.85 1000.14 1112.29 1001.7 1105.29 994.559 1098.07 1001.64 1096.62 1000.17 1103.76 993.044 1096.65 986.028Z" fill-rule="evenodd"/><text fill="#000000" fill-opacity="0" font-family="Arial,Arial_MSFontService,sans-serif" font-size="17.2344" x="1096.62" y="999.546">×</text><path d="M1639.91 991.822 1646.99 998.885 1654.06 991.822 1655.53 993.276 1648.53 1000.4 1655.55 1007.49 1653.99 1009.06 1646.99 1001.92 1639.77 1008.99 1638.31 1007.53 1645.46 1000.4 1638.35 993.385Z" fill-rule="evenodd"/><text fill="#000000" fill-opacity="0" font-family="Arial,Arial_MSFontService,sans-serif" font-size="17.2344" x="1638.31" y="1006.9">×</text><path d="M1640.02 625.382 1647.1 632.444 1654.18 625.382 1655.65 626.835 1648.65 633.96 1655.66 641.054 1654.1 642.616 1647.1 635.475 1639.88 642.554 1638.43 641.085 1645.57 633.96 1638.46 626.944Z" fill-rule="evenodd"/><text fill="#000000" fill-opacity="0" font-family="Arial,Arial_MSFontService,sans-serif" font-size="17.2344" x="1638.43" y="640.462">×</text><path d="M634.323 709.975 649.823 709.975 649.823 711.006 639.823 729.444 644.292 729.444C644.865 729.444 645.344 729.327 645.729 729.092 646.115 728.858 646.448 728.488 646.729 727.983 647.011 727.478 647.302 726.6 647.604 725.35L649.729 725.35 649.729 731.303 634.073 731.303 634.073 730.272 644.073 711.834 639.839 711.834C639.151 711.834 638.61 711.959 638.214 712.209 637.818 712.459 637.479 712.86 637.198 713.412 636.917 713.965 636.672 714.699 636.464 715.616L634.323 715.616Z" fill-rule="evenodd"/><text fill="#000000" fill-opacity="0" font-family="Arial,Arial_MSFontService,sans-serif" font-size="21.3281" x="634.073" y="728.637">𝐙</text><path d="M655.297 726.627 656.7 726.627 656.7 734.612C656.7 735.33 656.721 735.823 656.762 736.088 656.803 736.354 656.895 736.568 657.037 736.729 657.18 736.89 657.442 737.019 657.823 737.116L657.823 737.857 652.343 737.857 652.343 737.116C652.71 737.019 652.963 736.891 653.101 736.734 653.24 736.577 653.333 736.364 653.382 736.094 653.43 735.825 653.455 735.334 653.455 734.623L653.455 729.401C653.455 728.877 653.421 728.504 653.354 728.283 653.286 728.062 653.176 727.894 653.022 727.778 652.869 727.662 652.598 727.563 652.208 727.48L652.208 726.717ZM653.533 722.236 656.611 722.236 656.611 724.987 653.533 724.987Z" fill-rule="evenodd"/><text fill="#000000" fill-opacity="0" font-family="Arial,Arial_MSFontService,sans-serif" font-size="15.6216" x="652.208" y="735.905">𝐢</text><path d="M2040.52 853.902 2042.73 853.902 2042.73 862.902 2051.25 862.902 2051.25 864.98 2042.73 864.98 2042.73 873.98 2040.52 873.98 2040.52 864.98 2032 864.98 2032 862.902 2040.52 862.902Z" fill-rule="evenodd"/><text fill="#000000" fill-opacity="0" font-family="Arial,Arial_MSFontService,sans-serif" font-size="20.0781" x="2032" y="871.47">+</text><path d="M2339.53 812.302 2347.74 812.302 2347.74 813.333C2347.2 813.479 2346.82 813.648 2346.6 813.841 2346.38 814.034 2346.23 814.299 2346.16 814.638 2346.09 814.977 2346.05 815.51 2346.05 816.24L2346.05 829.708C2346.05 830.49 2346.09 831.034 2346.16 831.341 2346.23 831.648 2346.38 831.898 2346.59 832.091 2346.8 832.284 2347.19 832.453 2347.74 832.599L2347.74 833.63 2339.53 833.63 2339.53 832.599C2340.1 832.453 2340.48 832.286 2340.68 832.099 2340.89 831.911 2341.02 831.664 2341.1 831.357 2341.17 831.049 2341.21 830.5 2341.21 829.708L2341.21 816.224C2341.21 815.443 2341.17 814.898 2341.1 814.591 2341.04 814.284 2340.9 814.036 2340.7 813.849 2340.5 813.661 2340.11 813.49 2339.53 813.333ZM2330.57 812.052C2331.49 812.052 2332.38 812.102 2333.22 812.2 2334.07 812.299 2335.03 812.474 2336.11 812.724L2336.11 817.255 2333.97 817.255C2333.69 816.078 2333.27 815.221 2332.72 814.685 2332.17 814.148 2331.37 813.88 2330.33 813.88 2329.39 813.88 2328.64 814.125 2328.07 814.615 2327.51 815.104 2327.22 815.771 2327.22 816.615 2327.22 817.219 2327.34 817.742 2327.57 818.185 2327.81 818.628 2328.2 819.06 2328.75 819.482 2329.31 819.904 2330.11 820.385 2331.16 820.927 2332.44 821.594 2333.45 822.247 2334.18 822.888 2334.92 823.529 2335.46 824.227 2335.81 824.982 2336.16 825.737 2336.33 826.615 2336.33 827.615 2336.33 828.896 2336.03 830.008 2335.44 830.95 2334.85 831.893 2333.98 832.617 2332.85 833.122 2331.71 833.628 2330.4 833.88 2328.91 833.88 2327.85 833.88 2326.74 833.82 2325.59 833.7 2324.44 833.581 2323.36 833.406 2322.35 833.177L2322.35 828.365 2324.49 828.365C2324.75 829.604 2325.18 830.529 2325.79 831.138 2326.4 831.747 2327.3 832.052 2328.47 832.052 2329.5 832.052 2330.31 831.786 2330.89 831.255 2331.46 830.724 2331.75 829.969 2331.75 828.99 2331.75 828.031 2331.47 827.232 2330.92 826.591 2330.36 825.95 2329.39 825.286 2328.02 824.599 2326.87 824.036 2325.92 823.456 2325.15 822.857 2324.39 822.258 2323.78 821.562 2323.34 820.771 2322.9 819.979 2322.68 819.073 2322.68 818.052 2322.68 816.771 2322.99 815.682 2323.63 814.786 2324.26 813.891 2325.18 813.211 2326.39 812.747 2327.59 812.284 2328.98 812.052 2330.57 812.052Z" fill-rule="evenodd"/><text fill="#000000" fill-opacity="0" font-family="Arial,Arial_MSFontService,sans-serif" font-size="21.8281" x="2322.35" y="831.152">𝐒𝐈</text><path d="M2367.39 814.443 2369.61 814.443 2369.61 823.443 2378.13 823.443 2378.13 825.521 2369.61 825.521 2369.61 834.521 2367.39 834.521 2367.39 825.521 2358.88 825.521 2358.88 823.443 2367.39 823.443Z" fill-rule="evenodd"/><text fill="#000000" fill-opacity="0" font-family="Arial,Arial_MSFontService,sans-serif" font-size="20.0781" x="2358.88" y="832.011">+</text><path d="M2339.53 891.221 2347.74 891.221 2347.74 892.252C2347.2 892.398 2346.82 892.567 2346.6 892.76 2346.38 892.953 2346.23 893.218 2346.16 893.557 2346.09 893.895 2346.05 894.429 2346.05 895.158L2346.05 908.627C2346.05 909.408 2346.09 909.953 2346.16 910.26 2346.23 910.567 2346.38 910.817 2346.59 911.01 2346.8 911.203 2347.19 911.372 2347.74 911.518L2347.74 912.549 2339.53 912.549 2339.53 911.518C2340.1 911.372 2340.48 911.205 2340.68 911.018 2340.89 910.83 2341.02 910.583 2341.1 910.276 2341.17 909.968 2341.21 909.419 2341.21 908.627L2341.21 895.143C2341.21 894.362 2341.17 893.817 2341.1 893.51 2341.04 893.203 2340.9 892.955 2340.7 892.768 2340.5 892.58 2340.11 892.408 2339.53 892.252ZM2330.57 890.971C2331.49 890.971 2332.38 891.02 2333.22 891.119 2334.07 891.218 2335.03 891.393 2336.11 891.643L2336.11 896.174 2333.97 896.174C2333.69 894.997 2333.27 894.14 2332.72 893.604 2332.17 893.067 2331.37 892.799 2330.33 892.799 2329.39 892.799 2328.64 893.044 2328.07 893.533 2327.51 894.023 2327.22 894.69 2327.22 895.533 2327.22 896.138 2327.34 896.661 2327.57 897.104 2327.81 897.546 2328.2 897.979 2328.75 898.401 2329.31 898.822 2330.11 899.304 2331.16 899.846 2332.44 900.513 2333.45 901.166 2334.18 901.807 2334.92 902.447 2335.46 903.145 2335.81 903.901 2336.16 904.656 2336.33 905.533 2336.33 906.533 2336.33 907.815 2336.03 908.927 2335.44 909.869 2334.85 910.812 2333.98 911.536 2332.85 912.041 2331.71 912.546 2330.4 912.799 2328.91 912.799 2327.85 912.799 2326.74 912.739 2325.59 912.619 2324.44 912.5 2323.36 912.325 2322.35 912.096L2322.35 907.283 2324.49 907.283C2324.75 908.523 2325.18 909.447 2325.79 910.057 2326.4 910.666 2327.3 910.971 2328.47 910.971 2329.5 910.971 2330.31 910.705 2330.89 910.174 2331.46 909.643 2331.75 908.888 2331.75 907.908 2331.75 906.95 2331.47 906.151 2330.92 905.51 2330.36 904.869 2329.39 904.205 2328.02 903.518 2326.87 902.955 2325.92 902.375 2325.15 901.776 2324.39 901.177 2323.78 900.481 2323.34 899.69 2322.9 898.898 2322.68 897.992 2322.68 896.971 2322.68 895.69 2322.99 894.601 2323.63 893.705 2324.26 892.809 2325.18 892.13 2326.39 891.666 2327.59 891.203 2328.98 890.971 2330.57 890.971Z" fill-rule="evenodd"/><text fill="#000000" fill-opacity="0" font-family="Arial,Arial_MSFontService,sans-serif" font-size="21.8281" x="2322.35" y="910.07">𝐒𝐈</text><path d="M2358.88 902.362 2378.13 902.362 2378.13 904.44 2358.88 904.44Z" fill-rule="evenodd"/><text fill="#000000" fill-opacity="0" font-family="Arial,Arial_MSFontService,sans-serif" font-size="2.07812" x="2358.88" y="904.18">−</text><g clip-path="url(#clip16)"><g clip-path="url(#clip17)"><g clip-path="url(#clip18)"><path d="M0 0 262.817 0 262.817 48.9998 0 48.9998Z" fill="#FFFFFF" transform="matrix(1.03494 0 0 1 1245 608)"/><path d="M11.1363 11.1363 37.8635 11.1363 37.8635 37.8635 11.1363 37.8635Z" stroke="#444444" stroke-width="0.556816" fill="#A01A9C" transform="matrix(1.03494 0 0 1 1245 608)"/><path d="M37.8635 11.1363 64.5906 11.1363 64.5906 37.8635 37.8635 37.8635Z" stroke="#444444" stroke-width="0.556816" fill="#46039F" transform="matrix(1.03494 0 0 1 1245 608)"/><path d="M64.5906 11.1363 91.3178 11.1363 91.3178 37.8635 64.5906 37.8635Z" stroke="#444444" stroke-width="0.556816" fill="#C8437B" transform="matrix(1.03494 0 0 1 1245 608)"/><path d="M91.3178 11.1363 118.045 11.1363 118.045 37.8635 91.3178 37.8635Z" stroke="#444444" stroke-width="0.556816" fill="#FCA338" transform="matrix(1.03494 0 0 1 1245 608)"/><path d="M118.045 11.1363 144.772 11.1363 144.772 37.8635 118.045 37.8635Z" stroke="#444444" stroke-width="0.556816" fill="#F1814D" transform="matrix(1.03494 0 0 1 1245 608)"/><path d="M144.772 11.1363 171.499 11.1363 171.499 37.8635 144.772 37.8635Z" stroke="#444444" stroke-width="0.556816" fill="#E26660" transform="matrix(1.03494 0 0 1 1245 608)"/><path d="M171.499 11.1363 198.226 11.1363 198.226 37.8635 171.499 37.8635Z" stroke="#444444" stroke-width="0.556816" fill="#C03A83" transform="matrix(1.03494 0 0 1 1245 608)"/><path d="M198.226 11.1363 224.954 11.1363 224.954 37.8635 198.226 37.8635Z" stroke="#444444" stroke-width="0.556816" fill="#A11B9B" transform="matrix(1.03494 0 0 1 1245 608)"/><path d="M224.954 11.1363 251.681 11.1363 251.681 37.8635 224.954 37.8635Z" stroke="#444444" stroke-width="0.556816" fill="#5901A5" transform="matrix(1.03494 0 0 1 1245 608)"/></g></g></g><g clip-path="url(#clip19)"><g clip-path="url(#clip20)"><g clip-path="url(#clip21)"><path d="M0 0 262.727 0 262.727 48.983 0 48.983Z" fill="#FFFFFF" transform="matrix(1.03691 0 0 1 1235.31 974.004)"/><path d="M11.1325 11.1325 37.8505 11.1325 37.8505 37.8505 11.1325 37.8505Z" stroke="#444444" stroke-width="0.556624" fill="#1E9B8A" transform="matrix(1.03691 0 0 1 1235.31 974.004)"/><path d="M37.8505 11.1325 64.5684 11.1325 64.5684 37.8505 37.8505 37.8505Z" stroke="#444444" stroke-width="0.556624" fill="#2C738E" transform="matrix(1.03691 0 0 1 1235.31 974.004)"/><path d="M64.5684 11.1325 91.2864 11.1325 91.2864 37.8505 64.5684 37.8505Z" stroke="#444444" stroke-width="0.556624" fill="#B2DD2D" transform="matrix(1.03691 0 0 1 1235.31 974.004)"/><path d="M91.2864 11.1325 118.004 11.1325 118.004 37.8505 91.2864 37.8505Z" stroke="#444444" stroke-width="0.556624" fill="#443983" transform="matrix(1.03691 0 0 1 1235.31 974.004)"/><path d="M118.004 11.1325 144.722 11.1325 144.722 37.8505 118.004 37.8505Z" stroke="#444444" stroke-width="0.556624" fill="#1F978B" transform="matrix(1.03691 0 0 1 1235.31 974.004)"/><path d="M144.722 11.1325 171.44 11.1325 171.44 37.8505 144.722 37.8505Z" stroke="#444444" stroke-width="0.556624" fill="#2C718E" transform="matrix(1.03691 0 0 1 1235.31 974.004)"/><path d="M171.44 11.1325 198.158 11.1325 198.158 37.8505 171.44 37.8505Z" stroke="#444444" stroke-width="0.556624" fill="#34608D" transform="matrix(1.03691 0 0 1 1235.31 974.004)"/><path d="M198.158 11.1325 224.876 11.1325 224.876 37.8505 198.158 37.8505Z" stroke="#444444" stroke-width="0.556624" fill="#A8DB34" transform="matrix(1.03691 0 0 1 1235.31 974.004)"/><path d="M224.876 11.1325 251.594 11.1325 251.594 37.8505 224.876 37.8505Z" stroke="#444444" stroke-width="0.556624" fill="#2D708E" transform="matrix(1.03691 0 0 1 1235.31 974.004)"/></g></g></g><g clip-path="url(#clip22)"><g clip-path="url(#clip23)"><g clip-path="url(#clip24)"><path d="M0 0 37.5093 0 37.5093 37.5093 0 37.5093Z" fill="#FFFFFF" transform="matrix(1.07206 0 0 1 1842.22 616.258)"/><path d="M4.68866 4.68866 32.8206 4.68866 32.8206 32.8206 4.68866 32.8206Z" stroke="#444444" stroke-width="0.351649" fill="#F28E2B" transform="matrix(1.07206 0 0 1 1842.22 616.258)"/></g></g></g><g clip-path="url(#clip25)"><g clip-path="url(#clip26)"><g clip-path="url(#clip27)"><path d="M0 0 42.9816 0 42.9816 42.9816 0 42.9816Z" fill="#FFFFFF" transform="matrix(1.04845 0 0 1 1918.91 480.544)"/><path d="M5.3727 5.3727 37.6089 5.3727 37.6089 37.6089 5.3727 37.6089Z" stroke="#444444" stroke-width="0.402953" fill="#4C78A8" transform="matrix(1.04845 0 0 1 1918.91 480.544)"/></g></g></g><g clip-path="url(#clip28)"><g clip-path="url(#clip29)"><g clip-path="url(#clip30)"><path d="M0 0 37.9459 0 37.9459 37.9459 0 37.9459Z" fill="#FFFFFF" transform="matrix(1.05187 0 0 1 1838.49 972.83)"/><path d="M4.74324 4.74324 33.2027 4.74324 33.2027 33.2027 4.74324 33.2027Z" stroke="#444444" stroke-width="0.355743" fill="#59A89C" transform="matrix(1.05187 0 0 1 1838.49 972.83)"/></g></g></g><g clip-path="url(#clip31)"><g clip-path="url(#clip32)"><g clip-path="url(#clip33)"><path d="M0 0 109.202 0 109.202 77.6355 0 77.6355Z" fill="#FFFFFF" transform="matrix(1.03526 0 0 1 2138.86 830.027)"/><path d="M7.67824 69.9573C23.4613 69.9573 33.2724 63.9853 43.51 53.7477 52.0414 45.2163 58.0133 34.9786 65.6916 26.0207 75.0761 14.9299 87.02 7.67824 101.523 7.67824" stroke="#D83A2F" stroke-width="1.27971" stroke-linecap="round" fill="none" transform="matrix(1.03526 0 0 1 2138.86 830.027)"/></g></g></g></g></svg>