<?xml version="1.0" encoding="utf-8" standalone="no"?>
<!DOCTYPE svg PUBLIC "-//W3C//DTD SVG 1.1//EN"
  "http://www.w3.org/Graphics/SVG/1.1/DTD/svg11.dtd">
<svg xmlns:xlink="http://www.w3.org/1999/xlink" width="1044pt" height="331.2pt" viewBox="0 0 1044 331.2" xmlns="http://www.w3.org/2000/svg" version="1.1">
 <metadata>
  <rdf:RDF xmlns:dc="http://purl.org/dc/elements/1.1/" xmlns:cc="http://creativecommons.org/ns#" xmlns:rdf="http://www.w3.org/1999/02/22-rdf-syntax-ns#">
   <cc:Work>
    <dc:type rdf:resource="http://purl.org/dc/dcmitype/StillImage"/>
    <dc:date>2026-05-13T21:08:47.421701</dc:date>
    <dc:format>image/svg+xml</dc:format>
    <dc:creator>
     <cc:Agent>
      <dc:title>Matplotlib v3.7.5, https://matplotlib.org/</dc:title>
     </cc:Agent>
    </dc:creator>
   </cc:Work>
  </rdf:RDF>
 </metadata>
 <defs>
  <style type="text/css">*{stroke-linejoin: round; stroke-linecap: butt}</style>
 </defs>
 <g id="figure_1">
  <g id="patch_1">
   <path d="M 0 331.2 
L 1044 331.2 
L 1044 0 
L 0 0 
z
" style="fill: #ffffff"/>
  </g>
  <g id="axes_1">
   <g id="patch_2">
    <path d="M 109.62 251.712 
L 1038.78 251.712 
L 1038.78 6.624 
L 109.62 6.624 
z
" style="fill: #ffffff"/>
   </g>
   <g id="patch_3">
    <path d="M 109.62 251.712 
L 109.62 6.624 
L 158.795599 6.624 
L 158.795599 251.712 
z
" clip-path="url(#p39840475a8)" style="fill: #d9d9d9; opacity: 0.7; stroke: #d9d9d9; stroke-linejoin: miter"/>
   </g>
   <g id="patch_4">
    <path d="M 161.383788 251.712 
L 161.383788 6.624 
L 210.559387 6.624 
L 210.559387 251.712 
z
" clip-path="url(#p39840475a8)" style="fill: #fff7a8; opacity: 0.7; stroke: #fff7a8; stroke-linejoin: miter"/>
   </g>
   <g id="patch_5">
    <path d="M 213.147577 251.712 
L 213.147577 6.624 
L 262.323175 6.624 
L 262.323175 251.712 
z
" clip-path="url(#p39840475a8)" style="fill: #d9d9d9; opacity: 0.7; stroke: #d9d9d9; stroke-linejoin: miter"/>
   </g>
   <g id="patch_6">
    <path d="M 264.911365 251.712 
L 264.911365 6.624 
L 314.086964 6.624 
L 314.086964 251.712 
z
" clip-path="url(#p39840475a8)" style="fill: #fff7a8; opacity: 0.7; stroke: #fff7a8; stroke-linejoin: miter"/>
   </g>
   <g id="patch_7">
    <path d="M 316.675153 251.712 
L 316.675153 6.624 
L 365.850752 6.624 
L 365.850752 251.712 
z
" clip-path="url(#p39840475a8)" style="fill: #d9d9d9; opacity: 0.7; stroke: #d9d9d9; stroke-linejoin: miter"/>
   </g>
   <g id="patch_8">
    <path d="M 368.438942 251.712 
L 368.438942 6.624 
L 417.61454 6.624 
L 417.61454 251.712 
z
" clip-path="url(#p39840475a8)" style="fill: #fff7a8; opacity: 0.7; stroke: #fff7a8; stroke-linejoin: miter"/>
   </g>
   <g id="patch_9">
    <path d="M 420.20273 251.712 
L 420.20273 6.624 
L 469.378329 6.624 
L 469.378329 251.712 
z
" clip-path="url(#p39840475a8)" style="fill: #d9d9d9; opacity: 0.7; stroke: #d9d9d9; stroke-linejoin: miter"/>
   </g>
   <g id="patch_10">
    <path d="M 471.966518 251.712 
L 471.966518 6.624 
L 521.142117 6.624 
L 521.142117 251.712 
z
" clip-path="url(#p39840475a8)" style="fill: #fff7a8; opacity: 0.7; stroke: #fff7a8; stroke-linejoin: miter"/>
   </g>
   <g id="patch_11">
    <path d="M 523.730306 251.712 
L 523.730306 6.624 
L 572.905905 6.624 
L 572.905905 251.712 
z
" clip-path="url(#p39840475a8)" style="fill: #d9d9d9; opacity: 0.7; stroke: #d9d9d9; stroke-linejoin: miter"/>
   </g>
   <g id="patch_12">
    <path d="M 575.494095 251.712 
L 575.494095 6.624 
L 624.669694 6.624 
L 624.669694 251.712 
z
" clip-path="url(#p39840475a8)" style="fill: #fff7a8; opacity: 0.7; stroke: #fff7a8; stroke-linejoin: miter"/>
   </g>
   <g id="patch_13">
    <path d="M 627.257883 251.712 
L 627.257883 6.624 
L 676.433482 6.624 
L 676.433482 251.712 
z
" clip-path="url(#p39840475a8)" style="fill: #d9d9d9; opacity: 0.7; stroke: #d9d9d9; stroke-linejoin: miter"/>
   </g>
   <g id="patch_14">
    <path d="M 679.021671 251.712 
L 679.021671 6.624 
L 728.19727 6.624 
L 728.19727 251.712 
z
" clip-path="url(#p39840475a8)" style="fill: #fff7a8; opacity: 0.7; stroke: #fff7a8; stroke-linejoin: miter"/>
   </g>
   <g id="patch_15">
    <path d="M 730.78546 251.712 
L 730.78546 6.624 
L 779.961058 6.624 
L 779.961058 251.712 
z
" clip-path="url(#p39840475a8)" style="fill: #d9d9d9; opacity: 0.7; stroke: #d9d9d9; stroke-linejoin: miter"/>
   </g>
   <g id="patch_16">
    <path d="M 782.549248 251.712 
L 782.549248 6.624 
L 831.724847 6.624 
L 831.724847 251.712 
z
" clip-path="url(#p39840475a8)" style="fill: #fff7a8; opacity: 0.7; stroke: #fff7a8; stroke-linejoin: miter"/>
   </g>
   <g id="patch_17">
    <path d="M 834.313036 251.712 
L 834.313036 6.624 
L 883.488635 6.624 
L 883.488635 251.712 
z
" clip-path="url(#p39840475a8)" style="fill: #d9d9d9; opacity: 0.7; stroke: #d9d9d9; stroke-linejoin: miter"/>
   </g>
   <g id="patch_18">
    <path d="M 886.076825 251.712 
L 886.076825 6.624 
L 935.252423 6.624 
L 935.252423 251.712 
z
" clip-path="url(#p39840475a8)" style="fill: #fff7a8; opacity: 0.7; stroke: #fff7a8; stroke-linejoin: miter"/>
   </g>
   <g id="patch_19">
    <path d="M 937.840613 251.712 
L 937.840613 6.624 
L 987.016212 6.624 
L 987.016212 251.712 
z
" clip-path="url(#p39840475a8)" style="fill: #d9d9d9; opacity: 0.7; stroke: #d9d9d9; stroke-linejoin: miter"/>
   </g>
   <g id="patch_20">
    <path d="M 989.604401 251.712 
L 989.604401 6.624 
L 1038.78 6.624 
L 1038.78 251.712 
z
" clip-path="url(#p39840475a8)" style="fill: #fff7a8; opacity: 0.7; stroke: #fff7a8; stroke-linejoin: miter"/>
   </g>
   <g id="matplotlib.axis_1">
    <g id="xtick_1">
     <g id="line2d_1">
      <defs>
       <path id="m29e118092e" d="M 0 0 
L 0 7 
" style="stroke: #000000; stroke-width: 2"/>
      </defs>
      <g>
       <use xlink:href="#m29e118092e" x="236.441281" y="251.712" style="stroke: #000000; stroke-width: 2"/>
      </g>
     </g>
     <g id="text_1">
      <!-- 50 -->
      <g transform="translate(219.898781 288.467938) scale(0.26 -0.26)">
       <defs>
        <path id="DejaVuSans-35" d="M 691 4666 
L 3169 4666 
L 3169 4134 
L 1269 4134 
L 1269 2991 
Q 1406 3038 1543 3061 
Q 1681 3084 1819 3084 
Q 2600 3084 3056 2656 
Q 3513 2228 3513 1497 
Q 3513 744 3044 326 
Q 2575 -91 1722 -91 
Q 1428 -91 1123 -41 
Q 819 9 494 109 
L 494 744 
Q 775 591 1075 516 
Q 1375 441 1709 441 
Q 2250 441 2565 725 
Q 2881 1009 2881 1497 
Q 2881 1984 2565 2268 
Q 2250 2553 1709 2553 
Q 1456 2553 1204 2497 
Q 953 2441 691 2322 
L 691 4666 
z
" transform="scale(0.015625)"/>
        <path id="DejaVuSans-30" d="M 2034 4250 
Q 1547 4250 1301 3770 
Q 1056 3291 1056 2328 
Q 1056 1369 1301 889 
Q 1547 409 2034 409 
Q 2525 409 2770 889 
Q 3016 1369 3016 2328 
Q 3016 3291 2770 3770 
Q 2525 4250 2034 4250 
z
M 2034 4750 
Q 2819 4750 3233 4129 
Q 3647 3509 3647 2328 
Q 3647 1150 3233 529 
Q 2819 -91 2034 -91 
Q 1250 -91 836 529 
Q 422 1150 422 2328 
Q 422 3509 836 4129 
Q 1250 4750 2034 4750 
z
" transform="scale(0.015625)"/>
       </defs>
       <use xlink:href="#DejaVuSans-35"/>
       <use xlink:href="#DejaVuSans-30" x="63.623047"/>
      </g>
     </g>
    </g>
    <g id="xtick_2">
     <g id="line2d_2">
      <g>
       <use xlink:href="#m29e118092e" x="365.850752" y="251.712" style="stroke: #000000; stroke-width: 2"/>
      </g>
     </g>
     <g id="text_2">
      <!-- 100 -->
      <g transform="translate(341.037002 288.467938) scale(0.26 -0.26)">
       <defs>
        <path id="DejaVuSans-31" d="M 794 531 
L 1825 531 
L 1825 4091 
L 703 3866 
L 703 4441 
L 1819 4666 
L 2450 4666 
L 2450 531 
L 3481 531 
L 3481 0 
L 794 0 
L 794 531 
z
" transform="scale(0.015625)"/>
       </defs>
       <use xlink:href="#DejaVuSans-31"/>
       <use xlink:href="#DejaVuSans-30" x="63.623047"/>
       <use xlink:href="#DejaVuSans-30" x="127.246094"/>
      </g>
     </g>
    </g>
    <g id="xtick_3">
     <g id="line2d_3">
      <g>
       <use xlink:href="#m29e118092e" x="495.260223" y="251.712" style="stroke: #000000; stroke-width: 2"/>
      </g>
     </g>
     <g id="text_3">
      <!-- 150 -->
      <g transform="translate(470.446473 288.467938) scale(0.26 -0.26)">
       <use xlink:href="#DejaVuSans-31"/>
       <use xlink:href="#DejaVuSans-35" x="63.623047"/>
       <use xlink:href="#DejaVuSans-30" x="127.246094"/>
      </g>
     </g>
    </g>
    <g id="xtick_4">
     <g id="line2d_4">
      <g>
       <use xlink:href="#m29e118092e" x="624.669694" y="251.712" style="stroke: #000000; stroke-width: 2"/>
      </g>
     </g>
     <g id="text_4">
      <!-- 200 -->
      <g transform="translate(599.855944 288.467938) scale(0.26 -0.26)">
       <defs>
        <path id="DejaVuSans-32" d="M 1228 531 
L 3431 531 
L 3431 0 
L 469 0 
L 469 531 
Q 828 903 1448 1529 
Q 2069 2156 2228 2338 
Q 2531 2678 2651 2914 
Q 2772 3150 2772 3378 
Q 2772 3750 2511 3984 
Q 2250 4219 1831 4219 
Q 1534 4219 1204 4116 
Q 875 4013 500 3803 
L 500 4441 
Q 881 4594 1212 4672 
Q 1544 4750 1819 4750 
Q 2544 4750 2975 4387 
Q 3406 4025 3406 3419 
Q 3406 3131 3298 2873 
Q 3191 2616 2906 2266 
Q 2828 2175 2409 1742 
Q 1991 1309 1228 531 
z
" transform="scale(0.015625)"/>
       </defs>
       <use xlink:href="#DejaVuSans-32"/>
       <use xlink:href="#DejaVuSans-30" x="63.623047"/>
       <use xlink:href="#DejaVuSans-30" x="127.246094"/>
      </g>
     </g>
    </g>
    <g id="xtick_5">
     <g id="line2d_5">
      <g>
       <use xlink:href="#m29e118092e" x="754.079164" y="251.712" style="stroke: #000000; stroke-width: 2"/>
      </g>
     </g>
     <g id="text_5">
      <!-- 250 -->
      <g transform="translate(729.265414 288.467938) scale(0.26 -0.26)">
       <use xlink:href="#DejaVuSans-32"/>
       <use xlink:href="#DejaVuSans-35" x="63.623047"/>
       <use xlink:href="#DejaVuSans-30" x="127.246094"/>
      </g>
     </g>
    </g>
    <g id="xtick_6">
     <g id="line2d_6">
      <g>
       <use xlink:href="#m29e118092e" x="883.488635" y="251.712" style="stroke: #000000; stroke-width: 2"/>
      </g>
     </g>
     <g id="text_6">
      <!-- 300 -->
      <g transform="translate(858.674885 288.467938) scale(0.26 -0.26)">
       <defs>
        <path id="DejaVuSans-33" d="M 2597 2516 
Q 3050 2419 3304 2112 
Q 3559 1806 3559 1356 
Q 3559 666 3084 287 
Q 2609 -91 1734 -91 
Q 1441 -91 1130 -33 
Q 819 25 488 141 
L 488 750 
Q 750 597 1062 519 
Q 1375 441 1716 441 
Q 2309 441 2620 675 
Q 2931 909 2931 1356 
Q 2931 1769 2642 2001 
Q 2353 2234 1838 2234 
L 1294 2234 
L 1294 2753 
L 1863 2753 
Q 2328 2753 2575 2939 
Q 2822 3125 2822 3475 
Q 2822 3834 2567 4026 
Q 2313 4219 1838 4219 
Q 1578 4219 1281 4162 
Q 984 4106 628 3988 
L 628 4550 
Q 988 4650 1302 4700 
Q 1616 4750 1894 4750 
Q 2613 4750 3031 4423 
Q 3450 4097 3450 3541 
Q 3450 3153 3228 2886 
Q 3006 2619 2597 2516 
z
" transform="scale(0.015625)"/>
       </defs>
       <use xlink:href="#DejaVuSans-33"/>
       <use xlink:href="#DejaVuSans-30" x="63.623047"/>
       <use xlink:href="#DejaVuSans-30" x="127.246094"/>
      </g>
     </g>
    </g>
    <g id="xtick_7">
     <g id="line2d_7">
      <g>
       <use xlink:href="#m29e118092e" x="1012.898106" y="251.712" style="stroke: #000000; stroke-width: 2"/>
      </g>
     </g>
     <g id="text_7">
      <!-- 350 -->
      <g transform="translate(988.084356 288.467938) scale(0.26 -0.26)">
       <use xlink:href="#DejaVuSans-33"/>
       <use xlink:href="#DejaVuSans-35" x="63.623047"/>
       <use xlink:href="#DejaVuSans-30" x="127.246094"/>
      </g>
     </g>
    </g>
    <g id="text_8">
     <!-- Trial -->
     <g transform="translate(537.813281 326.670437) scale(0.3 -0.3)">
      <defs>
       <path id="DejaVuSans-Bold-54" d="M 31 4666 
L 4331 4666 
L 4331 3756 
L 2784 3756 
L 2784 0 
L 1581 0 
L 1581 3756 
L 31 3756 
L 31 4666 
z
" transform="scale(0.015625)"/>
       <path id="DejaVuSans-Bold-72" d="M 3138 2547 
Q 2991 2616 2845 2648 
Q 2700 2681 2553 2681 
Q 2122 2681 1889 2404 
Q 1656 2128 1656 1613 
L 1656 0 
L 538 0 
L 538 3500 
L 1656 3500 
L 1656 2925 
Q 1872 3269 2151 3426 
Q 2431 3584 2822 3584 
Q 2878 3584 2943 3579 
Q 3009 3575 3134 3559 
L 3138 2547 
z
" transform="scale(0.015625)"/>
       <path id="DejaVuSans-Bold-69" d="M 538 3500 
L 1656 3500 
L 1656 0 
L 538 0 
L 538 3500 
z
M 538 4863 
L 1656 4863 
L 1656 3950 
L 538 3950 
L 538 4863 
z
" transform="scale(0.015625)"/>
       <path id="DejaVuSans-Bold-61" d="M 2106 1575 
Q 1756 1575 1579 1456 
Q 1403 1338 1403 1106 
Q 1403 894 1545 773 
Q 1688 653 1941 653 
Q 2256 653 2472 879 
Q 2688 1106 2688 1447 
L 2688 1575 
L 2106 1575 
z
M 3816 1997 
L 3816 0 
L 2688 0 
L 2688 519 
Q 2463 200 2181 54 
Q 1900 -91 1497 -91 
Q 953 -91 614 226 
Q 275 544 275 1050 
Q 275 1666 698 1953 
Q 1122 2241 2028 2241 
L 2688 2241 
L 2688 2328 
Q 2688 2594 2478 2717 
Q 2269 2841 1825 2841 
Q 1466 2841 1156 2769 
Q 847 2697 581 2553 
L 581 3406 
Q 941 3494 1303 3539 
Q 1666 3584 2028 3584 
Q 2975 3584 3395 3211 
Q 3816 2838 3816 1997 
z
" transform="scale(0.015625)"/>
       <path id="DejaVuSans-Bold-6c" d="M 538 4863 
L 1656 4863 
L 1656 0 
L 538 0 
L 538 4863 
z
" transform="scale(0.015625)"/>
      </defs>
      <use xlink:href="#DejaVuSans-Bold-54"/>
      <use xlink:href="#DejaVuSans-Bold-72" x="57.212891"/>
      <use xlink:href="#DejaVuSans-Bold-69" x="106.529297"/>
      <use xlink:href="#DejaVuSans-Bold-61" x="140.806641"/>
      <use xlink:href="#DejaVuSans-Bold-6c" x="208.287109"/>
     </g>
    </g>
   </g>
   <g id="matplotlib.axis_2">
    <g id="ytick_1">
     <g id="line2d_8">
      <defs>
       <path id="m8e5e761b37" d="M 0 0 
L -7 0 
" style="stroke: #000000; stroke-width: 2"/>
      </defs>
      <g>
       <use xlink:href="#m8e5e761b37" x="109.62" y="231.288" style="stroke: #000000; stroke-width: 2"/>
      </g>
     </g>
     <g id="text_9">
      <!-- 6.5 -->
      <g transform="translate(51.271875 241.165969) scale(0.26 -0.26)">
       <defs>
        <path id="DejaVuSans-36" d="M 2113 2584 
Q 1688 2584 1439 2293 
Q 1191 2003 1191 1497 
Q 1191 994 1439 701 
Q 1688 409 2113 409 
Q 2538 409 2786 701 
Q 3034 994 3034 1497 
Q 3034 2003 2786 2293 
Q 2538 2584 2113 2584 
z
M 3366 4563 
L 3366 3988 
Q 3128 4100 2886 4159 
Q 2644 4219 2406 4219 
Q 1781 4219 1451 3797 
Q 1122 3375 1075 2522 
Q 1259 2794 1537 2939 
Q 1816 3084 2150 3084 
Q 2853 3084 3261 2657 
Q 3669 2231 3669 1497 
Q 3669 778 3244 343 
Q 2819 -91 2113 -91 
Q 1303 -91 875 529 
Q 447 1150 447 2328 
Q 447 3434 972 4092 
Q 1497 4750 2381 4750 
Q 2619 4750 2861 4703 
Q 3103 4656 3366 4563 
z
" transform="scale(0.015625)"/>
        <path id="DejaVuSans-2e" d="M 684 794 
L 1344 794 
L 1344 0 
L 684 0 
L 684 794 
z
" transform="scale(0.015625)"/>
       </defs>
       <use xlink:href="#DejaVuSans-36"/>
       <use xlink:href="#DejaVuSans-2e" x="63.623047"/>
       <use xlink:href="#DejaVuSans-35" x="95.410156"/>
      </g>
     </g>
    </g>
    <g id="ytick_2">
     <g id="line2d_9">
      <g>
       <use xlink:href="#m8e5e761b37" x="109.62" y="129.168" style="stroke: #000000; stroke-width: 2"/>
      </g>
     </g>
     <g id="text_10">
      <!-- 7 -->
      <g transform="translate(76.0775 139.045969) scale(0.26 -0.26)">
       <defs>
        <path id="DejaVuSans-37" d="M 525 4666 
L 3525 4666 
L 3525 4397 
L 1831 0 
L 1172 0 
L 2766 4134 
L 525 4134 
L 525 4666 
z
" transform="scale(0.015625)"/>
       </defs>
       <use xlink:href="#DejaVuSans-37"/>
      </g>
     </g>
    </g>
    <g id="ytick_3">
     <g id="line2d_10">
      <g>
       <use xlink:href="#m8e5e761b37" x="109.62" y="27.048" style="stroke: #000000; stroke-width: 2"/>
      </g>
     </g>
     <g id="text_11">
      <!-- 7.5 -->
      <g transform="translate(51.271875 36.925969) scale(0.26 -0.26)">
       <use xlink:href="#DejaVuSans-37"/>
       <use xlink:href="#DejaVuSans-2e" x="63.623047"/>
       <use xlink:href="#DejaVuSans-35" x="95.410156"/>
      </g>
     </g>
    </g>
    <g id="text_12">
     <!-- log(RT) -->
     <g transform="translate(32.798437 190.171125) rotate(-90) scale(0.3 -0.3)">
      <defs>
       <path id="DejaVuSans-Bold-6f" d="M 2203 2784 
Q 1831 2784 1636 2517 
Q 1441 2250 1441 1747 
Q 1441 1244 1636 976 
Q 1831 709 2203 709 
Q 2569 709 2762 976 
Q 2956 1244 2956 1747 
Q 2956 2250 2762 2517 
Q 2569 2784 2203 2784 
z
M 2203 3584 
Q 3106 3584 3614 3096 
Q 4122 2609 4122 1747 
Q 4122 884 3614 396 
Q 3106 -91 2203 -91 
Q 1297 -91 786 396 
Q 275 884 275 1747 
Q 275 2609 786 3096 
Q 1297 3584 2203 3584 
z
" transform="scale(0.015625)"/>
       <path id="DejaVuSans-Bold-67" d="M 2919 594 
Q 2688 288 2409 144 
Q 2131 0 1766 0 
Q 1125 0 706 504 
Q 288 1009 288 1791 
Q 288 2575 706 3076 
Q 1125 3578 1766 3578 
Q 2131 3578 2409 3434 
Q 2688 3291 2919 2981 
L 2919 3500 
L 4044 3500 
L 4044 353 
Q 4044 -491 3511 -936 
Q 2978 -1381 1966 -1381 
Q 1638 -1381 1331 -1331 
Q 1025 -1281 716 -1178 
L 716 -306 
Q 1009 -475 1290 -558 
Q 1572 -641 1856 -641 
Q 2406 -641 2662 -400 
Q 2919 -159 2919 353 
L 2919 594 
z
M 2181 2772 
Q 1834 2772 1640 2515 
Q 1447 2259 1447 1791 
Q 1447 1309 1634 1061 
Q 1822 813 2181 813 
Q 2531 813 2725 1069 
Q 2919 1325 2919 1791 
Q 2919 2259 2725 2515 
Q 2531 2772 2181 2772 
z
" transform="scale(0.015625)"/>
       <path id="DejaVuSans-Bold-28" d="M 2413 -844 
L 1484 -844 
Q 1006 -72 778 623 
Q 550 1319 550 2003 
Q 550 2688 779 3389 
Q 1009 4091 1484 4856 
L 2413 4856 
Q 2013 4116 1813 3408 
Q 1613 2700 1613 2009 
Q 1613 1319 1811 609 
Q 2009 -100 2413 -844 
z
" transform="scale(0.015625)"/>
       <path id="DejaVuSans-Bold-52" d="M 2297 2597 
Q 2675 2597 2839 2737 
Q 3003 2878 3003 3200 
Q 3003 3519 2839 3656 
Q 2675 3794 2297 3794 
L 1791 3794 
L 1791 2597 
L 2297 2597 
z
M 1791 1766 
L 1791 0 
L 588 0 
L 588 4666 
L 2425 4666 
Q 3347 4666 3776 4356 
Q 4206 4047 4206 3378 
Q 4206 2916 3982 2619 
Q 3759 2322 3309 2181 
Q 3556 2125 3751 1926 
Q 3947 1728 4147 1325 
L 4800 0 
L 3519 0 
L 2950 1159 
Q 2778 1509 2601 1637 
Q 2425 1766 2131 1766 
L 1791 1766 
z
" transform="scale(0.015625)"/>
       <path id="DejaVuSans-Bold-29" d="M 513 -844 
Q 913 -100 1113 609 
Q 1313 1319 1313 2009 
Q 1313 2700 1113 3408 
Q 913 4116 513 4856 
L 1441 4856 
Q 1916 4091 2145 3389 
Q 2375 2688 2375 2003 
Q 2375 1319 2147 623 
Q 1919 -72 1441 -844 
L 513 -844 
z
" transform="scale(0.015625)"/>
      </defs>
      <use xlink:href="#DejaVuSans-Bold-6c"/>
      <use xlink:href="#DejaVuSans-Bold-6f" x="34.277344"/>
      <use xlink:href="#DejaVuSans-Bold-67" x="102.978516"/>
      <use xlink:href="#DejaVuSans-Bold-28" x="174.560547"/>
      <use xlink:href="#DejaVuSans-Bold-52" x="220.263672"/>
      <use xlink:href="#DejaVuSans-Bold-54" x="292.765625"/>
      <use xlink:href="#DejaVuSans-Bold-29" x="360.978516"/>
     </g>
    </g>
   </g>
   <g id="line2d_11">
    <path d="M 109.62 150.060742 
L 112.208189 5.827879 
L 114.796379 168.621171 
L 117.384568 119.996579 
L 119.972758 183.617998 
L 122.560947 127.430902 
L 125.149136 98.869865 
L 127.737326 89.456218 
L 130.325515 101.292669 
L 132.913705 93.638753 
L 135.501894 189.538412 
L 138.090084 106.559424 
L 140.678273 141.376963 
L 143.266462 124.133682 
L 145.854652 110.770707 
L 148.442841 112.479838 
L 151.031031 127.24632 
L 153.61922 119.64076 
L 156.207409 205.136829 
L 158.795599 175.747882 
L 161.383788 65.46837 
L 163.971978 150.060742 
L 166.560167 112.479838 
L 169.148357 146.786284 
L 171.736546 151.717871 
L 174.324735 151.925961 
L 176.912925 130.407129 
L 179.501114 149.854544 
L 182.089304 128.913594 
L 184.677493 160.862887 
L 187.265682 151.717871 
L 189.853872 101.455216 
L 192.442061 166.150949 
L 195.030251 166.150949 
L 197.61844 69.04438 
L 200.20663 77.110326 
L 202.794819 119.818592 
L 205.383008 164.816042 
L 207.971198 148.212404 
L 210.559387 173.653094 
L 213.147577 124.133682 
L 215.735766 141.574774 
L 218.323955 162.172122 
L 220.912145 169.07353 
L 223.500334 191.298029 
L 226.088524 144.967212 
L 228.676713 195.893623 
L 231.264903 135.146089 
L 233.853092 173.653094 
L 236.441281 160.428333 
L 239.029471 106.893149 
L 241.61766 177.628126 
L 244.20585 160.862887 
L 246.794039 162.391146 
L 249.382228 181.441352 
L 251.970418 162.391146 
L 254.558607 124.315471 
L 257.146797 136.879395 
L 259.734986 187.793826 
L 262.323175 151.717871 
L 264.911365 81.929942 
L 267.499554 141.772777 
L 270.087744 153.598355 
L 272.675933 144.766089 
L 275.264123 153.388555 
L 277.852312 167.944506 
L 280.440501 204.866849 
L 283.028691 146.380643 
L 285.61688 113.857516 
L 288.20507 135.146089 
L 290.793259 179.287659 
L 293.381448 185.572462 
L 295.969638 189.538412 
L 298.557827 156.984795 
L 301.146017 223.794108 
L 303.734206 162.172122 
L 306.322396 177.628126 
L 308.910585 191.803574 
L 311.498774 183.617998 
L 314.086964 185.572462 
L 316.675153 63.028845 
L 319.263343 213.970206 
L 321.851532 194.09414 
L 324.439721 169.981265 
L 327.027911 191.550645 
L 329.6161 162.391146 
L 332.20429 214.2525 
L 334.792479 175.514064 
L 337.380669 109.413626 
L 339.968858 167.944506 
L 342.557047 145.168532 
L 345.145237 167.719448 
L 347.733426 192.056816 
L 350.321616 189.78886 
L 352.909805 175.514064 
L 355.497994 218.823097 
L 358.086184 211.725788 
L 360.674373 162.391146 
L 363.262563 177.628126 
L 365.850752 162.391146 
L 368.438942 116.816307 
L 371.027131 98.548985 
L 373.61532 231.331495 
L 376.20351 130.407129 
L 378.791699 176.216323 
L 381.379889 172.038541 
L 383.968078 231.331495 
L 386.556267 160.862887 
L 389.144457 209.505766 
L 391.732646 157.840252 
L 394.320836 162.391146 
L 396.909025 181.441352 
L 399.497214 191.803574 
L 402.085404 189.538412 
L 404.673593 187.545811 
L 407.261783 183.617998 
L 409.849972 202.186496 
L 412.438162 162.391146 
L 415.026351 148.212404 
L 417.61454 213.970206 
L 420.20273 165.70501 
L 422.790919 177.392146 
L 425.379109 162.391146 
L 427.967298 185.572462 
L 430.555487 205.136829 
L 433.143677 181.682059 
L 435.731866 172.268411 
L 438.320056 219.112184 
L 440.908245 204.866849 
L 443.496435 221.147332 
L 446.084624 220.855352 
L 448.672813 242.050251 
L 451.261003 212.004995 
L 453.849192 171.808928 
L 456.437382 209.781953 
L 459.025571 191.550645 
L 461.61376 216.525013 
L 464.20195 169.753953 
L 466.790139 185.572462 
L 469.378329 223.498322 
L 471.966518 179.52584 
L 474.554708 189.538412 
L 477.142897 153.598355 
L 479.731086 156.77149 
L 482.319276 185.818091 
L 484.907465 162.172122 
L 487.495655 106.726218 
L 490.083844 177.392146 
L 492.672033 209.505766 
L 495.260223 244.984315 
L 497.848412 181.682059 
L 500.436602 191.550645 
L 503.024791 211.725788 
L 505.612981 221.43973 
L 508.20117 170.208831 
L 510.789359 244.328649 
L 513.377549 218.534418 
L 515.965738 162.391146 
L 518.553928 196.929063 
L 521.142117 191.803574 
L 523.730306 181.682059 
L 526.318496 196.151991 
L 528.906685 207.309616 
L 531.494875 162.610405 
L 534.083064 216.525013 
L 536.671253 187.793826 
L 539.259443 185.572462 
L 541.847632 172.038541 
L 544.435822 194.09414 
L 547.024011 191.803574 
L 549.612201 155.284557 
L 552.20039 146.583362 
L 554.788579 202.186496 
L 557.376769 194.09414 
L 559.964958 144.967212 
L 562.553148 204.866849 
L 565.141337 139.997623 
L 567.729526 163.489804 
L 570.317716 211.446962 
L 572.905905 193.83836 
L 575.494095 116.641069 
L 578.082284 185.572462 
L 580.670474 196.151991 
L 583.258663 194.09414 
L 585.846852 175.747882 
L 588.435042 169.981265 
L 591.023231 206.49211 
L 593.611421 183.861285 
L 596.19961 200.595007 
L 598.787799 192.056816 
L 601.375989 193.83836 
L 603.964178 187.545811 
L 606.552368 162.610405 
L 609.140557 175.981968 
L 611.728747 200.067255 
L 614.316936 162.391146 
L 616.905125 179.52584 
L 619.493315 231.331495 
L 622.081504 98.068609 
L 624.669694 192.056816 
L 627.257883 196.151991 
L 629.846072 146.786284 
L 632.434262 179.764298 
L 635.022451 216.525013 
L 637.610641 226.475635 
L 640.19883 215.95451 
L 642.787019 151.717871 
L 645.375209 226.175943 
L 647.963398 138.432558 
L 650.551588 187.545811 
L 653.139777 130.03272 
L 655.727967 175.514064 
L 658.316156 169.753953 
L 660.904345 74.671183 
L 663.492535 198.230788 
L 666.080724 141.574774 
L 668.668914 191.803574 
L 671.257103 200.330961 
L 673.845292 180.960787 
L 676.433482 200.595007 
L 679.021671 160.645494 
L 681.609861 165.927858 
L 684.19805 200.330961 
L 686.78624 218.823097 
L 689.374429 196.151991 
L 691.962618 116.816307 
L 694.550808 209.229952 
L 697.138997 165.260042 
L 699.727187 234.738155 
L 702.315376 164.373005 
L 704.903565 171.579574 
L 707.491755 177.628126 
L 710.079944 231.331495 
L 712.668134 167.944506 
L 715.256323 209.781953 
L 717.844513 200.595007 
L 720.432702 205.136829 
L 723.020891 204.866849 
L 725.609081 221.147332 
L 728.19727 169.526894 
L 730.78546 102.59668 
L 733.373649 214.535186 
L 735.961838 185.818091 
L 738.550028 207.03675 
L 741.138217 156.984795 
L 743.726407 156.77149 
L 746.314596 143.363749 
L 748.902786 202.71976 
L 751.490975 207.309616 
L 754.079164 204.597225 
L 756.667354 191.550645 
L 759.255543 249.97008 
L 761.843733 236.620564 
L 764.431922 211.725788 
L 767.020111 160.645494 
L 769.608301 206.764248 
L 772.19649 183.617998 
L 774.78468 231.331495 
L 777.372869 213.970206 
L 779.961058 224.981553 
L 782.549248 141.574774 
L 785.137437 158.914636 
L 787.725627 233.803416 
L 790.313816 132.857662 
L 792.902006 108.233532 
L 795.490195 177.628126 
L 798.078384 202.71976 
L 800.666574 169.753953 
L 803.254763 214.2525 
L 805.842953 173.88479 
L 808.431142 169.981265 
L 811.019331 81.929942 
L 813.607521 165.927858 
L 816.19571 233.492785 
L 818.7839 179.52584 
L 821.372089 200.330961 
L 823.960279 189.78886 
L 826.548468 171.808928 
L 829.136657 148.212404 
L 831.724847 175.514064 
L 834.313036 129.09969 
L 836.901226 173.653094 
L 839.489415 205.407167 
L 842.077604 187.298097 
L 844.665794 143.164198 
L 847.253983 181.441352 
L 849.842173 185.572462 
L 852.430362 212.284584 
L 855.018552 165.927858 
L 857.606741 181.441352 
L 860.19493 198.230788 
L 862.78312 218.823097 
L 865.371309 200.595007 
L 867.959499 204.597225 
L 870.547688 202.452954 
L 873.135877 219.112184 
L 875.724067 239.15774 
L 878.312256 253.362849 
L 880.900446 183.617998 
L 883.488635 79.43291 
L 886.076825 167.270075 
L 888.665014 169.981265 
L 891.253203 209.781953 
L 893.841393 173.653094 
L 896.429582 141.574774 
L 899.017772 198.492131 
L 901.605961 143.563495 
L 904.19415 198.230788 
L 906.78234 211.725788 
L 909.370529 223.498322 
L 911.958719 233.803416 
L 914.546908 137.26658 
L 917.135097 221.43973 
L 919.723287 151.717871 
L 922.311476 185.327129 
L 924.899666 216.239563 
L 927.487855 124.315471 
L 930.076045 226.175943 
L 932.664234 153.388555 
L 935.252423 164.373005 
L 937.840613 209.505766 
L 940.428802 198.230788 
L 943.016992 179.52584 
L 945.605181 214.2525 
L 948.19337 135.146089 
L 950.78156 160.645494 
L 953.369749 211.725788 
L 955.957939 177.628126 
L 958.546128 191.803574 
L 961.134318 202.71976 
L 963.722507 196.929063 
L 966.310696 196.151991 
L 968.898886 157.198324 
L 971.487075 209.229952 
L 974.075265 208.67944 
L 976.663454 179.52584 
L 979.251643 166.150949 
L 981.839833 215.101732 
L 984.428022 169.753953 
L 987.016212 169.753953 
L 989.604401 175.514064 
L 992.192591 193.83836 
L 994.78078 200.067255 
L 997.368969 165.70501 
L 999.957159 218.823097 
L 1002.545348 183.374999 
L 1005.133538 233.182625 
L 1007.721727 228.585882 
L 1010.309916 185.818091 
L 1012.898106 175.747882 
L 1015.486295 202.452954 
L 1018.074485 197.969778 
L 1020.662674 192.564245 
L 1023.250864 231.024598 
L 1025.839053 177.392146 
L 1028.427242 200.859396 
L 1031.015432 150.473766 
L 1033.603621 209.781953 
L 1036.191811 104.073714 
L 1038.78 198.230788 
L 1038.78 198.230788 
" clip-path="url(#p39840475a8)" style="fill: none; stroke: #65b7cf; stroke-opacity: 0.9; stroke-width: 2; stroke-linecap: square"/>
   </g>
   <g id="patch_21">
    <path d="M 109.62 251.712 
L 109.62 6.624 
" style="fill: none; stroke: #000000; stroke-width: 2; stroke-linejoin: miter; stroke-linecap: square"/>
   </g>
   <g id="patch_22">
    <path d="M 109.62 251.712 
L 1038.78 251.712 
" style="fill: none; stroke: #000000; stroke-width: 2; stroke-linejoin: miter; stroke-linecap: square"/>
   </g>
   <g id="line2d_12">
    <path d="M 109.62 114.134547 
L 112.208189 113.684317 
L 114.796379 119.571505 
L 117.384568 120.023832 
L 119.972758 120.844188 
L 122.560947 117.345111 
L 125.149136 116.802413 
L 127.737326 113.499981 
L 130.325515 120.642242 
L 132.913705 118.852832 
L 135.501894 130.576888 
L 138.090084 130.996106 
L 140.678273 127.788564 
L 143.266462 125.814608 
L 145.854652 124.935134 
L 148.442841 127.753747 
L 151.031031 131.416197 
L 153.61922 134.394626 
L 156.207409 136.557471 
L 158.795599 134.223126 
L 161.383788 135.538077 
L 163.971978 136.684308 
L 166.560167 138.306907 
L 169.148357 137.758937 
L 171.736546 140.916062 
L 174.324735 143.204569 
L 176.912925 140.228312 
L 179.501114 132.697341 
L 182.089304 129.407383 
L 184.677493 135.251363 
L 187.265682 135.142637 
L 189.853872 138.741064 
L 192.442061 137.408558 
L 195.030251 136.811906 
L 197.61844 137.414621 
L 200.20663 139.689115 
L 202.794819 142.126967 
L 205.383008 143.071298 
L 207.971198 145.131929 
L 210.559387 144.157118 
L 213.147577 148.404053 
L 215.735766 148.067428 
L 218.323955 144.581675 
L 220.912145 150.968954 
L 223.500334 155.895575 
L 226.088524 158.399843 
L 228.676713 159.377803 
L 231.264903 160.211846 
L 233.853092 157.309633 
L 236.441281 158.059381 
L 239.029471 160.778149 
L 241.61766 160.163193 
L 244.20585 155.037099 
L 246.794039 152.123849 
L 249.382228 152.631564 
L 251.970418 149.624062 
L 254.558607 150.697148 
L 257.146797 150.361349 
L 259.734986 152.975379 
L 262.323175 155.298173 
L 264.911365 151.54696 
L 267.499554 150.034208 
L 270.087744 151.02812 
L 272.675933 151.271127 
L 275.264123 152.868025 
L 277.852312 154.78975 
L 280.440501 159.90238 
L 283.028691 158.395221 
L 285.61688 159.919353 
L 288.20507 166.382508 
L 290.793259 168.843992 
L 293.381448 170.724821 
L 295.969638 165.916748 
L 298.557827 169.480375 
L 301.146017 171.018589 
L 303.734206 168.966495 
L 306.322396 171.623554 
L 308.910585 174.478474 
L 311.498774 179.131792 
L 314.086964 178.909816 
L 316.675153 174.429884 
L 319.263343 173.159655 
L 321.851532 172.46458 
L 324.439721 169.166071 
L 327.027911 170.923994 
L 329.6161 171.639331 
L 332.20429 170.681125 
L 334.792479 172.752013 
L 337.380669 174.290444 
L 339.968858 180.135285 
L 342.557047 177.997516 
L 345.145237 176.132634 
L 347.733426 173.005283 
L 350.321616 167.534597 
L 352.909805 171.589912 
L 355.497994 166.657831 
L 358.086184 166.699141 
L 363.262563 174.111606 
L 365.850752 175.034803 
L 368.438942 177.492822 
L 371.027131 175.480083 
L 373.61532 173.868452 
L 376.20351 174.217116 
L 378.791699 172.627733 
L 381.379889 171.322593 
L 383.968078 172.802279 
L 386.556267 173.154625 
L 389.144457 175.495527 
L 391.732646 178.1764 
L 394.320836 181.097778 
L 396.909025 180.076526 
L 399.497214 182.152872 
L 402.085404 182.222038 
L 404.673593 181.654544 
L 407.261783 178.962836 
L 409.849972 181.567186 
L 412.438162 179.930497 
L 415.026351 180.779212 
L 417.61454 184.115744 
L 420.20273 185.493714 
L 425.379109 189.061991 
L 427.967298 192.268134 
L 430.555487 193.937958 
L 433.143677 192.151042 
L 435.731866 194.938736 
L 438.320056 197.488045 
L 443.496435 197.876501 
L 446.084624 198.357696 
L 448.672813 201.952235 
L 451.261003 201.596552 
L 453.849192 200.678998 
L 456.437382 199.027015 
L 459.025571 198.115432 
L 461.61376 196.156956 
L 464.20195 193.645501 
L 466.790139 186.914847 
L 469.378329 184.358188 
L 471.966518 182.443807 
L 474.554708 184.383767 
L 477.142897 184.964539 
L 479.731086 183.892109 
L 482.319276 185.078882 
L 484.907465 185.367983 
L 487.495655 185.394741 
L 490.083844 188.850987 
L 492.672033 188.558993 
L 495.260223 187.55107 
L 497.848412 187.985814 
L 500.436602 190.233179 
L 503.024791 191.698507 
L 505.612981 192.306384 
L 508.20117 194.96153 
L 510.789359 198.248835 
L 513.377549 200.550769 
L 515.965738 199.273596 
L 518.553928 195.778781 
L 521.142117 195.211515 
L 523.730306 195.361132 
L 526.318496 194.189238 
L 528.906685 190.297757 
L 531.494875 188.908023 
L 534.083064 186.429073 
L 536.671253 184.99141 
L 539.259443 183.966472 
L 541.847632 184.433401 
L 544.435822 181.385992 
L 547.024011 180.315859 
L 549.612201 181.215564 
L 552.20039 180.423137 
L 554.788579 177.719058 
L 557.376769 175.89832 
L 562.553148 176.891252 
L 565.141337 177.109448 
L 567.729526 175.691044 
L 570.317716 176.555076 
L 572.905905 178.23606 
L 575.494095 181.413215 
L 578.082284 180.817352 
L 580.670474 180.802306 
L 583.258663 183.306929 
L 585.846852 180.821256 
L 591.023231 185.089597 
L 593.611421 182.203961 
L 596.19961 181.362048 
L 598.787799 188.108543 
L 601.375989 182.961258 
L 603.964178 182.720365 
L 606.552368 182.841415 
L 609.140557 181.137792 
L 614.316936 182.303435 
L 616.905125 184.810162 
L 619.493315 185.713662 
L 622.081504 183.340783 
L 624.669694 185.242994 
L 627.257883 182.353979 
L 629.846072 183.820767 
L 632.434262 181.11787 
L 635.022451 179.673565 
L 637.610641 180.106671 
L 640.19883 173.93875 
L 642.787019 171.99165 
L 645.375209 174.550836 
L 647.963398 174.535939 
L 650.551588 174.781761 
L 653.139777 176.792026 
L 655.727967 178.017362 
L 658.316156 174.730331 
L 660.904345 171.168697 
L 663.492535 170.249665 
L 666.080724 174.197031 
L 668.668914 172.430916 
L 671.257103 171.159372 
L 673.845292 172.43491 
L 676.433482 174.507105 
L 679.021671 177.990875 
L 681.609861 177.674349 
L 684.19805 183.374843 
L 686.78624 182.162921 
L 689.374429 187.442729 
L 691.962618 186.039254 
L 694.550808 186.595195 
L 697.138997 187.750149 
L 699.727187 188.017315 
L 702.315376 190.618571 
L 704.903565 193.866775 
L 707.491755 192.054771 
L 710.079944 185.217923 
L 712.668134 186.299288 
L 715.256323 190.358216 
L 717.844513 190.229204 
L 720.432702 189.742425 
L 723.020891 185.156151 
L 725.609081 183.920312 
L 730.78546 187.498058 
L 733.373649 185.925454 
L 735.961838 187.31405 
L 738.550028 189.678058 
L 741.138217 191.797208 
L 743.726407 192.184794 
L 746.314596 189.583538 
L 748.902786 188.737474 
L 751.490975 189.566362 
L 754.079164 197.138998 
L 756.667354 197.105764 
L 759.255543 199.409497 
L 761.843733 195.558793 
L 764.431922 195.672313 
L 767.020111 200.203603 
L 769.608301 199.585598 
L 772.19649 194.027584 
L 774.78468 192.281614 
L 777.372869 192.171175 
L 779.961058 190.889017 
L 782.549248 188.787983 
L 785.137437 185.097643 
L 787.725627 182.642083 
L 790.313816 178.011756 
L 792.902006 175.609616 
L 795.490195 178.543427 
L 798.078384 175.496035 
L 800.666574 174.693727 
L 803.254763 172.623568 
L 805.842953 174.402048 
L 808.431142 173.772505 
L 811.019331 170.343719 
L 813.607521 170.122662 
L 816.19571 173.970872 
L 818.7839 175.604933 
L 821.372089 174.697776 
L 823.960279 173.133673 
L 826.548468 171.203606 
L 829.136657 171.891116 
L 831.724847 174.379546 
L 834.313036 179.3206 
L 836.901226 180.233159 
L 839.489415 178.158923 
L 842.077604 180.470527 
L 844.665794 180.486059 
L 847.253983 181.357139 
L 849.842173 183.159729 
L 852.430362 187.330304 
L 855.018552 191.07405 
L 857.606741 198.383648 
L 860.19493 198.969818 
L 862.78312 191.559568 
L 865.371309 190.381449 
L 870.547688 193.626018 
L 873.135877 192.924878 
L 875.724067 188.765478 
L 878.312256 190.681023 
L 880.900446 188.452914 
L 883.488635 188.452914 
L 886.076825 188.035425 
L 888.665014 189.382679 
L 891.253203 191.10069 
L 893.841393 187.266198 
L 896.429582 187.403112 
L 899.017772 182.259591 
L 901.605961 178.257489 
L 904.19415 180.176405 
L 906.78234 182.816556 
L 909.370529 186.281607 
L 911.958719 185.305565 
L 914.546908 182.63445 
L 917.135097 184.743431 
L 919.723287 188.076138 
L 922.311476 186.960473 
L 924.899666 191.11865 
L 927.487855 187.407786 
L 930.076045 184.403063 
L 932.664234 183.71056 
L 935.252423 180.406132 
L 937.840613 183.61419 
L 940.428802 182.513015 
L 943.016992 185.172497 
L 945.605181 185.809254 
L 948.19337 182.33624 
L 950.78156 187.331209 
L 953.369749 186.302003 
L 955.957939 187.83949 
L 958.546128 187.944075 
L 961.134318 188.27325 
L 963.722507 186.598142 
L 966.310696 186.023325 
L 968.898886 183.744594 
L 971.487075 187.19708 
L 974.075265 189.516007 
L 976.663454 186.808903 
L 979.251643 189.232136 
L 981.839833 188.736338 
L 987.016212 192.390437 
L 989.604401 191.78256 
L 992.192591 192.873711 
L 994.78078 192.475064 
L 997.368969 191.845084 
L 999.957159 192.612049 
L 1002.545348 196.428146 
L 1005.133538 194.209935 
L 1007.721727 196.039667 
L 1010.309916 194.905538 
L 1012.898106 196.921296 
L 1015.486295 191.641023 
L 1018.074485 191.532995 
L 1020.662674 187.907625 
L 1023.250864 187.375793 
L 1028.427242 183.53906 
L 1031.015432 180.527664 
L 1033.603621 183.18687 
L 1036.191811 184.176068 
L 1038.78 183.912352 
L 1038.78 183.912352 
" clip-path="url(#p39840475a8)" style="fill: none; stroke: #203d9a; stroke-width: 5; stroke-linecap: square"/>
   </g>
  </g>
 </g>
 <defs>
  <clipPath id="p39840475a8">
   <rect x="109.62" y="6.624" width="929.16" height="245.088"/>
  </clipPath>
 </defs>
</svg>
