<?xml version="1.0" encoding="utf-8" standalone="no"?>
<!DOCTYPE svg PUBLIC "-//W3C//DTD SVG 1.1//EN"
  "http://www.w3.org/Graphics/SVG/1.1/DTD/svg11.dtd">
<svg xmlns:xlink="http://www.w3.org/1999/xlink" width="518.4pt" height="273.6pt" viewBox="0 0 518.4 273.6" xmlns="http://www.w3.org/2000/svg" version="1.1">
 <metadata>
  <rdf:RDF xmlns:dc="http://purl.org/dc/elements/1.1/" xmlns:cc="http://creativecommons.org/ns#" xmlns:rdf="http://www.w3.org/1999/02/22-rdf-syntax-ns#">
   <cc:Work>
    <dc:type rdf:resource="http://purl.org/dc/dcmitype/StillImage"/>
    <dc:date>2026-02-11T19:45:39.166752</dc:date>
    <dc:format>image/svg+xml</dc:format>
    <dc:creator>
     <cc:Agent>
      <dc:title>Matplotlib v3.10.0, https://matplotlib.org/</dc:title>
     </cc:Agent>
    </dc:creator>
   </cc:Work>
  </rdf:RDF>
 </metadata>
 <defs>
  <style type="text/css">*{stroke-linejoin: round; stroke-linecap: butt}</style>
 </defs>
 <g id="figure_1">
  <g id="patch_1">
   <path d="M 0 273.6 
L 518.4 273.6 
L 518.4 0 
L 0 0 
z
" style="fill: #ffffff"/>
  </g>
  <g id="axes_1">
   <g id="patch_2">
    <path d="M 77.24 220.12 
L 507.6 220.12 
L 507.6 10.8 
L 77.24 10.8 
z
" style="fill: #ffffff"/>
   </g>
   <g id="patch_3">
    <path d="M 96.801818 220.12 
L 103.322424 220.12 
L 103.322424 219.448214 
L 96.801818 219.448214 
z
" clip-path="url(#p5e93b4384d)" style="fill: #1f77b4; opacity: 0.85"/>
   </g>
   <g id="patch_4">
    <path d="M 103.322424 220.12 
L 109.84303 220.12 
L 109.84303 219.280268 
L 103.322424 219.280268 
z
" clip-path="url(#p5e93b4384d)" style="fill: #1f77b4; opacity: 0.85"/>
   </g>
   <g id="patch_5">
    <path d="M 109.84303 220.12 
L 116.363636 220.12 
L 116.363636 216.761072 
L 109.84303 216.761072 
z
" clip-path="url(#p5e93b4384d)" style="fill: #1f77b4; opacity: 0.85"/>
   </g>
   <g id="patch_6">
    <path d="M 116.363636 220.12 
L 122.884242 220.12 
L 122.884242 213.57009 
L 116.363636 213.57009 
z
" clip-path="url(#p5e93b4384d)" style="fill: #1f77b4; opacity: 0.85"/>
   </g>
   <g id="patch_7">
    <path d="M 122.884242 220.12 
L 129.404848 220.12 
L 129.404848 208.531698 
L 122.884242 208.531698 
z
" clip-path="url(#p5e93b4384d)" style="fill: #1f77b4; opacity: 0.85"/>
   </g>
   <g id="patch_8">
    <path d="M 129.404848 220.12 
L 135.925455 220.12 
L 135.925455 199.462592 
L 129.404848 199.462592 
z
" clip-path="url(#p5e93b4384d)" style="fill: #1f77b4; opacity: 0.85"/>
   </g>
   <g id="patch_9">
    <path d="M 135.925455 220.12 
L 142.446061 220.12 
L 142.446061 181.82822 
L 135.925455 181.82822 
z
" clip-path="url(#p5e93b4384d)" style="fill: #1f77b4; opacity: 0.85"/>
   </g>
   <g id="patch_10">
    <path d="M 142.446061 220.12 
L 148.966667 220.12 
L 148.966667 161.842598 
L 142.446061 161.842598 
z
" clip-path="url(#p5e93b4384d)" style="fill: #1f77b4; opacity: 0.85"/>
   </g>
   <g id="patch_11">
    <path d="M 148.966667 220.12 
L 155.487273 220.12 
L 155.487273 145.38385 
L 148.966667 145.38385 
z
" clip-path="url(#p5e93b4384d)" style="fill: #1f77b4; opacity: 0.85"/>
   </g>
   <g id="patch_12">
    <path d="M 155.487273 220.12 
L 162.007879 220.12 
L 162.007879 117.84064 
L 155.487273 117.84064 
z
" clip-path="url(#p5e93b4384d)" style="fill: #1f77b4; opacity: 0.85"/>
   </g>
   <g id="patch_13">
    <path d="M 162.007879 220.12 
L 168.528485 220.12 
L 168.528485 97.855018 
L 162.007879 97.855018 
z
" clip-path="url(#p5e93b4384d)" style="fill: #1f77b4; opacity: 0.85"/>
   </g>
   <g id="patch_14">
    <path d="M 168.528485 220.12 
L 175.049091 220.12 
L 175.049091 79.884753 
L 168.528485 79.884753 
z
" clip-path="url(#p5e93b4384d)" style="fill: #1f77b4; opacity: 0.85"/>
   </g>
   <g id="patch_15">
    <path d="M 175.049091 220.12 
L 181.569697 220.12 
L 181.569697 61.914488 
L 175.049091 61.914488 
z
" clip-path="url(#p5e93b4384d)" style="fill: #1f77b4; opacity: 0.85"/>
   </g>
   <g id="patch_16">
    <path d="M 181.569697 220.12 
L 188.090303 220.12 
L 188.090303 39.913509 
L 181.569697 39.913509 
z
" clip-path="url(#p5e93b4384d)" style="fill: #1f77b4; opacity: 0.85"/>
   </g>
   <g id="patch_17">
    <path d="M 188.090303 220.12 
L 194.610909 220.12 
L 194.610909 32.85976 
L 188.090303 32.85976 
z
" clip-path="url(#p5e93b4384d)" style="fill: #1f77b4; opacity: 0.85"/>
   </g>
   <g id="patch_18">
    <path d="M 194.610909 220.12 
L 201.131515 220.12 
L 201.131515 37.562259 
L 194.610909 37.562259 
z
" clip-path="url(#p5e93b4384d)" style="fill: #1f77b4; opacity: 0.85"/>
   </g>
   <g id="patch_19">
    <path d="M 201.131515 220.12 
L 207.652121 220.12 
L 207.652121 20.767619 
L 201.131515 20.767619 
z
" clip-path="url(#p5e93b4384d)" style="fill: #1f77b4; opacity: 0.85"/>
   </g>
   <g id="patch_20">
    <path d="M 207.652121 220.12 
L 214.172727 220.12 
L 214.172727 31.348242 
L 207.652121 31.348242 
z
" clip-path="url(#p5e93b4384d)" style="fill: #1f77b4; opacity: 0.85"/>
   </g>
   <g id="patch_21">
    <path d="M 214.172727 220.12 
L 220.693333 220.12 
L 220.693333 26.645743 
L 214.172727 26.645743 
z
" clip-path="url(#p5e93b4384d)" style="fill: #1f77b4; opacity: 0.85"/>
   </g>
   <g id="patch_22">
    <path d="M 220.693333 220.12 
L 227.213939 220.12 
L 227.213939 48.310829 
L 220.693333 48.310829 
z
" clip-path="url(#p5e93b4384d)" style="fill: #1f77b4; opacity: 0.85"/>
   </g>
   <g id="patch_23">
    <path d="M 227.213939 220.12 
L 233.734545 220.12 
L 233.734545 42.768598 
L 227.213939 42.768598 
z
" clip-path="url(#p5e93b4384d)" style="fill: #1f77b4; opacity: 0.85"/>
   </g>
   <g id="patch_24">
    <path d="M 233.734545 220.12 
L 240.255152 220.12 
L 240.255152 68.968237 
L 233.734545 68.968237 
z
" clip-path="url(#p5e93b4384d)" style="fill: #1f77b4; opacity: 0.85"/>
   </g>
   <g id="patch_25">
    <path d="M 240.255152 220.12 
L 246.775758 220.12 
L 246.775758 83.411628 
L 240.255152 83.411628 
z
" clip-path="url(#p5e93b4384d)" style="fill: #1f77b4; opacity: 0.85"/>
   </g>
   <g id="patch_26">
    <path d="M 246.775758 220.12 
L 253.296364 220.12 
L 253.296364 90.801269 
L 246.775758 90.801269 
z
" clip-path="url(#p5e93b4384d)" style="fill: #1f77b4; opacity: 0.85"/>
   </g>
   <g id="patch_27">
    <path d="M 253.296364 220.12 
L 259.81697 220.12 
L 259.81697 108.603588 
L 253.296364 108.603588 
z
" clip-path="url(#p5e93b4384d)" style="fill: #1f77b4; opacity: 0.85"/>
   </g>
   <g id="patch_28">
    <path d="M 259.81697 220.12 
L 266.337576 220.12 
L 266.337576 124.726443 
L 259.81697 124.726443 
z
" clip-path="url(#p5e93b4384d)" style="fill: #1f77b4; opacity: 0.85"/>
   </g>
   <g id="patch_29">
    <path d="M 266.337576 220.12 
L 272.858182 220.12 
L 272.858182 140.177512 
L 266.337576 140.177512 
z
" clip-path="url(#p5e93b4384d)" style="fill: #1f77b4; opacity: 0.85"/>
   </g>
   <g id="patch_30">
    <path d="M 272.858182 220.12 
L 279.378788 220.12 
L 279.378788 146.391529 
L 272.858182 146.391529 
z
" clip-path="url(#p5e93b4384d)" style="fill: #1f77b4; opacity: 0.85"/>
   </g>
   <g id="patch_31">
    <path d="M 279.378788 220.12 
L 285.899394 220.12 
L 285.899394 157.140099 
L 279.378788 157.140099 
z
" clip-path="url(#p5e93b4384d)" style="fill: #1f77b4; opacity: 0.85"/>
   </g>
   <g id="patch_32">
    <path d="M 285.899394 220.12 
L 292.42 220.12 
L 292.42 160.83492 
L 285.899394 160.83492 
z
" clip-path="url(#p5e93b4384d)" style="fill: #1f77b4; opacity: 0.85"/>
   </g>
   <g id="patch_33">
    <path d="M 292.42 220.12 
L 298.940606 220.12 
L 298.940606 177.293667 
L 292.42 177.293667 
z
" clip-path="url(#p5e93b4384d)" style="fill: #1f77b4; opacity: 0.85"/>
   </g>
   <g id="patch_34">
    <path d="M 298.940606 220.12 
L 305.461212 220.12 
L 305.461212 181.660274 
L 298.940606 181.660274 
z
" clip-path="url(#p5e93b4384d)" style="fill: #1f77b4; opacity: 0.85"/>
   </g>
   <g id="patch_35">
    <path d="M 305.461212 220.12 
L 311.981818 220.12 
L 311.981818 191.401165 
L 305.461212 191.401165 
z
" clip-path="url(#p5e93b4384d)" style="fill: #1f77b4; opacity: 0.85"/>
   </g>
   <g id="patch_36">
    <path d="M 311.981818 220.12 
L 318.502424 220.12 
L 318.502424 197.447236 
L 311.981818 197.447236 
z
" clip-path="url(#p5e93b4384d)" style="fill: #1f77b4; opacity: 0.85"/>
   </g>
   <g id="patch_37">
    <path d="M 318.502424 220.12 
L 325.02303 220.12 
L 325.02303 198.119021 
L 318.502424 198.119021 
z
" clip-path="url(#p5e93b4384d)" style="fill: #1f77b4; opacity: 0.85"/>
   </g>
   <g id="patch_38">
    <path d="M 325.02303 220.12 
L 331.543636 220.12 
L 331.543636 204.668931 
L 325.02303 204.668931 
z
" clip-path="url(#p5e93b4384d)" style="fill: #1f77b4; opacity: 0.85"/>
   </g>
   <g id="patch_39">
    <path d="M 331.543636 220.12 
L 338.064242 220.12 
L 338.064242 203.997145 
L 331.543636 203.997145 
z
" clip-path="url(#p5e93b4384d)" style="fill: #1f77b4; opacity: 0.85"/>
   </g>
   <g id="patch_40">
    <path d="M 338.064242 220.12 
L 344.584848 220.12 
L 344.584848 209.539377 
L 338.064242 209.539377 
z
" clip-path="url(#p5e93b4384d)" style="fill: #1f77b4; opacity: 0.85"/>
   </g>
   <g id="patch_41">
    <path d="M 344.584848 220.12 
L 351.105455 220.12 
L 351.105455 209.035537 
L 344.584848 209.035537 
z
" clip-path="url(#p5e93b4384d)" style="fill: #1f77b4; opacity: 0.85"/>
   </g>
   <g id="patch_42">
    <path d="M 351.105455 220.12 
L 357.626061 220.12 
L 357.626061 213.905983 
L 351.105455 213.905983 
z
" clip-path="url(#p5e93b4384d)" style="fill: #1f77b4; opacity: 0.85"/>
   </g>
   <g id="patch_43">
    <path d="M 357.626061 220.12 
L 364.146667 220.12 
L 364.146667 216.593126 
L 357.626061 216.593126 
z
" clip-path="url(#p5e93b4384d)" style="fill: #1f77b4; opacity: 0.85"/>
   </g>
   <g id="patch_44">
    <path d="M 364.146667 220.12 
L 370.667273 220.12 
L 370.667273 214.409822 
L 364.146667 214.409822 
z
" clip-path="url(#p5e93b4384d)" style="fill: #1f77b4; opacity: 0.85"/>
   </g>
   <g id="patch_45">
    <path d="M 370.667273 220.12 
L 377.187879 220.12 
L 377.187879 216.425179 
L 370.667273 216.425179 
z
" clip-path="url(#p5e93b4384d)" style="fill: #1f77b4; opacity: 0.85"/>
   </g>
   <g id="patch_46">
    <path d="M 377.187879 220.12 
L 383.708485 220.12 
L 383.708485 216.593126 
L 377.187879 216.593126 
z
" clip-path="url(#p5e93b4384d)" style="fill: #1f77b4; opacity: 0.85"/>
   </g>
   <g id="patch_47">
    <path d="M 383.708485 220.12 
L 390.229091 220.12 
L 390.229091 217.264911 
L 383.708485 217.264911 
z
" clip-path="url(#p5e93b4384d)" style="fill: #1f77b4; opacity: 0.85"/>
   </g>
   <g id="patch_48">
    <path d="M 390.229091 220.12 
L 396.749697 220.12 
L 396.749697 218.608482 
L 390.229091 218.608482 
z
" clip-path="url(#p5e93b4384d)" style="fill: #1f77b4; opacity: 0.85"/>
   </g>
   <g id="patch_49">
    <path d="M 396.749697 220.12 
L 403.270303 220.12 
L 403.270303 218.776429 
L 396.749697 218.776429 
z
" clip-path="url(#p5e93b4384d)" style="fill: #1f77b4; opacity: 0.85"/>
   </g>
   <g id="patch_50">
    <path d="M 403.270303 220.12 
L 409.790909 220.12 
L 409.790909 219.280268 
L 403.270303 219.280268 
z
" clip-path="url(#p5e93b4384d)" style="fill: #1f77b4; opacity: 0.85"/>
   </g>
   <g id="patch_51">
    <path d="M 409.790909 220.12 
L 416.311515 220.12 
L 416.311515 219.784107 
L 409.790909 219.784107 
z
" clip-path="url(#p5e93b4384d)" style="fill: #1f77b4; opacity: 0.85"/>
   </g>
   <g id="patch_52">
    <path d="M 416.311515 220.12 
L 422.832121 220.12 
L 422.832121 218.944375 
L 416.311515 218.944375 
z
" clip-path="url(#p5e93b4384d)" style="fill: #1f77b4; opacity: 0.85"/>
   </g>
   <g id="patch_53">
    <path d="M 422.832121 220.12 
L 429.352727 220.12 
L 429.352727 219.784107 
L 422.832121 219.784107 
z
" clip-path="url(#p5e93b4384d)" style="fill: #1f77b4; opacity: 0.85"/>
   </g>
   <g id="patch_54">
    <path d="M 429.352727 220.12 
L 435.873333 220.12 
L 435.873333 219.952054 
L 429.352727 219.952054 
z
" clip-path="url(#p5e93b4384d)" style="fill: #1f77b4; opacity: 0.85"/>
   </g>
   <g id="patch_55">
    <path d="M 435.873333 220.12 
L 442.393939 220.12 
L 442.393939 219.952054 
L 435.873333 219.952054 
z
" clip-path="url(#p5e93b4384d)" style="fill: #1f77b4; opacity: 0.85"/>
   </g>
   <g id="patch_56">
    <path d="M 442.393939 220.12 
L 448.914545 220.12 
L 448.914545 219.952054 
L 442.393939 219.952054 
z
" clip-path="url(#p5e93b4384d)" style="fill: #1f77b4; opacity: 0.85"/>
   </g>
   <g id="patch_57">
    <path d="M 448.914545 220.12 
L 455.435152 220.12 
L 455.435152 219.952054 
L 448.914545 219.952054 
z
" clip-path="url(#p5e93b4384d)" style="fill: #1f77b4; opacity: 0.85"/>
   </g>
   <g id="patch_58">
    <path d="M 455.435152 220.12 
L 461.955758 220.12 
L 461.955758 220.12 
L 455.435152 220.12 
z
" clip-path="url(#p5e93b4384d)" style="fill: #1f77b4; opacity: 0.85"/>
   </g>
   <g id="patch_59">
    <path d="M 461.955758 220.12 
L 468.476364 220.12 
L 468.476364 219.952054 
L 461.955758 219.952054 
z
" clip-path="url(#p5e93b4384d)" style="fill: #1f77b4; opacity: 0.85"/>
   </g>
   <g id="patch_60">
    <path d="M 468.476364 220.12 
L 474.99697 220.12 
L 474.99697 220.12 
L 468.476364 220.12 
z
" clip-path="url(#p5e93b4384d)" style="fill: #1f77b4; opacity: 0.85"/>
   </g>
   <g id="patch_61">
    <path d="M 474.99697 220.12 
L 481.517576 220.12 
L 481.517576 219.952054 
L 474.99697 219.952054 
z
" clip-path="url(#p5e93b4384d)" style="fill: #1f77b4; opacity: 0.85"/>
   </g>
   <g id="patch_62">
    <path d="M 481.517576 220.12 
L 488.038182 220.12 
L 488.038182 219.952054 
L 481.517576 219.952054 
z
" clip-path="url(#p5e93b4384d)" style="fill: #1f77b4; opacity: 0.85"/>
   </g>
   <g id="matplotlib.axis_1">
    <g id="xtick_1">
     <g id="line2d_1">
      <defs>
       <path id="m387bdaed20" d="M 0 0 
L 0 3.5 
" style="stroke: #000000; stroke-width: 0.8"/>
      </defs>
      <g>
       <use xlink:href="#m387bdaed20" x="145.07475" y="220.12" style="stroke: #000000; stroke-width: 0.8"/>
      </g>
     </g>
     <g id="text_1">
      <!-- 10 -->
      <g transform="translate(135.531 238.517656) scale(0.15 -0.15)">
       <defs>
        <path id="DejaVuSans-31" d="M 794 531 
L 1825 531 
L 1825 4091 
L 703 3866 
L 703 4441 
L 1819 4666 
L 2450 4666 
L 2450 531 
L 3481 531 
L 3481 0 
L 794 0 
L 794 531 
z
" transform="scale(0.015625)"/>
        <path id="DejaVuSans-30" d="M 2034 4250 
Q 1547 4250 1301 3770 
Q 1056 3291 1056 2328 
Q 1056 1369 1301 889 
Q 1547 409 2034 409 
Q 2525 409 2770 889 
Q 3016 1369 3016 2328 
Q 3016 3291 2770 3770 
Q 2525 4250 2034 4250 
z
M 2034 4750 
Q 2819 4750 3233 4129 
Q 3647 3509 3647 2328 
Q 3647 1150 3233 529 
Q 2819 -91 2034 -91 
Q 1250 -91 836 529 
Q 422 1150 422 2328 
Q 422 3509 836 4129 
Q 1250 4750 2034 4750 
z
" transform="scale(0.015625)"/>
       </defs>
       <use xlink:href="#DejaVuSans-31"/>
       <use xlink:href="#DejaVuSans-30" transform="translate(63.623047 0)"/>
      </g>
     </g>
    </g>
    <g id="xtick_2">
     <g id="line2d_2">
      <g>
       <use xlink:href="#m387bdaed20" x="219.263364" y="220.12" style="stroke: #000000; stroke-width: 0.8"/>
      </g>
     </g>
     <g id="text_2">
      <!-- 20 -->
      <g transform="translate(209.719614 238.517656) scale(0.15 -0.15)">
       <defs>
        <path id="DejaVuSans-32" d="M 1228 531 
L 3431 531 
L 3431 0 
L 469 0 
L 469 531 
Q 828 903 1448 1529 
Q 2069 2156 2228 2338 
Q 2531 2678 2651 2914 
Q 2772 3150 2772 3378 
Q 2772 3750 2511 3984 
Q 2250 4219 1831 4219 
Q 1534 4219 1204 4116 
Q 875 4013 500 3803 
L 500 4441 
Q 881 4594 1212 4672 
Q 1544 4750 1819 4750 
Q 2544 4750 2975 4387 
Q 3406 4025 3406 3419 
Q 3406 3131 3298 2873 
Q 3191 2616 2906 2266 
Q 2828 2175 2409 1742 
Q 1991 1309 1228 531 
z
" transform="scale(0.015625)"/>
       </defs>
       <use xlink:href="#DejaVuSans-32"/>
       <use xlink:href="#DejaVuSans-30" transform="translate(63.623047 0)"/>
      </g>
     </g>
    </g>
    <g id="xtick_3">
     <g id="line2d_3">
      <g>
       <use xlink:href="#m387bdaed20" x="293.451977" y="220.12" style="stroke: #000000; stroke-width: 0.8"/>
      </g>
     </g>
     <g id="text_3">
      <!-- 30 -->
      <g transform="translate(283.908227 238.517656) scale(0.15 -0.15)">
       <defs>
        <path id="DejaVuSans-33" d="M 2597 2516 
Q 3050 2419 3304 2112 
Q 3559 1806 3559 1356 
Q 3559 666 3084 287 
Q 2609 -91 1734 -91 
Q 1441 -91 1130 -33 
Q 819 25 488 141 
L 488 750 
Q 750 597 1062 519 
Q 1375 441 1716 441 
Q 2309 441 2620 675 
Q 2931 909 2931 1356 
Q 2931 1769 2642 2001 
Q 2353 2234 1838 2234 
L 1294 2234 
L 1294 2753 
L 1863 2753 
Q 2328 2753 2575 2939 
Q 2822 3125 2822 3475 
Q 2822 3834 2567 4026 
Q 2313 4219 1838 4219 
Q 1578 4219 1281 4162 
Q 984 4106 628 3988 
L 628 4550 
Q 988 4650 1302 4700 
Q 1616 4750 1894 4750 
Q 2613 4750 3031 4423 
Q 3450 4097 3450 3541 
Q 3450 3153 3228 2886 
Q 3006 2619 2597 2516 
z
" transform="scale(0.015625)"/>
       </defs>
       <use xlink:href="#DejaVuSans-33"/>
       <use xlink:href="#DejaVuSans-30" transform="translate(63.623047 0)"/>
      </g>
     </g>
    </g>
    <g id="xtick_4">
     <g id="line2d_4">
      <g>
       <use xlink:href="#m387bdaed20" x="367.640591" y="220.12" style="stroke: #000000; stroke-width: 0.8"/>
      </g>
     </g>
     <g id="text_4">
      <!-- 40 -->
      <g transform="translate(358.096841 238.517656) scale(0.15 -0.15)">
       <defs>
        <path id="DejaVuSans-34" d="M 2419 4116 
L 825 1625 
L 2419 1625 
L 2419 4116 
z
M 2253 4666 
L 3047 4666 
L 3047 1625 
L 3713 1625 
L 3713 1100 
L 3047 1100 
L 3047 0 
L 2419 0 
L 2419 1100 
L 313 1100 
L 313 1709 
L 2253 4666 
z
" transform="scale(0.015625)"/>
       </defs>
       <use xlink:href="#DejaVuSans-34"/>
       <use xlink:href="#DejaVuSans-30" transform="translate(63.623047 0)"/>
      </g>
     </g>
    </g>
    <g id="xtick_5">
     <g id="line2d_5">
      <g>
       <use xlink:href="#m387bdaed20" x="441.829205" y="220.12" style="stroke: #000000; stroke-width: 0.8"/>
      </g>
     </g>
     <g id="text_5">
      <!-- 50 -->
      <g transform="translate(432.285455 238.517656) scale(0.15 -0.15)">
       <defs>
        <path id="DejaVuSans-35" d="M 691 4666 
L 3169 4666 
L 3169 4134 
L 1269 4134 
L 1269 2991 
Q 1406 3038 1543 3061 
Q 1681 3084 1819 3084 
Q 2600 3084 3056 2656 
Q 3513 2228 3513 1497 
Q 3513 744 3044 326 
Q 2575 -91 1722 -91 
Q 1428 -91 1123 -41 
Q 819 9 494 109 
L 494 744 
Q 775 591 1075 516 
Q 1375 441 1709 441 
Q 2250 441 2565 725 
Q 2881 1009 2881 1497 
Q 2881 1984 2565 2268 
Q 2250 2553 1709 2553 
Q 1456 2553 1204 2497 
Q 953 2441 691 2322 
L 691 4666 
z
" transform="scale(0.015625)"/>
       </defs>
       <use xlink:href="#DejaVuSans-35"/>
       <use xlink:href="#DejaVuSans-30" transform="translate(63.623047 0)"/>
      </g>
     </g>
    </g>
    <g id="text_6">
     <!-- Chi-square statistic under Multinomial null -->
     <g transform="translate(101.902656 259.314375) scale(0.18 -0.18)">
      <defs>
       <path id="DejaVuSans-43" d="M 4122 4306 
L 4122 3641 
Q 3803 3938 3442 4084 
Q 3081 4231 2675 4231 
Q 1875 4231 1450 3742 
Q 1025 3253 1025 2328 
Q 1025 1406 1450 917 
Q 1875 428 2675 428 
Q 3081 428 3442 575 
Q 3803 722 4122 1019 
L 4122 359 
Q 3791 134 3420 21 
Q 3050 -91 2638 -91 
Q 1578 -91 968 557 
Q 359 1206 359 2328 
Q 359 3453 968 4101 
Q 1578 4750 2638 4750 
Q 3056 4750 3426 4639 
Q 3797 4528 4122 4306 
z
" transform="scale(0.015625)"/>
       <path id="DejaVuSans-68" d="M 3513 2113 
L 3513 0 
L 2938 0 
L 2938 2094 
Q 2938 2591 2744 2837 
Q 2550 3084 2163 3084 
Q 1697 3084 1428 2787 
Q 1159 2491 1159 1978 
L 1159 0 
L 581 0 
L 581 4863 
L 1159 4863 
L 1159 2956 
Q 1366 3272 1645 3428 
Q 1925 3584 2291 3584 
Q 2894 3584 3203 3211 
Q 3513 2838 3513 2113 
z
" transform="scale(0.015625)"/>
       <path id="DejaVuSans-69" d="M 603 3500 
L 1178 3500 
L 1178 0 
L 603 0 
L 603 3500 
z
M 603 4863 
L 1178 4863 
L 1178 4134 
L 603 4134 
L 603 4863 
z
" transform="scale(0.015625)"/>
       <path id="DejaVuSans-2d" d="M 313 2009 
L 1997 2009 
L 1997 1497 
L 313 1497 
L 313 2009 
z
" transform="scale(0.015625)"/>
       <path id="DejaVuSans-73" d="M 2834 3397 
L 2834 2853 
Q 2591 2978 2328 3040 
Q 2066 3103 1784 3103 
Q 1356 3103 1142 2972 
Q 928 2841 928 2578 
Q 928 2378 1081 2264 
Q 1234 2150 1697 2047 
L 1894 2003 
Q 2506 1872 2764 1633 
Q 3022 1394 3022 966 
Q 3022 478 2636 193 
Q 2250 -91 1575 -91 
Q 1294 -91 989 -36 
Q 684 19 347 128 
L 347 722 
Q 666 556 975 473 
Q 1284 391 1588 391 
Q 1994 391 2212 530 
Q 2431 669 2431 922 
Q 2431 1156 2273 1281 
Q 2116 1406 1581 1522 
L 1381 1569 
Q 847 1681 609 1914 
Q 372 2147 372 2553 
Q 372 3047 722 3315 
Q 1072 3584 1716 3584 
Q 2034 3584 2315 3537 
Q 2597 3491 2834 3397 
z
" transform="scale(0.015625)"/>
       <path id="DejaVuSans-71" d="M 947 1747 
Q 947 1113 1208 752 
Q 1469 391 1925 391 
Q 2381 391 2643 752 
Q 2906 1113 2906 1747 
Q 2906 2381 2643 2742 
Q 2381 3103 1925 3103 
Q 1469 3103 1208 2742 
Q 947 2381 947 1747 
z
M 2906 525 
Q 2725 213 2448 61 
Q 2172 -91 1784 -91 
Q 1150 -91 751 415 
Q 353 922 353 1747 
Q 353 2572 751 3078 
Q 1150 3584 1784 3584 
Q 2172 3584 2448 3432 
Q 2725 3281 2906 2969 
L 2906 3500 
L 3481 3500 
L 3481 -1331 
L 2906 -1331 
L 2906 525 
z
" transform="scale(0.015625)"/>
       <path id="DejaVuSans-75" d="M 544 1381 
L 544 3500 
L 1119 3500 
L 1119 1403 
Q 1119 906 1312 657 
Q 1506 409 1894 409 
Q 2359 409 2629 706 
Q 2900 1003 2900 1516 
L 2900 3500 
L 3475 3500 
L 3475 0 
L 2900 0 
L 2900 538 
Q 2691 219 2414 64 
Q 2138 -91 1772 -91 
Q 1169 -91 856 284 
Q 544 659 544 1381 
z
M 1991 3584 
L 1991 3584 
z
" transform="scale(0.015625)"/>
       <path id="DejaVuSans-61" d="M 2194 1759 
Q 1497 1759 1228 1600 
Q 959 1441 959 1056 
Q 959 750 1161 570 
Q 1363 391 1709 391 
Q 2188 391 2477 730 
Q 2766 1069 2766 1631 
L 2766 1759 
L 2194 1759 
z
M 3341 1997 
L 3341 0 
L 2766 0 
L 2766 531 
Q 2569 213 2275 61 
Q 1981 -91 1556 -91 
Q 1019 -91 701 211 
Q 384 513 384 1019 
Q 384 1609 779 1909 
Q 1175 2209 1959 2209 
L 2766 2209 
L 2766 2266 
Q 2766 2663 2505 2880 
Q 2244 3097 1772 3097 
Q 1472 3097 1187 3025 
Q 903 2953 641 2809 
L 641 3341 
Q 956 3463 1253 3523 
Q 1550 3584 1831 3584 
Q 2591 3584 2966 3190 
Q 3341 2797 3341 1997 
z
" transform="scale(0.015625)"/>
       <path id="DejaVuSans-72" d="M 2631 2963 
Q 2534 3019 2420 3045 
Q 2306 3072 2169 3072 
Q 1681 3072 1420 2755 
Q 1159 2438 1159 1844 
L 1159 0 
L 581 0 
L 581 3500 
L 1159 3500 
L 1159 2956 
Q 1341 3275 1631 3429 
Q 1922 3584 2338 3584 
Q 2397 3584 2469 3576 
Q 2541 3569 2628 3553 
L 2631 2963 
z
" transform="scale(0.015625)"/>
       <path id="DejaVuSans-65" d="M 3597 1894 
L 3597 1613 
L 953 1613 
Q 991 1019 1311 708 
Q 1631 397 2203 397 
Q 2534 397 2845 478 
Q 3156 559 3463 722 
L 3463 178 
Q 3153 47 2828 -22 
Q 2503 -91 2169 -91 
Q 1331 -91 842 396 
Q 353 884 353 1716 
Q 353 2575 817 3079 
Q 1281 3584 2069 3584 
Q 2775 3584 3186 3129 
Q 3597 2675 3597 1894 
z
M 3022 2063 
Q 3016 2534 2758 2815 
Q 2500 3097 2075 3097 
Q 1594 3097 1305 2825 
Q 1016 2553 972 2059 
L 3022 2063 
z
" transform="scale(0.015625)"/>
       <path id="DejaVuSans-20" transform="scale(0.015625)"/>
       <path id="DejaVuSans-74" d="M 1172 4494 
L 1172 3500 
L 2356 3500 
L 2356 3053 
L 1172 3053 
L 1172 1153 
Q 1172 725 1289 603 
Q 1406 481 1766 481 
L 2356 481 
L 2356 0 
L 1766 0 
Q 1100 0 847 248 
Q 594 497 594 1153 
L 594 3053 
L 172 3053 
L 172 3500 
L 594 3500 
L 594 4494 
L 1172 4494 
z
" transform="scale(0.015625)"/>
       <path id="DejaVuSans-63" d="M 3122 3366 
L 3122 2828 
Q 2878 2963 2633 3030 
Q 2388 3097 2138 3097 
Q 1578 3097 1268 2742 
Q 959 2388 959 1747 
Q 959 1106 1268 751 
Q 1578 397 2138 397 
Q 2388 397 2633 464 
Q 2878 531 3122 666 
L 3122 134 
Q 2881 22 2623 -34 
Q 2366 -91 2075 -91 
Q 1284 -91 818 406 
Q 353 903 353 1747 
Q 353 2603 823 3093 
Q 1294 3584 2113 3584 
Q 2378 3584 2631 3529 
Q 2884 3475 3122 3366 
z
" transform="scale(0.015625)"/>
       <path id="DejaVuSans-6e" d="M 3513 2113 
L 3513 0 
L 2938 0 
L 2938 2094 
Q 2938 2591 2744 2837 
Q 2550 3084 2163 3084 
Q 1697 3084 1428 2787 
Q 1159 2491 1159 1978 
L 1159 0 
L 581 0 
L 581 3500 
L 1159 3500 
L 1159 2956 
Q 1366 3272 1645 3428 
Q 1925 3584 2291 3584 
Q 2894 3584 3203 3211 
Q 3513 2838 3513 2113 
z
" transform="scale(0.015625)"/>
       <path id="DejaVuSans-64" d="M 2906 2969 
L 2906 4863 
L 3481 4863 
L 3481 0 
L 2906 0 
L 2906 525 
Q 2725 213 2448 61 
Q 2172 -91 1784 -91 
Q 1150 -91 751 415 
Q 353 922 353 1747 
Q 353 2572 751 3078 
Q 1150 3584 1784 3584 
Q 2172 3584 2448 3432 
Q 2725 3281 2906 2969 
z
M 947 1747 
Q 947 1113 1208 752 
Q 1469 391 1925 391 
Q 2381 391 2643 752 
Q 2906 1113 2906 1747 
Q 2906 2381 2643 2742 
Q 2381 3103 1925 3103 
Q 1469 3103 1208 2742 
Q 947 2381 947 1747 
z
" transform="scale(0.015625)"/>
       <path id="DejaVuSans-4d" d="M 628 4666 
L 1569 4666 
L 2759 1491 
L 3956 4666 
L 4897 4666 
L 4897 0 
L 4281 0 
L 4281 4097 
L 3078 897 
L 2444 897 
L 1241 4097 
L 1241 0 
L 628 0 
L 628 4666 
z
" transform="scale(0.015625)"/>
       <path id="DejaVuSans-6c" d="M 603 4863 
L 1178 4863 
L 1178 0 
L 603 0 
L 603 4863 
z
" transform="scale(0.015625)"/>
       <path id="DejaVuSans-6f" d="M 1959 3097 
Q 1497 3097 1228 2736 
Q 959 2375 959 1747 
Q 959 1119 1226 758 
Q 1494 397 1959 397 
Q 2419 397 2687 759 
Q 2956 1122 2956 1747 
Q 2956 2369 2687 2733 
Q 2419 3097 1959 3097 
z
M 1959 3584 
Q 2709 3584 3137 3096 
Q 3566 2609 3566 1747 
Q 3566 888 3137 398 
Q 2709 -91 1959 -91 
Q 1206 -91 779 398 
Q 353 888 353 1747 
Q 353 2609 779 3096 
Q 1206 3584 1959 3584 
z
" transform="scale(0.015625)"/>
       <path id="DejaVuSans-6d" d="M 3328 2828 
Q 3544 3216 3844 3400 
Q 4144 3584 4550 3584 
Q 5097 3584 5394 3201 
Q 5691 2819 5691 2113 
L 5691 0 
L 5113 0 
L 5113 2094 
Q 5113 2597 4934 2840 
Q 4756 3084 4391 3084 
Q 3944 3084 3684 2787 
Q 3425 2491 3425 1978 
L 3425 0 
L 2847 0 
L 2847 2094 
Q 2847 2600 2669 2842 
Q 2491 3084 2119 3084 
Q 1678 3084 1418 2786 
Q 1159 2488 1159 1978 
L 1159 0 
L 581 0 
L 581 3500 
L 1159 3500 
L 1159 2956 
Q 1356 3278 1631 3431 
Q 1906 3584 2284 3584 
Q 2666 3584 2933 3390 
Q 3200 3197 3328 2828 
z
" transform="scale(0.015625)"/>
      </defs>
      <use xlink:href="#DejaVuSans-43"/>
      <use xlink:href="#DejaVuSans-68" transform="translate(69.824219 0)"/>
      <use xlink:href="#DejaVuSans-69" transform="translate(133.203125 0)"/>
      <use xlink:href="#DejaVuSans-2d" transform="translate(160.986328 0)"/>
      <use xlink:href="#DejaVuSans-73" transform="translate(197.070312 0)"/>
      <use xlink:href="#DejaVuSans-71" transform="translate(249.169922 0)"/>
      <use xlink:href="#DejaVuSans-75" transform="translate(312.646484 0)"/>
      <use xlink:href="#DejaVuSans-61" transform="translate(376.025391 0)"/>
      <use xlink:href="#DejaVuSans-72" transform="translate(437.304688 0)"/>
      <use xlink:href="#DejaVuSans-65" transform="translate(476.167969 0)"/>
      <use xlink:href="#DejaVuSans-20" transform="translate(537.691406 0)"/>
      <use xlink:href="#DejaVuSans-73" transform="translate(569.478516 0)"/>
      <use xlink:href="#DejaVuSans-74" transform="translate(621.578125 0)"/>
      <use xlink:href="#DejaVuSans-61" transform="translate(660.787109 0)"/>
      <use xlink:href="#DejaVuSans-74" transform="translate(722.066406 0)"/>
      <use xlink:href="#DejaVuSans-69" transform="translate(761.275391 0)"/>
      <use xlink:href="#DejaVuSans-73" transform="translate(789.058594 0)"/>
      <use xlink:href="#DejaVuSans-74" transform="translate(841.158203 0)"/>
      <use xlink:href="#DejaVuSans-69" transform="translate(880.367188 0)"/>
      <use xlink:href="#DejaVuSans-63" transform="translate(908.150391 0)"/>
      <use xlink:href="#DejaVuSans-20" transform="translate(963.130859 0)"/>
      <use xlink:href="#DejaVuSans-75" transform="translate(994.917969 0)"/>
      <use xlink:href="#DejaVuSans-6e" transform="translate(1058.296875 0)"/>
      <use xlink:href="#DejaVuSans-64" transform="translate(1121.675781 0)"/>
      <use xlink:href="#DejaVuSans-65" transform="translate(1185.152344 0)"/>
      <use xlink:href="#DejaVuSans-72" transform="translate(1246.675781 0)"/>
      <use xlink:href="#DejaVuSans-20" transform="translate(1287.789062 0)"/>
      <use xlink:href="#DejaVuSans-4d" transform="translate(1319.576172 0)"/>
      <use xlink:href="#DejaVuSans-75" transform="translate(1405.855469 0)"/>
      <use xlink:href="#DejaVuSans-6c" transform="translate(1469.234375 0)"/>
      <use xlink:href="#DejaVuSans-74" transform="translate(1497.017578 0)"/>
      <use xlink:href="#DejaVuSans-69" transform="translate(1536.226562 0)"/>
      <use xlink:href="#DejaVuSans-6e" transform="translate(1564.009766 0)"/>
      <use xlink:href="#DejaVuSans-6f" transform="translate(1627.388672 0)"/>
      <use xlink:href="#DejaVuSans-6d" transform="translate(1688.570312 0)"/>
      <use xlink:href="#DejaVuSans-69" transform="translate(1785.982422 0)"/>
      <use xlink:href="#DejaVuSans-61" transform="translate(1813.765625 0)"/>
      <use xlink:href="#DejaVuSans-6c" transform="translate(1875.044922 0)"/>
      <use xlink:href="#DejaVuSans-20" transform="translate(1902.828125 0)"/>
      <use xlink:href="#DejaVuSans-6e" transform="translate(1934.615234 0)"/>
      <use xlink:href="#DejaVuSans-75" transform="translate(1997.994141 0)"/>
      <use xlink:href="#DejaVuSans-6c" transform="translate(2061.373047 0)"/>
      <use xlink:href="#DejaVuSans-6c" transform="translate(2089.15625 0)"/>
     </g>
    </g>
   </g>
   <g id="matplotlib.axis_2">
    <g id="ytick_1">
     <g id="line2d_6">
      <defs>
       <path id="m9c9596ed02" d="M 0 0 
L -3.5 0 
" style="stroke: #000000; stroke-width: 0.8"/>
      </defs>
      <g>
       <use xlink:href="#m9c9596ed02" x="77.24" y="220.12" style="stroke: #000000; stroke-width: 0.8"/>
      </g>
     </g>
     <g id="text_7">
      <!-- 0 -->
      <g transform="translate(60.69625 225.818828) scale(0.15 -0.15)">
       <use xlink:href="#DejaVuSans-30"/>
      </g>
     </g>
    </g>
    <g id="ytick_2">
     <g id="line2d_7">
      <g>
       <use xlink:href="#m9c9596ed02" x="77.24" y="178.133399" style="stroke: #000000; stroke-width: 0.8"/>
      </g>
     </g>
     <g id="text_8">
      <!-- 250 -->
      <g transform="translate(41.60875 183.832227) scale(0.15 -0.15)">
       <use xlink:href="#DejaVuSans-32"/>
       <use xlink:href="#DejaVuSans-35" transform="translate(63.623047 0)"/>
       <use xlink:href="#DejaVuSans-30" transform="translate(127.246094 0)"/>
      </g>
     </g>
    </g>
    <g id="ytick_3">
     <g id="line2d_8">
      <g>
       <use xlink:href="#m9c9596ed02" x="77.24" y="136.146798" style="stroke: #000000; stroke-width: 0.8"/>
      </g>
     </g>
     <g id="text_9">
      <!-- 500 -->
      <g transform="translate(41.60875 141.845626) scale(0.15 -0.15)">
       <use xlink:href="#DejaVuSans-35"/>
       <use xlink:href="#DejaVuSans-30" transform="translate(63.623047 0)"/>
       <use xlink:href="#DejaVuSans-30" transform="translate(127.246094 0)"/>
      </g>
     </g>
    </g>
    <g id="ytick_4">
     <g id="line2d_9">
      <g>
       <use xlink:href="#m9c9596ed02" x="77.24" y="94.160197" style="stroke: #000000; stroke-width: 0.8"/>
      </g>
     </g>
     <g id="text_10">
      <!-- 750 -->
      <g transform="translate(41.60875 99.859026) scale(0.15 -0.15)">
       <defs>
        <path id="DejaVuSans-37" d="M 525 4666 
L 3525 4666 
L 3525 4397 
L 1831 0 
L 1172 0 
L 2766 4134 
L 525 4134 
L 525 4666 
z
" transform="scale(0.015625)"/>
       </defs>
       <use xlink:href="#DejaVuSans-37"/>
       <use xlink:href="#DejaVuSans-35" transform="translate(63.623047 0)"/>
       <use xlink:href="#DejaVuSans-30" transform="translate(127.246094 0)"/>
      </g>
     </g>
    </g>
    <g id="ytick_5">
     <g id="line2d_10">
      <g>
       <use xlink:href="#m9c9596ed02" x="77.24" y="52.173597" style="stroke: #000000; stroke-width: 0.8"/>
      </g>
     </g>
     <g id="text_11">
      <!-- 1000 -->
      <g transform="translate(32.065 57.872425) scale(0.15 -0.15)">
       <use xlink:href="#DejaVuSans-31"/>
       <use xlink:href="#DejaVuSans-30" transform="translate(63.623047 0)"/>
       <use xlink:href="#DejaVuSans-30" transform="translate(127.246094 0)"/>
       <use xlink:href="#DejaVuSans-30" transform="translate(190.869141 0)"/>
      </g>
     </g>
    </g>
    <g id="text_12">
     <!-- Count -->
     <g transform="translate(24.321563 142.187187) rotate(-90) scale(0.18 -0.18)">
      <use xlink:href="#DejaVuSans-43"/>
      <use xlink:href="#DejaVuSans-6f" transform="translate(69.824219 0)"/>
      <use xlink:href="#DejaVuSans-75" transform="translate(131.005859 0)"/>
      <use xlink:href="#DejaVuSans-6e" transform="translate(194.384766 0)"/>
      <use xlink:href="#DejaVuSans-74" transform="translate(257.763672 0)"/>
     </g>
    </g>
   </g>
   <g id="line2d_11">
    <path d="M 189.216537 220.12 
L 189.216537 10.8 
" clip-path="url(#p5e93b4384d)" style="fill: none; stroke-dasharray: 7.4,3.2; stroke-dashoffset: 0; stroke: #1f77b4; stroke-width: 2"/>
   </g>
   <g id="patch_63">
    <path d="M 77.24 220.12 
L 77.24 10.8 
" style="fill: none; stroke: #000000; stroke-width: 0.8; stroke-linejoin: miter; stroke-linecap: square"/>
   </g>
   <g id="patch_64">
    <path d="M 507.6 220.12 
L 507.6 10.8 
" style="fill: none; stroke: #000000; stroke-width: 0.8; stroke-linejoin: miter; stroke-linecap: square"/>
   </g>
   <g id="patch_65">
    <path d="M 77.24 220.12 
L 507.6 220.12 
" style="fill: none; stroke: #000000; stroke-width: 0.8; stroke-linejoin: miter; stroke-linecap: square"/>
   </g>
   <g id="patch_66">
    <path d="M 77.24 10.8 
L 507.6 10.8 
" style="fill: none; stroke: #000000; stroke-width: 0.8; stroke-linejoin: miter; stroke-linecap: square"/>
   </g>
   <g id="legend_1">
    <g id="patch_67">
     <path d="M 363.084375 33.478125 
L 500.6 33.478125 
Q 502.6 33.478125 502.6 31.478125 
L 502.6 17.8 
Q 502.6 15.8 500.6 15.8 
L 363.084375 15.8 
Q 361.084375 15.8 361.084375 17.8 
L 361.084375 31.478125 
Q 361.084375 33.478125 363.084375 33.478125 
z
" style="fill: #ffffff; opacity: 0.8; stroke: #cccccc; stroke-linejoin: miter"/>
    </g>
    <g id="line2d_12">
     <path d="M 365.084375 23.898438 
L 375.084375 23.898438 
L 385.084375 23.898438 
" style="fill: none; stroke-dasharray: 7.4,3.2; stroke-dashoffset: 0; stroke: #1f77b4; stroke-width: 2"/>
    </g>
    <g id="text_13">
     <!-- Observed X² = 15.95 -->
     <g transform="translate(393.084375 27.398438) scale(0.1 -0.1)">
      <defs>
       <path id="DejaVuSans-4f" d="M 2522 4238 
Q 1834 4238 1429 3725 
Q 1025 3213 1025 2328 
Q 1025 1447 1429 934 
Q 1834 422 2522 422 
Q 3209 422 3611 934 
Q 4013 1447 4013 2328 
Q 4013 3213 3611 3725 
Q 3209 4238 2522 4238 
z
M 2522 4750 
Q 3503 4750 4090 4092 
Q 4678 3434 4678 2328 
Q 4678 1225 4090 567 
Q 3503 -91 2522 -91 
Q 1538 -91 948 565 
Q 359 1222 359 2328 
Q 359 3434 948 4092 
Q 1538 4750 2522 4750 
z
" transform="scale(0.015625)"/>
       <path id="DejaVuSans-62" d="M 3116 1747 
Q 3116 2381 2855 2742 
Q 2594 3103 2138 3103 
Q 1681 3103 1420 2742 
Q 1159 2381 1159 1747 
Q 1159 1113 1420 752 
Q 1681 391 2138 391 
Q 2594 391 2855 752 
Q 3116 1113 3116 1747 
z
M 1159 2969 
Q 1341 3281 1617 3432 
Q 1894 3584 2278 3584 
Q 2916 3584 3314 3078 
Q 3713 2572 3713 1747 
Q 3713 922 3314 415 
Q 2916 -91 2278 -91 
Q 1894 -91 1617 61 
Q 1341 213 1159 525 
L 1159 0 
L 581 0 
L 581 4863 
L 1159 4863 
L 1159 2969 
z
" transform="scale(0.015625)"/>
       <path id="DejaVuSans-76" d="M 191 3500 
L 800 3500 
L 1894 563 
L 2988 3500 
L 3597 3500 
L 2284 0 
L 1503 0 
L 191 3500 
z
" transform="scale(0.015625)"/>
       <path id="DejaVuSans-58" d="M 403 4666 
L 1081 4666 
L 2241 2931 
L 3406 4666 
L 4084 4666 
L 2584 2425 
L 4184 0 
L 3506 0 
L 2194 1984 
L 872 0 
L 191 0 
L 1856 2491 
L 403 4666 
z
" transform="scale(0.015625)"/>
       <path id="DejaVuSans-b2" d="M 838 2444 
L 2163 2444 
L 2163 2088 
L 294 2088 
L 294 2431 
Q 400 2528 597 2703 
Q 1672 3656 1672 3950 
Q 1672 4156 1509 4282 
Q 1347 4409 1081 4409 
Q 919 4409 728 4354 
Q 538 4300 313 4191 
L 313 4575 
Q 553 4663 761 4706 
Q 969 4750 1147 4750 
Q 1600 4750 1872 4544 
Q 2144 4338 2144 4000 
Q 2144 3566 1109 2678 
Q 934 2528 838 2444 
z
" transform="scale(0.015625)"/>
       <path id="DejaVuSans-3d" d="M 678 2906 
L 4684 2906 
L 4684 2381 
L 678 2381 
L 678 2906 
z
M 678 1631 
L 4684 1631 
L 4684 1100 
L 678 1100 
L 678 1631 
z
" transform="scale(0.015625)"/>
       <path id="DejaVuSans-2e" d="M 684 794 
L 1344 794 
L 1344 0 
L 684 0 
L 684 794 
z
" transform="scale(0.015625)"/>
       <path id="DejaVuSans-39" d="M 703 97 
L 703 672 
Q 941 559 1184 500 
Q 1428 441 1663 441 
Q 2288 441 2617 861 
Q 2947 1281 2994 2138 
Q 2813 1869 2534 1725 
Q 2256 1581 1919 1581 
Q 1219 1581 811 2004 
Q 403 2428 403 3163 
Q 403 3881 828 4315 
Q 1253 4750 1959 4750 
Q 2769 4750 3195 4129 
Q 3622 3509 3622 2328 
Q 3622 1225 3098 567 
Q 2575 -91 1691 -91 
Q 1453 -91 1209 -44 
Q 966 3 703 97 
z
M 1959 2075 
Q 2384 2075 2632 2365 
Q 2881 2656 2881 3163 
Q 2881 3666 2632 3958 
Q 2384 4250 1959 4250 
Q 1534 4250 1286 3958 
Q 1038 3666 1038 3163 
Q 1038 2656 1286 2365 
Q 1534 2075 1959 2075 
z
" transform="scale(0.015625)"/>
      </defs>
      <use xlink:href="#DejaVuSans-4f"/>
      <use xlink:href="#DejaVuSans-62" transform="translate(78.710938 0)"/>
      <use xlink:href="#DejaVuSans-73" transform="translate(142.1875 0)"/>
      <use xlink:href="#DejaVuSans-65" transform="translate(194.287109 0)"/>
      <use xlink:href="#DejaVuSans-72" transform="translate(255.810547 0)"/>
      <use xlink:href="#DejaVuSans-76" transform="translate(296.923828 0)"/>
      <use xlink:href="#DejaVuSans-65" transform="translate(356.103516 0)"/>
      <use xlink:href="#DejaVuSans-64" transform="translate(417.626953 0)"/>
      <use xlink:href="#DejaVuSans-20" transform="translate(481.103516 0)"/>
      <use xlink:href="#DejaVuSans-58" transform="translate(512.890625 0)"/>
      <use xlink:href="#DejaVuSans-b2" transform="translate(581.396484 0)"/>
      <use xlink:href="#DejaVuSans-20" transform="translate(621.484375 0)"/>
      <use xlink:href="#DejaVuSans-3d" transform="translate(653.271484 0)"/>
      <use xlink:href="#DejaVuSans-20" transform="translate(737.060547 0)"/>
      <use xlink:href="#DejaVuSans-31" transform="translate(768.847656 0)"/>
      <use xlink:href="#DejaVuSans-35" transform="translate(832.470703 0)"/>
      <use xlink:href="#DejaVuSans-2e" transform="translate(896.09375 0)"/>
      <use xlink:href="#DejaVuSans-39" transform="translate(927.880859 0)"/>
      <use xlink:href="#DejaVuSans-35" transform="translate(991.503906 0)"/>
     </g>
    </g>
   </g>
  </g>
 </g>
 <defs>
  <clipPath id="p5e93b4384d">
   <rect x="77.24" y="10.8" width="430.36" height="209.32"/>
  </clipPath>
 </defs>
</svg>
