<?xml version="1.0" encoding="utf-8" standalone="no"?>
<!DOCTYPE svg PUBLIC "-//W3C//DTD SVG 1.1//EN"
  "http://www.w3.org/Graphics/SVG/1.1/DTD/svg11.dtd">
<svg xmlns:xlink="http://www.w3.org/1999/xlink" width="1044pt" height="331.2pt" viewBox="0 0 1044 331.2" xmlns="http://www.w3.org/2000/svg" version="1.1">
 <metadata>
  <rdf:RDF xmlns:dc="http://purl.org/dc/elements/1.1/" xmlns:cc="http://creativecommons.org/ns#" xmlns:rdf="http://www.w3.org/1999/02/22-rdf-syntax-ns#">
   <cc:Work>
    <dc:type rdf:resource="http://purl.org/dc/dcmitype/StillImage"/>
    <dc:date>2026-05-13T21:08:46.840144</dc:date>
    <dc:format>image/svg+xml</dc:format>
    <dc:creator>
     <cc:Agent>
      <dc:title>Matplotlib v3.7.5, https://matplotlib.org/</dc:title>
     </cc:Agent>
    </dc:creator>
   </cc:Work>
  </rdf:RDF>
 </metadata>
 <defs>
  <style type="text/css">*{stroke-linejoin: round; stroke-linecap: butt}</style>
 </defs>
 <g id="figure_1">
  <g id="patch_1">
   <path d="M 0 331.2 
L 1044 331.2 
L 1044 0 
L 0 0 
z
" style="fill: #ffffff"/>
  </g>
  <g id="axes_1">
   <g id="patch_2">
    <path d="M 109.62 251.712 
L 1038.78 251.712 
L 1038.78 6.624 
L 109.62 6.624 
z
" style="fill: #ffffff"/>
   </g>
   <g id="patch_3">
    <path d="M 109.62 251.712 
L 109.62 6.624 
L 158.795599 6.624 
L 158.795599 251.712 
z
" clip-path="url(#p8963e6dd9e)" style="fill: #d9d9d9; opacity: 0.7; stroke: #d9d9d9; stroke-linejoin: miter"/>
   </g>
   <g id="patch_4">
    <path d="M 161.383788 251.712 
L 161.383788 6.624 
L 210.559387 6.624 
L 210.559387 251.712 
z
" clip-path="url(#p8963e6dd9e)" style="fill: #fff7a8; opacity: 0.7; stroke: #fff7a8; stroke-linejoin: miter"/>
   </g>
   <g id="patch_5">
    <path d="M 213.147577 251.712 
L 213.147577 6.624 
L 262.323175 6.624 
L 262.323175 251.712 
z
" clip-path="url(#p8963e6dd9e)" style="fill: #d9d9d9; opacity: 0.7; stroke: #d9d9d9; stroke-linejoin: miter"/>
   </g>
   <g id="patch_6">
    <path d="M 264.911365 251.712 
L 264.911365 6.624 
L 314.086964 6.624 
L 314.086964 251.712 
z
" clip-path="url(#p8963e6dd9e)" style="fill: #fff7a8; opacity: 0.7; stroke: #fff7a8; stroke-linejoin: miter"/>
   </g>
   <g id="patch_7">
    <path d="M 316.675153 251.712 
L 316.675153 6.624 
L 365.850752 6.624 
L 365.850752 251.712 
z
" clip-path="url(#p8963e6dd9e)" style="fill: #d9d9d9; opacity: 0.7; stroke: #d9d9d9; stroke-linejoin: miter"/>
   </g>
   <g id="patch_8">
    <path d="M 368.438942 251.712 
L 368.438942 6.624 
L 417.61454 6.624 
L 417.61454 251.712 
z
" clip-path="url(#p8963e6dd9e)" style="fill: #fff7a8; opacity: 0.7; stroke: #fff7a8; stroke-linejoin: miter"/>
   </g>
   <g id="patch_9">
    <path d="M 420.20273 251.712 
L 420.20273 6.624 
L 469.378329 6.624 
L 469.378329 251.712 
z
" clip-path="url(#p8963e6dd9e)" style="fill: #d9d9d9; opacity: 0.7; stroke: #d9d9d9; stroke-linejoin: miter"/>
   </g>
   <g id="patch_10">
    <path d="M 471.966518 251.712 
L 471.966518 6.624 
L 521.142117 6.624 
L 521.142117 251.712 
z
" clip-path="url(#p8963e6dd9e)" style="fill: #fff7a8; opacity: 0.7; stroke: #fff7a8; stroke-linejoin: miter"/>
   </g>
   <g id="patch_11">
    <path d="M 523.730306 251.712 
L 523.730306 6.624 
L 572.905905 6.624 
L 572.905905 251.712 
z
" clip-path="url(#p8963e6dd9e)" style="fill: #d9d9d9; opacity: 0.7; stroke: #d9d9d9; stroke-linejoin: miter"/>
   </g>
   <g id="patch_12">
    <path d="M 575.494095 251.712 
L 575.494095 6.624 
L 624.669694 6.624 
L 624.669694 251.712 
z
" clip-path="url(#p8963e6dd9e)" style="fill: #fff7a8; opacity: 0.7; stroke: #fff7a8; stroke-linejoin: miter"/>
   </g>
   <g id="patch_13">
    <path d="M 627.257883 251.712 
L 627.257883 6.624 
L 676.433482 6.624 
L 676.433482 251.712 
z
" clip-path="url(#p8963e6dd9e)" style="fill: #d9d9d9; opacity: 0.7; stroke: #d9d9d9; stroke-linejoin: miter"/>
   </g>
   <g id="patch_14">
    <path d="M 679.021671 251.712 
L 679.021671 6.624 
L 728.19727 6.624 
L 728.19727 251.712 
z
" clip-path="url(#p8963e6dd9e)" style="fill: #fff7a8; opacity: 0.7; stroke: #fff7a8; stroke-linejoin: miter"/>
   </g>
   <g id="patch_15">
    <path d="M 730.78546 251.712 
L 730.78546 6.624 
L 779.961058 6.624 
L 779.961058 251.712 
z
" clip-path="url(#p8963e6dd9e)" style="fill: #d9d9d9; opacity: 0.7; stroke: #d9d9d9; stroke-linejoin: miter"/>
   </g>
   <g id="patch_16">
    <path d="M 782.549248 251.712 
L 782.549248 6.624 
L 831.724847 6.624 
L 831.724847 251.712 
z
" clip-path="url(#p8963e6dd9e)" style="fill: #fff7a8; opacity: 0.7; stroke: #fff7a8; stroke-linejoin: miter"/>
   </g>
   <g id="patch_17">
    <path d="M 834.313036 251.712 
L 834.313036 6.624 
L 883.488635 6.624 
L 883.488635 251.712 
z
" clip-path="url(#p8963e6dd9e)" style="fill: #d9d9d9; opacity: 0.7; stroke: #d9d9d9; stroke-linejoin: miter"/>
   </g>
   <g id="patch_18">
    <path d="M 886.076825 251.712 
L 886.076825 6.624 
L 935.252423 6.624 
L 935.252423 251.712 
z
" clip-path="url(#p8963e6dd9e)" style="fill: #fff7a8; opacity: 0.7; stroke: #fff7a8; stroke-linejoin: miter"/>
   </g>
   <g id="patch_19">
    <path d="M 937.840613 251.712 
L 937.840613 6.624 
L 987.016212 6.624 
L 987.016212 251.712 
z
" clip-path="url(#p8963e6dd9e)" style="fill: #d9d9d9; opacity: 0.7; stroke: #d9d9d9; stroke-linejoin: miter"/>
   </g>
   <g id="patch_20">
    <path d="M 989.604401 251.712 
L 989.604401 6.624 
L 1038.78 6.624 
L 1038.78 251.712 
z
" clip-path="url(#p8963e6dd9e)" style="fill: #fff7a8; opacity: 0.7; stroke: #fff7a8; stroke-linejoin: miter"/>
   </g>
   <g id="matplotlib.axis_1">
    <g id="xtick_1">
     <g id="line2d_1">
      <defs>
       <path id="mb633b771e6" d="M 0 0 
L 0 7 
" style="stroke: #000000; stroke-width: 2"/>
      </defs>
      <g>
       <use xlink:href="#mb633b771e6" x="236.441281" y="251.712" style="stroke: #000000; stroke-width: 2"/>
      </g>
     </g>
     <g id="text_1">
      <!-- 50 -->
      <g transform="translate(219.898781 288.467938) scale(0.26 -0.26)">
       <defs>
        <path id="DejaVuSans-35" d="M 691 4666 
L 3169 4666 
L 3169 4134 
L 1269 4134 
L 1269 2991 
Q 1406 3038 1543 3061 
Q 1681 3084 1819 3084 
Q 2600 3084 3056 2656 
Q 3513 2228 3513 1497 
Q 3513 744 3044 326 
Q 2575 -91 1722 -91 
Q 1428 -91 1123 -41 
Q 819 9 494 109 
L 494 744 
Q 775 591 1075 516 
Q 1375 441 1709 441 
Q 2250 441 2565 725 
Q 2881 1009 2881 1497 
Q 2881 1984 2565 2268 
Q 2250 2553 1709 2553 
Q 1456 2553 1204 2497 
Q 953 2441 691 2322 
L 691 4666 
z
" transform="scale(0.015625)"/>
        <path id="DejaVuSans-30" d="M 2034 4250 
Q 1547 4250 1301 3770 
Q 1056 3291 1056 2328 
Q 1056 1369 1301 889 
Q 1547 409 2034 409 
Q 2525 409 2770 889 
Q 3016 1369 3016 2328 
Q 3016 3291 2770 3770 
Q 2525 4250 2034 4250 
z
M 2034 4750 
Q 2819 4750 3233 4129 
Q 3647 3509 3647 2328 
Q 3647 1150 3233 529 
Q 2819 -91 2034 -91 
Q 1250 -91 836 529 
Q 422 1150 422 2328 
Q 422 3509 836 4129 
Q 1250 4750 2034 4750 
z
" transform="scale(0.015625)"/>
       </defs>
       <use xlink:href="#DejaVuSans-35"/>
       <use xlink:href="#DejaVuSans-30" x="63.623047"/>
      </g>
     </g>
    </g>
    <g id="xtick_2">
     <g id="line2d_2">
      <g>
       <use xlink:href="#mb633b771e6" x="365.850752" y="251.712" style="stroke: #000000; stroke-width: 2"/>
      </g>
     </g>
     <g id="text_2">
      <!-- 100 -->
      <g transform="translate(341.037002 288.467938) scale(0.26 -0.26)">
       <defs>
        <path id="DejaVuSans-31" d="M 794 531 
L 1825 531 
L 1825 4091 
L 703 3866 
L 703 4441 
L 1819 4666 
L 2450 4666 
L 2450 531 
L 3481 531 
L 3481 0 
L 794 0 
L 794 531 
z
" transform="scale(0.015625)"/>
       </defs>
       <use xlink:href="#DejaVuSans-31"/>
       <use xlink:href="#DejaVuSans-30" x="63.623047"/>
       <use xlink:href="#DejaVuSans-30" x="127.246094"/>
      </g>
     </g>
    </g>
    <g id="xtick_3">
     <g id="line2d_3">
      <g>
       <use xlink:href="#mb633b771e6" x="495.260223" y="251.712" style="stroke: #000000; stroke-width: 2"/>
      </g>
     </g>
     <g id="text_3">
      <!-- 150 -->
      <g transform="translate(470.446473 288.467938) scale(0.26 -0.26)">
       <use xlink:href="#DejaVuSans-31"/>
       <use xlink:href="#DejaVuSans-35" x="63.623047"/>
       <use xlink:href="#DejaVuSans-30" x="127.246094"/>
      </g>
     </g>
    </g>
    <g id="xtick_4">
     <g id="line2d_4">
      <g>
       <use xlink:href="#mb633b771e6" x="624.669694" y="251.712" style="stroke: #000000; stroke-width: 2"/>
      </g>
     </g>
     <g id="text_4">
      <!-- 200 -->
      <g transform="translate(599.855944 288.467938) scale(0.26 -0.26)">
       <defs>
        <path id="DejaVuSans-32" d="M 1228 531 
L 3431 531 
L 3431 0 
L 469 0 
L 469 531 
Q 828 903 1448 1529 
Q 2069 2156 2228 2338 
Q 2531 2678 2651 2914 
Q 2772 3150 2772 3378 
Q 2772 3750 2511 3984 
Q 2250 4219 1831 4219 
Q 1534 4219 1204 4116 
Q 875 4013 500 3803 
L 500 4441 
Q 881 4594 1212 4672 
Q 1544 4750 1819 4750 
Q 2544 4750 2975 4387 
Q 3406 4025 3406 3419 
Q 3406 3131 3298 2873 
Q 3191 2616 2906 2266 
Q 2828 2175 2409 1742 
Q 1991 1309 1228 531 
z
" transform="scale(0.015625)"/>
       </defs>
       <use xlink:href="#DejaVuSans-32"/>
       <use xlink:href="#DejaVuSans-30" x="63.623047"/>
       <use xlink:href="#DejaVuSans-30" x="127.246094"/>
      </g>
     </g>
    </g>
    <g id="xtick_5">
     <g id="line2d_5">
      <g>
       <use xlink:href="#mb633b771e6" x="754.079164" y="251.712" style="stroke: #000000; stroke-width: 2"/>
      </g>
     </g>
     <g id="text_5">
      <!-- 250 -->
      <g transform="translate(729.265414 288.467938) scale(0.26 -0.26)">
       <use xlink:href="#DejaVuSans-32"/>
       <use xlink:href="#DejaVuSans-35" x="63.623047"/>
       <use xlink:href="#DejaVuSans-30" x="127.246094"/>
      </g>
     </g>
    </g>
    <g id="xtick_6">
     <g id="line2d_6">
      <g>
       <use xlink:href="#mb633b771e6" x="883.488635" y="251.712" style="stroke: #000000; stroke-width: 2"/>
      </g>
     </g>
     <g id="text_6">
      <!-- 300 -->
      <g transform="translate(858.674885 288.467938) scale(0.26 -0.26)">
       <defs>
        <path id="DejaVuSans-33" d="M 2597 2516 
Q 3050 2419 3304 2112 
Q 3559 1806 3559 1356 
Q 3559 666 3084 287 
Q 2609 -91 1734 -91 
Q 1441 -91 1130 -33 
Q 819 25 488 141 
L 488 750 
Q 750 597 1062 519 
Q 1375 441 1716 441 
Q 2309 441 2620 675 
Q 2931 909 2931 1356 
Q 2931 1769 2642 2001 
Q 2353 2234 1838 2234 
L 1294 2234 
L 1294 2753 
L 1863 2753 
Q 2328 2753 2575 2939 
Q 2822 3125 2822 3475 
Q 2822 3834 2567 4026 
Q 2313 4219 1838 4219 
Q 1578 4219 1281 4162 
Q 984 4106 628 3988 
L 628 4550 
Q 988 4650 1302 4700 
Q 1616 4750 1894 4750 
Q 2613 4750 3031 4423 
Q 3450 4097 3450 3541 
Q 3450 3153 3228 2886 
Q 3006 2619 2597 2516 
z
" transform="scale(0.015625)"/>
       </defs>
       <use xlink:href="#DejaVuSans-33"/>
       <use xlink:href="#DejaVuSans-30" x="63.623047"/>
       <use xlink:href="#DejaVuSans-30" x="127.246094"/>
      </g>
     </g>
    </g>
    <g id="xtick_7">
     <g id="line2d_7">
      <g>
       <use xlink:href="#mb633b771e6" x="1012.898106" y="251.712" style="stroke: #000000; stroke-width: 2"/>
      </g>
     </g>
     <g id="text_7">
      <!-- 350 -->
      <g transform="translate(988.084356 288.467938) scale(0.26 -0.26)">
       <use xlink:href="#DejaVuSans-33"/>
       <use xlink:href="#DejaVuSans-35" x="63.623047"/>
       <use xlink:href="#DejaVuSans-30" x="127.246094"/>
      </g>
     </g>
    </g>
    <g id="text_8">
     <!-- Trial -->
     <g transform="translate(537.813281 326.670437) scale(0.3 -0.3)">
      <defs>
       <path id="DejaVuSans-Bold-54" d="M 31 4666 
L 4331 4666 
L 4331 3756 
L 2784 3756 
L 2784 0 
L 1581 0 
L 1581 3756 
L 31 3756 
L 31 4666 
z
" transform="scale(0.015625)"/>
       <path id="DejaVuSans-Bold-72" d="M 3138 2547 
Q 2991 2616 2845 2648 
Q 2700 2681 2553 2681 
Q 2122 2681 1889 2404 
Q 1656 2128 1656 1613 
L 1656 0 
L 538 0 
L 538 3500 
L 1656 3500 
L 1656 2925 
Q 1872 3269 2151 3426 
Q 2431 3584 2822 3584 
Q 2878 3584 2943 3579 
Q 3009 3575 3134 3559 
L 3138 2547 
z
" transform="scale(0.015625)"/>
       <path id="DejaVuSans-Bold-69" d="M 538 3500 
L 1656 3500 
L 1656 0 
L 538 0 
L 538 3500 
z
M 538 4863 
L 1656 4863 
L 1656 3950 
L 538 3950 
L 538 4863 
z
" transform="scale(0.015625)"/>
       <path id="DejaVuSans-Bold-61" d="M 2106 1575 
Q 1756 1575 1579 1456 
Q 1403 1338 1403 1106 
Q 1403 894 1545 773 
Q 1688 653 1941 653 
Q 2256 653 2472 879 
Q 2688 1106 2688 1447 
L 2688 1575 
L 2106 1575 
z
M 3816 1997 
L 3816 0 
L 2688 0 
L 2688 519 
Q 2463 200 2181 54 
Q 1900 -91 1497 -91 
Q 953 -91 614 226 
Q 275 544 275 1050 
Q 275 1666 698 1953 
Q 1122 2241 2028 2241 
L 2688 2241 
L 2688 2328 
Q 2688 2594 2478 2717 
Q 2269 2841 1825 2841 
Q 1466 2841 1156 2769 
Q 847 2697 581 2553 
L 581 3406 
Q 941 3494 1303 3539 
Q 1666 3584 2028 3584 
Q 2975 3584 3395 3211 
Q 3816 2838 3816 1997 
z
" transform="scale(0.015625)"/>
       <path id="DejaVuSans-Bold-6c" d="M 538 4863 
L 1656 4863 
L 1656 0 
L 538 0 
L 538 4863 
z
" transform="scale(0.015625)"/>
      </defs>
      <use xlink:href="#DejaVuSans-Bold-54"/>
      <use xlink:href="#DejaVuSans-Bold-72" x="57.212891"/>
      <use xlink:href="#DejaVuSans-Bold-69" x="106.529297"/>
      <use xlink:href="#DejaVuSans-Bold-61" x="140.806641"/>
      <use xlink:href="#DejaVuSans-Bold-6c" x="208.287109"/>
     </g>
    </g>
   </g>
   <g id="matplotlib.axis_2">
    <g id="ytick_1">
     <g id="line2d_8">
      <defs>
       <path id="md3dfe85fd6" d="M 0 0 
L -7 0 
" style="stroke: #000000; stroke-width: 2"/>
      </defs>
      <g>
       <use xlink:href="#md3dfe85fd6" x="109.62" y="231.288" style="stroke: #000000; stroke-width: 2"/>
      </g>
     </g>
     <g id="text_9">
      <!-- 6.5 -->
      <g transform="translate(51.271875 241.165969) scale(0.26 -0.26)">
       <defs>
        <path id="DejaVuSans-36" d="M 2113 2584 
Q 1688 2584 1439 2293 
Q 1191 2003 1191 1497 
Q 1191 994 1439 701 
Q 1688 409 2113 409 
Q 2538 409 2786 701 
Q 3034 994 3034 1497 
Q 3034 2003 2786 2293 
Q 2538 2584 2113 2584 
z
M 3366 4563 
L 3366 3988 
Q 3128 4100 2886 4159 
Q 2644 4219 2406 4219 
Q 1781 4219 1451 3797 
Q 1122 3375 1075 2522 
Q 1259 2794 1537 2939 
Q 1816 3084 2150 3084 
Q 2853 3084 3261 2657 
Q 3669 2231 3669 1497 
Q 3669 778 3244 343 
Q 2819 -91 2113 -91 
Q 1303 -91 875 529 
Q 447 1150 447 2328 
Q 447 3434 972 4092 
Q 1497 4750 2381 4750 
Q 2619 4750 2861 4703 
Q 3103 4656 3366 4563 
z
" transform="scale(0.015625)"/>
        <path id="DejaVuSans-2e" d="M 684 794 
L 1344 794 
L 1344 0 
L 684 0 
L 684 794 
z
" transform="scale(0.015625)"/>
       </defs>
       <use xlink:href="#DejaVuSans-36"/>
       <use xlink:href="#DejaVuSans-2e" x="63.623047"/>
       <use xlink:href="#DejaVuSans-35" x="95.410156"/>
      </g>
     </g>
    </g>
    <g id="ytick_2">
     <g id="line2d_9">
      <g>
       <use xlink:href="#md3dfe85fd6" x="109.62" y="129.168" style="stroke: #000000; stroke-width: 2"/>
      </g>
     </g>
     <g id="text_10">
      <!-- 7 -->
      <g transform="translate(76.0775 139.045969) scale(0.26 -0.26)">
       <defs>
        <path id="DejaVuSans-37" d="M 525 4666 
L 3525 4666 
L 3525 4397 
L 1831 0 
L 1172 0 
L 2766 4134 
L 525 4134 
L 525 4666 
z
" transform="scale(0.015625)"/>
       </defs>
       <use xlink:href="#DejaVuSans-37"/>
      </g>
     </g>
    </g>
    <g id="ytick_3">
     <g id="line2d_10">
      <g>
       <use xlink:href="#md3dfe85fd6" x="109.62" y="27.048" style="stroke: #000000; stroke-width: 2"/>
      </g>
     </g>
     <g id="text_11">
      <!-- 7.5 -->
      <g transform="translate(51.271875 36.925969) scale(0.26 -0.26)">
       <use xlink:href="#DejaVuSans-37"/>
       <use xlink:href="#DejaVuSans-2e" x="63.623047"/>
       <use xlink:href="#DejaVuSans-35" x="95.410156"/>
      </g>
     </g>
    </g>
    <g id="text_12">
     <!-- log(RT) -->
     <g transform="translate(32.798437 190.171125) rotate(-90) scale(0.3 -0.3)">
      <defs>
       <path id="DejaVuSans-Bold-6f" d="M 2203 2784 
Q 1831 2784 1636 2517 
Q 1441 2250 1441 1747 
Q 1441 1244 1636 976 
Q 1831 709 2203 709 
Q 2569 709 2762 976 
Q 2956 1244 2956 1747 
Q 2956 2250 2762 2517 
Q 2569 2784 2203 2784 
z
M 2203 3584 
Q 3106 3584 3614 3096 
Q 4122 2609 4122 1747 
Q 4122 884 3614 396 
Q 3106 -91 2203 -91 
Q 1297 -91 786 396 
Q 275 884 275 1747 
Q 275 2609 786 3096 
Q 1297 3584 2203 3584 
z
" transform="scale(0.015625)"/>
       <path id="DejaVuSans-Bold-67" d="M 2919 594 
Q 2688 288 2409 144 
Q 2131 0 1766 0 
Q 1125 0 706 504 
Q 288 1009 288 1791 
Q 288 2575 706 3076 
Q 1125 3578 1766 3578 
Q 2131 3578 2409 3434 
Q 2688 3291 2919 2981 
L 2919 3500 
L 4044 3500 
L 4044 353 
Q 4044 -491 3511 -936 
Q 2978 -1381 1966 -1381 
Q 1638 -1381 1331 -1331 
Q 1025 -1281 716 -1178 
L 716 -306 
Q 1009 -475 1290 -558 
Q 1572 -641 1856 -641 
Q 2406 -641 2662 -400 
Q 2919 -159 2919 353 
L 2919 594 
z
M 2181 2772 
Q 1834 2772 1640 2515 
Q 1447 2259 1447 1791 
Q 1447 1309 1634 1061 
Q 1822 813 2181 813 
Q 2531 813 2725 1069 
Q 2919 1325 2919 1791 
Q 2919 2259 2725 2515 
Q 2531 2772 2181 2772 
z
" transform="scale(0.015625)"/>
       <path id="DejaVuSans-Bold-28" d="M 2413 -844 
L 1484 -844 
Q 1006 -72 778 623 
Q 550 1319 550 2003 
Q 550 2688 779 3389 
Q 1009 4091 1484 4856 
L 2413 4856 
Q 2013 4116 1813 3408 
Q 1613 2700 1613 2009 
Q 1613 1319 1811 609 
Q 2009 -100 2413 -844 
z
" transform="scale(0.015625)"/>
       <path id="DejaVuSans-Bold-52" d="M 2297 2597 
Q 2675 2597 2839 2737 
Q 3003 2878 3003 3200 
Q 3003 3519 2839 3656 
Q 2675 3794 2297 3794 
L 1791 3794 
L 1791 2597 
L 2297 2597 
z
M 1791 1766 
L 1791 0 
L 588 0 
L 588 4666 
L 2425 4666 
Q 3347 4666 3776 4356 
Q 4206 4047 4206 3378 
Q 4206 2916 3982 2619 
Q 3759 2322 3309 2181 
Q 3556 2125 3751 1926 
Q 3947 1728 4147 1325 
L 4800 0 
L 3519 0 
L 2950 1159 
Q 2778 1509 2601 1637 
Q 2425 1766 2131 1766 
L 1791 1766 
z
" transform="scale(0.015625)"/>
       <path id="DejaVuSans-Bold-29" d="M 513 -844 
Q 913 -100 1113 609 
Q 1313 1319 1313 2009 
Q 1313 2700 1113 3408 
Q 913 4116 513 4856 
L 1441 4856 
Q 1916 4091 2145 3389 
Q 2375 2688 2375 2003 
Q 2375 1319 2147 623 
Q 1919 -72 1441 -844 
L 513 -844 
z
" transform="scale(0.015625)"/>
      </defs>
      <use xlink:href="#DejaVuSans-Bold-6c"/>
      <use xlink:href="#DejaVuSans-Bold-6f" x="34.277344"/>
      <use xlink:href="#DejaVuSans-Bold-67" x="102.978516"/>
      <use xlink:href="#DejaVuSans-Bold-28" x="174.560547"/>
      <use xlink:href="#DejaVuSans-Bold-52" x="220.263672"/>
      <use xlink:href="#DejaVuSans-Bold-54" x="292.765625"/>
      <use xlink:href="#DejaVuSans-Bold-29" x="360.978516"/>
     </g>
    </g>
   </g>
   <g id="line2d_11">
    <path d="M 109.62 183.617998 
L 112.208189 190.039615 
L 114.796379 209.505766 
L 117.384568 226.175943 
L 119.972758 244.656219 
L 122.560947 86.866045 
L 125.149136 181.441352 
L 127.737326 239.15774 
L 130.325515 204.866849 
L 132.913705 252.679771 
L 135.501894 233.803416 
L 138.090084 218.823097 
L 140.678273 181.441352 
L 143.266462 218.823097 
L 145.854652 162.391146 
L 148.442841 214.2525 
L 151.031031 166.150949 
L 153.61922 175.514064 
L 156.207409 219.691589 
L 158.795599 205.136829 
L 161.383788 153.598355 
L 163.971978 196.151991 
L 169.148357 179.764298 
L 171.736546 136.686077 
L 174.324735 214.2525 
L 176.912925 226.175943 
L 179.501114 205.136829 
L 182.089304 220.855352 
L 184.677493 205.136829 
L 187.265682 46.1014 
L 189.853872 72.401826 
L 192.442061 102.59668 
L 195.030251 60.884573 
L 197.61844 153.388555 
L 200.20663 162.391146 
L 202.794819 171.808928 
L 205.383008 108.065502 
L 207.971198 155.496314 
L 210.559387 17.023347 
L 213.147577 236.305622 
L 215.735766 250.64414 
L 218.323955 226.175943 
L 220.912145 218.823097 
L 226.088524 228.889134 
L 228.676713 229.496991 
L 231.264903 144.766089 
L 233.853092 196.151991 
L 236.441281 223.498322 
L 239.029471 204.597225 
L 241.61766 191.803574 
L 244.20585 231.638854 
L 246.794039 228.889134 
L 249.382228 195.893623 
L 251.970418 221.147332 
L 254.558607 198.230788 
L 257.146797 130.594591 
L 259.734986 155.073019 
L 262.323175 239.15774 
L 264.911365 233.803416 
L 267.499554 160.862887 
L 270.087744 158.699307 
L 272.675933 200.330961 
L 275.264123 209.505766 
L 277.852312 216.525013 
L 280.440501 171.808928 
L 283.028691 116.816307 
L 285.61688 234.11452 
L 288.20507 197.969778 
L 290.793259 191.298029 
L 293.381448 92.079661 
L 295.969638 244.328649 
L 298.557827 122.685165 
L 301.146017 183.374999 
L 303.734206 155.284557 
L 306.322396 135.146089 
L 308.910585 215.101732 
L 311.498774 226.775767 
L 314.086964 61.819924 
L 316.675153 171.579574 
L 319.263343 270.854335 
L 321.851532 273.102872 
L 324.439721 264.614713 
L 327.027911 242.050251 
L 329.6161 207.03675 
L 332.20429 247.295868 
L 334.792479 241.403921 
L 337.380669 213.688301 
L 339.968858 223.498322 
L 342.557047 191.803574 
L 345.145237 218.534418 
L 347.733426 171.808928 
L 350.321616 228.585882 
L 352.909805 228.889134 
L 355.497994 228.889134 
L 358.086184 238.838864 
L 360.674373 244.328649 
L 363.262563 216.810864 
L 365.850752 185.08209 
L 368.438942 106.559424 
L 371.027131 171.808928 
L 373.61532 167.719448 
L 376.20351 113.857516 
L 378.791699 202.986915 
L 381.379889 189.538412 
L 383.968078 105.727488 
L 386.556267 236.305622 
L 389.144457 165.037922 
L 391.732646 192.056816 
L 394.320836 173.421661 
L 396.909025 209.505766 
L 399.497214 228.889134 
L 402.085404 241.403921 
L 404.673593 166.150949 
L 407.261783 226.175943 
L 409.849972 223.498322 
L 412.438162 163.930927 
L 415.026351 125.958895 
L 417.61454 207.03675 
L 420.20273 258.560076 
L 422.790919 273.857919 
L 425.379109 255.771773 
L 427.967298 249.97008 
L 430.555487 233.803416 
L 433.143677 207.03675 
L 435.731866 197.969778 
L 438.320056 269.739283 
L 440.908245 247.295868 
L 443.496435 277.6756 
L 446.084624 270.854335 
L 448.672813 242.050251 
L 451.261003 258.911305 
L 453.849192 177.156439 
L 456.437382 228.585882 
L 459.025571 236.620564 
L 461.61376 189.78886 
L 464.20195 248.294599 
L 466.790139 220.855352 
L 469.378329 240.117366 
L 471.966518 133.617625 
L 474.554708 293.702643 
L 477.142897 173.653094 
L 479.731086 244.984315 
L 482.319276 122.504821 
L 484.907465 216.810864 
L 487.495655 187.793826 
L 490.083844 170.208831 
L 492.672033 212.004995 
L 495.260223 139.605231 
L 497.848412 191.550645 
L 500.436602 151.717871 
L 503.024791 151.925961 
L 505.612981 56.271018 
L 508.20117 109.413626 
L 510.789359 119.64076 
L 513.377549 66.699147 
L 515.965738 185.572462 
L 518.553928 233.803416 
L 521.142117 149.854544 
L 523.730306 211.725788 
L 526.318496 258.560076 
L 528.906685 231.331495 
L 531.494875 255.771773 
L 534.083064 236.620564 
L 536.671253 207.03675 
L 539.259443 261.386972 
L 541.847632 175.981968 
L 544.435822 144.967212 
L 547.024011 304.39828 
L 549.612201 242.050251 
L 552.20039 233.492785 
L 554.788579 251.659419 
L 557.376769 223.794108 
L 559.964958 246.96404 
L 562.553148 196.151991 
L 565.141337 264.614713 
L 567.729526 233.492785 
L 570.317716 252.679771 
L 572.905905 258.560076 
L 575.494095 146.786284 
L 578.082284 246.96404 
L 580.670474 198.230788 
L 583.258663 146.380643 
L 585.846852 160.428333 
L 588.435042 104.073714 
L 591.023231 166.150949 
L 593.611421 128.913594 
L 596.19961 179.52584 
L 598.787799 179.287659 
L 601.375989 236.305622 
L 603.964178 77.110326 
L 606.552368 158.699307 
L 609.140557 214.818263 
L 611.728747 116.816307 
L 614.316936 239.15774 
L 616.905125 90.686583 
L 619.493315 221.43973 
L 622.081504 189.288271 
L 624.669694 109.582769 
L 627.257883 171.121637 
L 629.846072 252.679771 
L 632.434262 213.970206 
L 635.022451 249.97008 
L 637.610641 106.893149 
L 640.19883 225.577875 
L 642.787019 231.638854 
L 645.375209 270.481974 
L 647.963398 239.796989 
L 650.551588 195.635581 
L 653.139777 231.331495 
L 655.727967 179.52584 
L 658.316156 253.021024 
L 660.904345 213.970206 
L 666.080724 246.96404 
L 668.668914 248.628597 
L 671.257103 187.050683 
L 673.845292 160.645494 
L 676.433482 258.560076 
L 679.021671 211.725788 
L 684.19805 221.147332 
L 686.78624 225.87669 
L 689.374429 194.09414 
L 691.962618 178.100903 
L 694.550808 214.2525 
L 697.138997 139.801333 
L 699.727187 166.150949 
L 702.315376 151.925961 
L 704.903565 238.838864 
L 707.491755 200.330961 
L 710.079944 200.067255 
L 712.668134 160.645494 
L 715.256323 135.146089 
L 717.844513 195.893623 
L 720.432702 204.866849 
L 723.020891 127.24632 
L 725.609081 142.964843 
L 728.19727 244.328649 
L 730.78546 235.991165 
L 733.373649 273.480046 
L 735.961838 255.771773 
L 738.550028 221.147332 
L 741.138217 293.286251 
L 743.726407 209.229952 
L 746.314596 155.073019 
L 748.902786 255.425897 
L 751.490975 249.633882 
L 754.079164 177.392146 
L 756.667354 231.024598 
L 759.255543 297.064694 
L 764.431922 231.638854 
L 767.020111 253.021024 
L 769.608301 239.15774 
L 772.19649 160.428333 
L 774.78468 238.202602 
L 777.372869 230.412183 
L 779.961058 220.855352 
L 782.549248 172.038541 
L 785.137437 311.095274 
L 787.725627 233.803416 
L 790.313816 144.967212 
L 792.902006 270.481974 
L 795.490195 260.322295 
L 798.078384 241.72683 
L 800.666574 194.09414 
L 803.254763 124.133682 
L 805.842953 267.894284 
L 808.431142 261.743101 
L 811.019331 228.889134 
L 813.607521 204.866849 
L 816.19571 241.72683 
L 818.7839 283.143154 
L 821.372089 81.78221 
L 823.960279 166.150949 
L 826.548468 155.284557 
L 829.136657 218.823097 
L 831.724847 239.15774 
L 834.313036 169.07353 
L 836.901226 264.614713 
L 839.489415 270.854335 
L 842.077604 170.893052 
L 844.665794 104.073714 
L 847.253983 293.286251 
L 849.842173 236.620564 
L 852.430362 244.328649 
L 855.018552 261.031463 
L 857.606741 247.295868 
L 860.19493 221.147332 
L 862.78312 270.481974 
L 865.371309 209.229952 
L 867.959499 190.039615 
L 873.135877 252.679771 
L 875.724067 193.83836 
L 878.312256 289.576442 
L 880.900446 247.628236 
L 883.488635 258.560076 
L 886.076825 93.325981 
L 888.665014 276.906334 
L 891.253203 290.39504 
L 893.841393 270.481974 
L 896.429582 308.838455 
L 899.017772 127.061904 
L 901.605961 135.146089 
L 904.19415 135.146089 
L 906.78234 283.539352 
L 909.370529 242.050251 
L 911.958719 187.545811 
L 914.546908 181.441352 
L 917.135097 244.656219 
L 919.723287 164.151846 
L 922.311476 105.561507 
L 924.899666 277.290605 
L 927.487855 130.407129 
L 930.076045 145.168532 
L 932.664234 99.996932 
L 935.252423 194.35024 
L 937.840613 236.305622 
L 940.428802 290.39504 
L 943.016992 236.305622 
L 945.605181 261.386972 
L 948.19337 289.985331 
L 950.78156 261.743101 
L 953.369749 196.151991 
L 955.957939 236.620564 
L 958.546128 255.771773 
L 961.134318 244.656219 
L 963.722507 212.004995 
L 966.310696 207.03675 
L 968.898886 216.525013 
L 971.487075 258.560076 
L 974.075265 261.386972 
L 976.663454 246.96404 
L 979.251643 144.766089 
L 981.839833 216.525013 
L 984.428022 216.525013 
L 987.016212 171.808928 
L 989.604401 196.410687 
L 992.192591 270.854335 
L 994.78078 270.854335 
L 997.368969 234.11452 
L 999.957159 266.795232 
L 1002.545348 218.534418 
L 1005.133538 141.574774 
L 1007.721727 148.416951 
L 1010.309916 162.391146 
L 1012.898106 261.743101 
L 1015.486295 253.021024 
L 1018.074485 199.015824 
L 1020.662674 297.488869 
L 1023.250864 173.653094 
L 1025.839053 221.147332 
L 1028.427242 97.429859 
L 1031.015432 144.464776 
L 1033.603621 205.677863 
L 1036.191811 138.432558 
L 1038.78 238.838864 
L 1038.78 238.838864 
" clip-path="url(#p8963e6dd9e)" style="fill: none; stroke: #65b7cf; stroke-opacity: 0.9; stroke-width: 2; stroke-linecap: square"/>
   </g>
   <g id="patch_21">
    <path d="M 109.62 251.712 
L 109.62 6.624 
" style="fill: none; stroke: #000000; stroke-width: 2; stroke-linejoin: miter; stroke-linecap: square"/>
   </g>
   <g id="patch_22">
    <path d="M 109.62 251.712 
L 1038.78 251.712 
" style="fill: none; stroke: #000000; stroke-width: 2; stroke-linejoin: miter; stroke-linecap: square"/>
   </g>
   <g id="line2d_12">
    <path d="M 109.62 197.00218 
L 112.208189 199.814704 
L 114.796379 199.499744 
L 117.384568 201.69867 
L 119.972758 207.261924 
L 122.560947 205.742328 
L 125.149136 201.990281 
L 127.737326 202.269501 
L 130.325515 200.864285 
L 132.913705 200.387584 
L 135.501894 202.131817 
L 138.090084 201.874821 
L 140.678273 197.605551 
L 143.266462 194.752361 
L 145.854652 200.68929 
L 148.442841 200.590639 
L 151.031031 194.562895 
L 153.61922 195.114992 
L 158.795599 191.869673 
L 161.383788 191.989218 
L 163.971978 193.383069 
L 166.560167 183.222969 
L 169.148357 177.92948 
L 171.736546 171.361491 
L 174.324735 165.169351 
L 176.912925 163.86785 
L 179.501114 160.497236 
L 182.089304 158.536771 
L 184.677493 155.858368 
L 187.265682 153.466858 
L 189.853872 143.421535 
L 192.442061 146.747496 
L 195.030251 153.450911 
L 197.61844 154.15229 
L 200.20663 153.71977 
L 202.794819 154.817257 
L 205.383008 155.289832 
L 207.971198 156.722783 
L 210.559387 162.526588 
L 215.735766 176.917871 
L 218.323955 185.371556 
L 220.912145 187.631263 
L 223.500334 191.704658 
L 226.088524 195.062317 
L 228.676713 200.228677 
L 231.264903 204.090502 
L 233.853092 214.749763 
L 236.441281 208.531467 
L 239.029471 202.909636 
L 241.61766 203.673271 
L 244.20585 204.554467 
L 246.794039 200.85263 
L 249.382228 196.723817 
L 251.970418 195.008168 
L 254.558607 198.816384 
L 257.146797 200.014797 
L 259.734986 196.974245 
L 262.323175 191.810661 
L 264.911365 194.29954 
L 267.499554 192.319006 
L 270.087744 190.107765 
L 272.675933 184.001061 
L 275.264123 185.364668 
L 277.852312 180.920808 
L 280.440501 184.025538 
L 283.028691 184.037981 
L 285.61688 177.919649 
L 288.20507 176.81955 
L 290.793259 180.696778 
L 293.381448 174.997991 
L 295.969638 173.306733 
L 298.557827 176.915472 
L 301.146017 180.243582 
L 303.734206 185.702745 
L 306.322396 193.069448 
L 308.910585 191.476638 
L 314.086964 197.325578 
L 316.675153 204.479027 
L 319.263343 203.253714 
L 321.851532 207.319503 
L 324.439721 209.387704 
L 327.027911 210.359726 
L 329.6161 215.856184 
L 332.20429 216.667208 
L 334.792479 216.791524 
L 337.380669 227.204402 
L 339.968858 231.48376 
L 342.557047 228.304732 
L 345.145237 223.127039 
L 347.733426 213.829669 
L 350.321616 209.697827 
L 352.909805 207.385044 
L 355.497994 199.535729 
L 358.086184 197.275905 
L 360.674373 195.855324 
L 363.262563 188.927628 
L 365.850752 191.545395 
L 368.438942 188.398542 
L 371.027131 189.589595 
L 373.61532 186.34464 
L 376.20351 185.204442 
L 378.791699 185.204442 
L 381.379889 185.355328 
L 383.968078 180.75664 
L 386.556267 181.307527 
L 389.144457 183.567305 
L 391.732646 186.942099 
L 394.320836 184.245039 
L 396.909025 186.557821 
L 399.497214 195.069736 
L 402.085404 199.238619 
L 404.673593 203.134699 
L 407.261783 211.619557 
L 409.849972 211.472369 
L 412.438162 213.942888 
L 415.026351 214.290709 
L 417.61454 219.956452 
L 420.20273 222.179399 
L 422.790919 225.049191 
L 425.379109 226.781568 
L 427.967298 231.246233 
L 430.555487 233.171843 
L 433.143677 230.44585 
L 435.731866 234.249082 
L 438.320056 240.758592 
L 440.908245 239.744011 
L 443.496435 239.140159 
L 446.084624 236.022361 
L 448.672813 235.101513 
L 451.261003 228.257251 
L 453.849192 231.780735 
L 456.437382 229.816991 
L 459.025571 232.582552 
L 461.61376 223.921701 
L 464.20195 222.128466 
L 466.790139 216.841302 
L 469.378329 210.920979 
L 471.966518 209.153611 
L 474.554708 202.135606 
L 477.142897 202.982324 
L 479.731086 198.460677 
L 482.319276 193.478641 
L 487.495655 177.455181 
L 490.083844 171.501382 
L 492.672033 161.30031 
L 495.260223 164.356477 
L 497.848412 160.832993 
L 500.436602 159.433078 
L 503.024791 157.476694 
L 505.612981 165.479945 
L 508.20117 166.334099 
L 513.377549 174.239375 
L 515.965738 173.947125 
L 518.553928 181.110757 
L 521.142117 180.194952 
L 523.730306 179.797855 
L 526.318496 188.766815 
L 528.906685 199.695005 
L 531.494875 206.993779 
L 534.083064 214.759582 
L 536.671253 224.000462 
L 539.259443 227.611732 
L 541.847632 225.396942 
L 544.435822 232.14754 
L 547.024011 233.427952 
L 549.612201 233.082052 
L 552.20039 234.683733 
L 554.788579 228.272822 
L 557.376769 228.881261 
L 559.964958 228.363264 
L 562.553148 221.598185 
L 565.141337 220.683266 
L 567.729526 218.277766 
L 570.317716 210.14557 
L 572.905905 203.490472 
L 575.494095 200.315946 
L 578.082284 196.058784 
L 580.670474 196.794755 
L 583.258663 186.80336 
L 585.846852 184.600261 
L 588.435042 181.671058 
L 591.023231 174.807736 
L 593.611421 174.012323 
L 596.19961 164.137411 
L 598.787799 168.52879 
L 601.375989 165.136098 
L 603.964178 159.921509 
L 606.552368 161.376861 
L 609.140557 166.803416 
L 611.728747 173.267916 
L 614.316936 178.198453 
L 616.905125 176.903133 
L 619.493315 179.612076 
L 622.081504 182.691558 
L 624.669694 184.701932 
L 627.257883 194.271736 
L 629.846072 196.444458 
L 632.434262 197.415824 
L 635.022451 201.10462 
L 637.610641 201.920108 
L 640.19883 209.172085 
L 642.787019 209.717875 
L 645.375209 213.110568 
L 647.963398 221.289734 
L 650.551588 222.226737 
L 653.139777 216.812956 
L 655.727967 219.435889 
L 658.316156 217.186225 
L 660.904345 223.635158 
L 666.080724 223.035587 
L 668.668914 218.542185 
L 671.257103 214.913004 
L 673.845292 216.008117 
L 676.433482 210.62399 
L 679.021671 209.837231 
L 681.609861 203.890463 
L 684.19805 205.353325 
L 686.78624 203.565843 
L 689.374429 200.807208 
L 691.962618 195.631732 
L 694.550808 192.57852 
L 697.138997 194.65194 
L 699.727187 191.493514 
L 702.315376 186.524134 
L 704.903565 182.197065 
L 707.491755 183.560672 
L 710.079944 184.155641 
L 715.256323 193.394275 
L 717.844513 193.799853 
L 720.432702 202.828378 
L 723.020891 205.362437 
L 725.609081 205.547558 
L 728.19727 206.523266 
L 730.78546 209.423438 
L 733.373649 208.089608 
L 735.961838 212.229555 
L 738.550028 221.754179 
L 741.138217 225.796596 
L 743.726407 227.37142 
L 746.314596 234.769932 
L 748.902786 240.428337 
L 751.490975 235.493025 
L 754.079164 235.623109 
L 756.667354 233.089705 
L 759.255543 231.035798 
L 761.843733 228.147046 
L 764.431922 229.194635 
L 767.020111 230.640133 
L 769.608301 230.045674 
L 772.19649 230.931326 
L 774.78468 231.560056 
L 777.372869 235.344449 
L 779.961058 233.172069 
L 782.549248 222.999657 
L 785.137437 223.192573 
L 787.725627 224.963411 
L 790.313816 223.543888 
L 792.902006 221.526777 
L 795.490195 226.309041 
L 798.078384 228.952603 
L 800.666574 220.209663 
L 803.254763 216.991757 
L 805.842953 216.006229 
L 808.431142 210.578454 
L 811.019331 210.893414 
L 813.607521 212.311433 
L 816.19571 211.9663 
L 818.7839 212.585831 
L 821.372089 208.419139 
L 823.960279 203.123819 
L 826.548468 213.073971 
L 829.136657 211.23434 
L 831.724847 210.20996 
L 834.313036 212.100686 
L 836.901226 214.59651 
L 839.489415 213.385952 
L 842.077604 212.641176 
L 844.665794 220.138102 
L 847.253983 221.543318 
L 849.842173 225.434799 
L 852.430362 227.426368 
L 855.018552 224.760522 
L 857.606741 231.848929 
L 860.19493 230.849724 
L 862.78312 230.126532 
L 865.371309 225.563763 
L 867.959499 235.730388 
L 870.547688 235.560317 
L 873.135877 237.552165 
L 875.724067 241.346859 
L 878.312256 233.466297 
L 880.900446 226.869251 
L 883.488635 221.810354 
L 886.076825 222.578435 
L 888.665014 224.509041 
L 891.253203 224.362347 
L 893.841393 222.009501 
L 896.429582 221.537527 
L 899.017772 219.791262 
L 901.605961 208.966854 
L 904.19415 210.711699 
L 906.78234 203.17329 
L 909.370529 206.222852 
L 911.958719 195.816417 
L 914.546908 190.166723 
L 917.135097 188.156349 
L 919.723287 187.071442 
L 922.311476 193.497543 
L 924.899666 200.923478 
L 927.487855 210.031668 
L 930.076045 208.749536 
L 932.664234 206.049638 
L 935.252423 208.936389 
L 937.840613 213.308766 
L 940.428802 213.308766 
L 943.016992 216.123657 
L 945.605181 222.092789 
L 948.19337 218.518343 
L 950.78156 226.056751 
L 953.369749 232.89313 
L 955.957939 241.538254 
L 958.546128 238.621539 
L 961.134318 237.457974 
L 963.722507 233.112679 
L 968.898886 225.496621 
L 971.487075 224.371268 
L 974.075265 224.907223 
L 976.663454 227.140313 
L 979.251643 228.915294 
L 981.839833 226.724861 
L 984.428022 220.661247 
L 987.016212 216.920773 
L 989.604401 214.294561 
L 992.192591 216.954449 
L 994.78078 216.628622 
L 997.368969 212.959731 
L 999.957159 215.93178 
L 1002.545348 217.631016 
L 1005.133538 217.902917 
L 1007.721727 210.89732 
L 1010.309916 209.28884 
L 1012.898106 209.833968 
L 1015.486295 202.044452 
L 1018.074485 200.161189 
L 1020.662674 194.532838 
L 1023.250864 190.937699 
L 1025.839053 186.580661 
L 1028.427242 183.983901 
L 1031.015432 188.262159 
L 1033.603621 188.924626 
L 1036.191811 191.027319 
L 1038.78 187.850542 
L 1038.78 187.850542 
" clip-path="url(#p8963e6dd9e)" style="fill: none; stroke: #203d9a; stroke-width: 5; stroke-linecap: square"/>
   </g>
  </g>
 </g>
 <defs>
  <clipPath id="p8963e6dd9e">
   <rect x="109.62" y="6.624" width="929.16" height="245.088"/>
  </clipPath>
 </defs>
</svg>
